G75*
G70*
%OFA0B0*%
%FSLAX24Y24*%
%IPPOS*%
%LPD*%
%AMOC8*
5,1,8,0,0,1.08239X$1,22.5*
%
%ADD10C,0.0000*%
%ADD11OC8,0.0594*%
%ADD12OC8,0.0480*%
%ADD13C,0.0480*%
%ADD14C,0.1306*%
%ADD15C,0.0554*%
%ADD16C,0.0780*%
%ADD17C,0.0500*%
%ADD18C,0.0160*%
%ADD19C,0.0356*%
D10*
X000170Y000290D02*
X000180Y031900D01*
X058792Y031930D01*
X058792Y000400D01*
X000170Y000290D01*
D11*
X003580Y007490D03*
X004580Y007490D03*
X005580Y007490D03*
X006580Y007490D03*
X007580Y007490D03*
X007580Y008490D03*
X006580Y008490D03*
X005580Y008490D03*
X004580Y008490D03*
X003580Y008490D03*
X004070Y015710D03*
X003070Y015710D03*
X003070Y016710D03*
X004070Y016710D03*
X004070Y017710D03*
X003070Y017710D03*
X003070Y018710D03*
X004070Y018710D03*
X004070Y019710D03*
X003070Y019710D03*
X003090Y025020D03*
X004090Y025020D03*
X004090Y026020D03*
X003090Y026020D03*
X003090Y027020D03*
X004090Y027020D03*
X004090Y028020D03*
X003090Y028020D03*
X003090Y029020D03*
X004090Y029020D03*
X053120Y027280D03*
X054120Y027280D03*
X054120Y026280D03*
X053120Y026280D03*
X053120Y025280D03*
X054120Y025280D03*
X054120Y024280D03*
X053120Y024280D03*
X053120Y023280D03*
X054120Y023280D03*
X054190Y017880D03*
X053190Y017880D03*
X053190Y016880D03*
X054190Y016880D03*
X054190Y015880D03*
X053190Y015880D03*
X053190Y014880D03*
X054190Y014880D03*
X054190Y013880D03*
X053190Y013880D03*
X053180Y008270D03*
X054180Y008270D03*
X054180Y007270D03*
X053180Y007270D03*
X053180Y006270D03*
X054180Y006270D03*
X054180Y005270D03*
X053180Y005270D03*
X053180Y004270D03*
X054180Y004270D03*
D12*
X002260Y001960D03*
D13*
X002260Y002660D03*
D14*
X007123Y004487D03*
X012297Y004487D03*
D15*
X011088Y003420D03*
X010104Y003420D03*
X009316Y003420D03*
X008332Y003420D03*
D16*
X024420Y003280D02*
X024420Y004060D01*
X026390Y004060D02*
X026390Y003280D01*
X028360Y003280D02*
X028360Y004060D01*
D17*
X028860Y006980D03*
X032830Y010820D03*
X039220Y008750D03*
X047060Y007330D03*
X048390Y007050D03*
X039960Y003380D03*
X022010Y003180D03*
X013280Y007430D03*
X019790Y012640D03*
X019150Y014540D03*
X017460Y014870D03*
X011080Y015090D03*
X021390Y021550D03*
X024890Y019880D03*
X027440Y023480D03*
X020330Y025400D03*
X013540Y022940D03*
X005850Y029240D03*
X005870Y030160D03*
X032490Y016760D03*
X033590Y015240D03*
X038490Y015920D03*
X040020Y015850D03*
X039160Y024330D03*
X036600Y024350D03*
D18*
X038760Y024372D02*
X000458Y024372D01*
X000458Y024214D02*
X038775Y024214D01*
X038760Y024250D02*
X038821Y024103D01*
X038930Y023994D01*
X038930Y009026D01*
X038881Y008977D01*
X038820Y008830D01*
X038820Y008675D01*
X038785Y008640D01*
X037445Y008640D01*
X035955Y010130D01*
X019765Y010130D01*
X019380Y010515D01*
X019380Y014204D01*
X019489Y014313D01*
X019550Y014460D01*
X019550Y014620D01*
X019489Y014767D01*
X019377Y014879D01*
X019230Y014940D01*
X019070Y014940D01*
X018923Y014879D01*
X018811Y014767D01*
X018750Y014620D01*
X018750Y014460D01*
X018811Y014313D01*
X018920Y014204D01*
X018920Y010325D01*
X019055Y010190D01*
X019440Y009805D01*
X019440Y009805D01*
X019575Y009670D01*
X035765Y009670D01*
X037120Y008315D01*
X037255Y008180D01*
X038975Y008180D01*
X039145Y008350D01*
X039300Y008350D01*
X039447Y008411D01*
X039559Y008523D01*
X039620Y008670D01*
X039620Y008830D01*
X039559Y008977D01*
X039447Y009089D01*
X039390Y009113D01*
X039390Y023994D01*
X039499Y024103D01*
X039560Y024250D01*
X039560Y024410D01*
X039499Y024557D01*
X039387Y024669D01*
X039240Y024730D01*
X039080Y024730D01*
X038933Y024669D01*
X038821Y024557D01*
X038760Y024410D01*
X038760Y024250D01*
X038869Y024055D02*
X000458Y024055D01*
X000457Y023897D02*
X038930Y023897D01*
X038930Y023738D02*
X000457Y023738D01*
X000457Y023580D02*
X038930Y023580D01*
X038930Y023421D02*
X000457Y023421D01*
X000457Y023263D02*
X038930Y023263D01*
X038930Y023104D02*
X000457Y023104D01*
X000457Y022946D02*
X038930Y022946D01*
X038930Y022787D02*
X000457Y022787D01*
X000457Y022629D02*
X038930Y022629D01*
X038930Y022470D02*
X000457Y022470D01*
X000457Y022312D02*
X038930Y022312D01*
X038930Y022153D02*
X000457Y022153D01*
X000457Y021995D02*
X038930Y021995D01*
X038930Y021836D02*
X000457Y021836D01*
X000457Y021678D02*
X038930Y021678D01*
X038930Y021519D02*
X000457Y021519D01*
X000457Y021361D02*
X038930Y021361D01*
X038930Y021202D02*
X000457Y021202D01*
X000457Y021044D02*
X038930Y021044D01*
X038930Y020885D02*
X000457Y020885D01*
X000456Y020727D02*
X038930Y020727D01*
X038930Y020568D02*
X000456Y020568D01*
X000456Y020410D02*
X038930Y020410D01*
X038930Y020251D02*
X000456Y020251D01*
X000456Y020093D02*
X002821Y020093D01*
X002885Y020157D02*
X002623Y019895D01*
X002623Y019525D01*
X002885Y019263D01*
X003255Y019263D01*
X003517Y019525D01*
X003517Y019895D01*
X003255Y020157D01*
X002885Y020157D01*
X002662Y019934D02*
X000456Y019934D01*
X000456Y019776D02*
X002623Y019776D01*
X002623Y019617D02*
X000456Y019617D01*
X000456Y019459D02*
X002690Y019459D01*
X002848Y019300D02*
X000456Y019300D01*
X000456Y019142D02*
X002870Y019142D01*
X002885Y019157D02*
X002623Y018895D01*
X002623Y018525D01*
X002885Y018263D01*
X003255Y018263D01*
X003517Y018525D01*
X003517Y018895D01*
X003255Y019157D01*
X002885Y019157D01*
X002711Y018983D02*
X000456Y018983D01*
X000456Y018825D02*
X002623Y018825D01*
X002623Y018666D02*
X000456Y018666D01*
X000456Y018508D02*
X002641Y018508D01*
X002799Y018349D02*
X000456Y018349D01*
X000456Y018191D02*
X038930Y018191D01*
X038930Y018349D02*
X004341Y018349D01*
X004255Y018263D02*
X004517Y018525D01*
X004517Y018895D01*
X004255Y019157D01*
X003885Y019157D01*
X003623Y018895D01*
X003623Y018525D01*
X003885Y018263D01*
X004255Y018263D01*
X004255Y018157D02*
X003885Y018157D01*
X003623Y017895D01*
X003623Y017525D01*
X003885Y017263D01*
X004255Y017263D01*
X004517Y017525D01*
X004517Y017895D01*
X004255Y018157D01*
X004380Y018032D02*
X038930Y018032D01*
X038930Y017874D02*
X004517Y017874D01*
X004517Y017715D02*
X038930Y017715D01*
X038930Y017557D02*
X004517Y017557D01*
X004390Y017398D02*
X038930Y017398D01*
X038930Y017240D02*
X000455Y017240D01*
X000455Y017398D02*
X002750Y017398D01*
X002623Y017525D02*
X002885Y017263D01*
X003255Y017263D01*
X003517Y017525D01*
X003517Y017895D01*
X003255Y018157D01*
X002885Y018157D01*
X002623Y017895D01*
X002623Y017525D01*
X002623Y017557D02*
X000455Y017557D01*
X000456Y017715D02*
X002623Y017715D01*
X002623Y017874D02*
X000456Y017874D01*
X000456Y018032D02*
X002760Y018032D01*
X003380Y018032D02*
X003760Y018032D01*
X003623Y017874D02*
X003517Y017874D01*
X003517Y017715D02*
X003623Y017715D01*
X003623Y017557D02*
X003517Y017557D01*
X003390Y017398D02*
X003750Y017398D01*
X003885Y017157D02*
X003623Y016895D01*
X003623Y016525D01*
X003885Y016263D01*
X004255Y016263D01*
X004517Y016525D01*
X004517Y016895D01*
X004255Y017157D01*
X003885Y017157D01*
X003809Y017081D02*
X003331Y017081D01*
X003255Y017157D02*
X002885Y017157D01*
X002623Y016895D01*
X002623Y016525D01*
X002885Y016263D01*
X003255Y016263D01*
X003517Y016525D01*
X003517Y016895D01*
X003255Y017157D01*
X003489Y016923D02*
X003651Y016923D01*
X003623Y016764D02*
X003517Y016764D01*
X003517Y016606D02*
X003623Y016606D01*
X003701Y016447D02*
X003439Y016447D01*
X003280Y016289D02*
X003860Y016289D01*
X003885Y016157D02*
X003623Y015895D01*
X003623Y015525D01*
X003885Y015263D01*
X004255Y015263D01*
X004517Y015525D01*
X004517Y015895D01*
X004255Y016157D01*
X003885Y016157D01*
X003858Y016130D02*
X003282Y016130D01*
X003255Y016157D02*
X002885Y016157D01*
X002623Y015895D01*
X002623Y015525D01*
X002885Y015263D01*
X003255Y015263D01*
X003517Y015525D01*
X003517Y015895D01*
X003255Y016157D01*
X003440Y015972D02*
X003700Y015972D01*
X003623Y015813D02*
X003517Y015813D01*
X003517Y015655D02*
X003623Y015655D01*
X003652Y015496D02*
X003488Y015496D01*
X003329Y015338D02*
X003811Y015338D01*
X004329Y015338D02*
X010762Y015338D01*
X010741Y015317D02*
X010680Y015170D01*
X010680Y015010D01*
X010741Y014863D01*
X010853Y014751D01*
X011000Y014690D01*
X011155Y014690D01*
X021780Y004065D01*
X021780Y003516D01*
X021671Y003407D01*
X021610Y003260D01*
X021610Y003100D01*
X021671Y002953D01*
X021783Y002841D01*
X021930Y002780D01*
X022090Y002780D01*
X022237Y002841D01*
X022349Y002953D01*
X022410Y003100D01*
X022410Y003260D01*
X022349Y003407D01*
X022240Y003516D01*
X022240Y004255D01*
X011480Y015015D01*
X011480Y015170D01*
X011419Y015317D01*
X011307Y015429D01*
X011160Y015490D01*
X011000Y015490D01*
X010853Y015429D01*
X010741Y015317D01*
X010684Y015179D02*
X000455Y015179D01*
X000455Y015021D02*
X010680Y015021D01*
X010742Y014862D02*
X000455Y014862D01*
X000455Y014704D02*
X010968Y014704D01*
X011300Y014545D02*
X000455Y014545D01*
X000454Y014387D02*
X011458Y014387D01*
X011617Y014228D02*
X000454Y014228D01*
X000454Y014070D02*
X011775Y014070D01*
X011934Y013911D02*
X000454Y013911D01*
X000454Y013753D02*
X012092Y013753D01*
X012251Y013594D02*
X000454Y013594D01*
X000454Y013436D02*
X012409Y013436D01*
X012568Y013277D02*
X000454Y013277D01*
X000454Y013119D02*
X012726Y013119D01*
X012885Y012960D02*
X000454Y012960D01*
X000454Y012802D02*
X013043Y012802D01*
X013202Y012643D02*
X000454Y012643D01*
X000454Y012485D02*
X013360Y012485D01*
X013519Y012326D02*
X000454Y012326D01*
X000454Y012168D02*
X013677Y012168D01*
X013836Y012009D02*
X000454Y012009D01*
X000454Y011851D02*
X013994Y011851D01*
X014153Y011692D02*
X000454Y011692D01*
X000454Y011534D02*
X014311Y011534D01*
X014470Y011375D02*
X000454Y011375D01*
X000453Y011217D02*
X014628Y011217D01*
X014787Y011058D02*
X000453Y011058D01*
X000453Y010900D02*
X014945Y010900D01*
X015104Y010741D02*
X000453Y010741D01*
X000453Y010583D02*
X015262Y010583D01*
X015421Y010424D02*
X000453Y010424D01*
X000453Y010266D02*
X015579Y010266D01*
X015738Y010107D02*
X000453Y010107D01*
X000453Y009949D02*
X015896Y009949D01*
X016055Y009790D02*
X000453Y009790D01*
X000453Y009632D02*
X016213Y009632D01*
X016372Y009473D02*
X000453Y009473D01*
X000453Y009315D02*
X016530Y009315D01*
X016689Y009156D02*
X000453Y009156D01*
X000453Y008998D02*
X016847Y008998D01*
X017006Y008839D02*
X007863Y008839D01*
X007765Y008937D02*
X007395Y008937D01*
X007133Y008675D01*
X007133Y008305D01*
X007395Y008043D01*
X007765Y008043D01*
X008027Y008305D01*
X008027Y008675D01*
X007765Y008937D01*
X008021Y008681D02*
X017164Y008681D01*
X017323Y008522D02*
X008027Y008522D01*
X008027Y008364D02*
X017481Y008364D01*
X017640Y008205D02*
X007927Y008205D01*
X007768Y008047D02*
X017798Y008047D01*
X017957Y007888D02*
X007856Y007888D01*
X007778Y007967D02*
X007598Y007967D01*
X007598Y007508D01*
X008057Y007508D01*
X008057Y007688D01*
X007778Y007967D01*
X007598Y007888D02*
X007562Y007888D01*
X007562Y007967D02*
X007382Y007967D01*
X007103Y007688D01*
X007103Y007508D01*
X007562Y007508D01*
X007562Y007472D01*
X007598Y007472D01*
X007598Y007508D01*
X007562Y007508D01*
X007562Y007967D01*
X007392Y008047D02*
X006768Y008047D01*
X006765Y008043D02*
X007027Y008305D01*
X007027Y008675D01*
X006765Y008937D01*
X006395Y008937D01*
X006133Y008675D01*
X006133Y008305D01*
X006395Y008043D01*
X006765Y008043D01*
X006778Y007967D02*
X006598Y007967D01*
X006598Y007508D01*
X007057Y007508D01*
X007057Y007688D01*
X006778Y007967D01*
X006856Y007888D02*
X007304Y007888D01*
X007145Y007730D02*
X007015Y007730D01*
X007057Y007571D02*
X007103Y007571D01*
X007103Y007472D02*
X007103Y007292D01*
X007382Y007013D01*
X007562Y007013D01*
X007562Y007472D01*
X007103Y007472D01*
X007057Y007472D02*
X006598Y007472D01*
X006598Y007508D01*
X006562Y007508D01*
X006562Y007472D01*
X006598Y007472D01*
X006598Y007013D01*
X006778Y007013D01*
X007057Y007292D01*
X007057Y007472D01*
X007057Y007413D02*
X007103Y007413D01*
X007142Y007254D02*
X007018Y007254D01*
X006860Y007096D02*
X007300Y007096D01*
X007562Y007096D02*
X007598Y007096D01*
X007598Y007013D02*
X007778Y007013D01*
X008057Y007292D01*
X008057Y007472D01*
X007598Y007472D01*
X007598Y007013D01*
X007598Y007254D02*
X007562Y007254D01*
X007562Y007413D02*
X007598Y007413D01*
X007598Y007571D02*
X007562Y007571D01*
X007562Y007730D02*
X007598Y007730D01*
X008015Y007730D02*
X018115Y007730D01*
X018274Y007571D02*
X008057Y007571D01*
X008057Y007413D02*
X018432Y007413D01*
X018591Y007254D02*
X008018Y007254D01*
X007860Y007096D02*
X018749Y007096D01*
X018908Y006937D02*
X000452Y006937D01*
X000452Y006779D02*
X019066Y006779D01*
X019225Y006620D02*
X000452Y006620D01*
X000452Y006462D02*
X019383Y006462D01*
X019542Y006303D02*
X000452Y006303D01*
X000452Y006145D02*
X019700Y006145D01*
X019859Y005986D02*
X000452Y005986D01*
X000452Y005828D02*
X020017Y005828D01*
X020176Y005669D02*
X000452Y005669D01*
X000452Y005511D02*
X020334Y005511D01*
X020493Y005352D02*
X000452Y005352D01*
X000452Y005194D02*
X006732Y005194D01*
X006669Y005167D02*
X006443Y004942D01*
X006321Y004647D01*
X006321Y004327D01*
X006443Y004032D01*
X006669Y003806D01*
X006964Y003684D01*
X007283Y003684D01*
X007578Y003806D01*
X007804Y004032D01*
X007926Y004327D01*
X007926Y004647D01*
X007804Y004942D01*
X007578Y005167D01*
X007283Y005290D01*
X006964Y005290D01*
X006669Y005167D01*
X006536Y005035D02*
X000451Y005035D01*
X000451Y004877D02*
X006416Y004877D01*
X006350Y004718D02*
X000451Y004718D01*
X000451Y004560D02*
X006321Y004560D01*
X006321Y004401D02*
X000451Y004401D01*
X000451Y004243D02*
X006356Y004243D01*
X006421Y004084D02*
X000451Y004084D01*
X000451Y003926D02*
X006550Y003926D01*
X006764Y003767D02*
X000451Y003767D01*
X000451Y003609D02*
X007948Y003609D01*
X007970Y003662D02*
X007905Y003505D01*
X007905Y003335D01*
X007970Y003178D01*
X008090Y003058D01*
X008247Y002993D01*
X008417Y002993D01*
X008574Y003058D01*
X008694Y003178D01*
X008759Y003335D01*
X008759Y003505D01*
X008694Y003662D01*
X008574Y003782D01*
X008417Y003847D01*
X008247Y003847D01*
X008090Y003782D01*
X007970Y003662D01*
X008075Y003767D02*
X007483Y003767D01*
X007697Y003926D02*
X011723Y003926D01*
X011616Y004032D02*
X011842Y003806D01*
X012137Y003684D01*
X012456Y003684D01*
X012751Y003806D01*
X012977Y004032D01*
X013099Y004327D01*
X013099Y004647D01*
X012977Y004942D01*
X012751Y005167D01*
X012456Y005290D01*
X012137Y005290D01*
X011842Y005167D01*
X011616Y004942D01*
X011494Y004647D01*
X011494Y004327D01*
X011616Y004032D01*
X011595Y004084D02*
X007825Y004084D01*
X007891Y004243D02*
X011529Y004243D01*
X011494Y004401D02*
X007926Y004401D01*
X007926Y004560D02*
X011494Y004560D01*
X011523Y004718D02*
X007897Y004718D01*
X007831Y004877D02*
X011589Y004877D01*
X011709Y005035D02*
X007711Y005035D01*
X007515Y005194D02*
X011905Y005194D01*
X012688Y005194D02*
X020651Y005194D01*
X020810Y005035D02*
X012884Y005035D01*
X013004Y004877D02*
X020968Y004877D01*
X021127Y004718D02*
X013070Y004718D01*
X013099Y004560D02*
X021285Y004560D01*
X021444Y004401D02*
X013099Y004401D01*
X013064Y004243D02*
X021602Y004243D01*
X021761Y004084D02*
X012999Y004084D01*
X012870Y003926D02*
X021780Y003926D01*
X021780Y003767D02*
X012656Y003767D01*
X011937Y003767D02*
X011387Y003767D01*
X011386Y003769D02*
X011328Y003811D01*
X011263Y003844D01*
X011195Y003866D01*
X011124Y003877D01*
X011097Y003877D01*
X011097Y003429D01*
X011545Y003429D01*
X011545Y003456D01*
X011534Y003527D01*
X011512Y003595D01*
X011479Y003660D01*
X011437Y003718D01*
X011386Y003769D01*
X011505Y003609D02*
X021780Y003609D01*
X021714Y003450D02*
X011545Y003450D01*
X011545Y003411D02*
X011097Y003411D01*
X011097Y003429D01*
X011079Y003429D01*
X011079Y003877D01*
X011052Y003877D01*
X010981Y003866D01*
X010912Y003844D01*
X010848Y003811D01*
X010790Y003769D01*
X010739Y003718D01*
X010697Y003660D01*
X010664Y003595D01*
X010642Y003527D01*
X010631Y003456D01*
X010631Y003429D01*
X011079Y003429D01*
X011079Y003411D01*
X011097Y003411D01*
X011097Y002963D01*
X011124Y002963D01*
X011195Y002974D01*
X011263Y002996D01*
X011328Y003029D01*
X011386Y003071D01*
X011437Y003122D01*
X011479Y003180D01*
X011512Y003245D01*
X011534Y003313D01*
X011545Y003384D01*
X011545Y003411D01*
X011527Y003292D02*
X021623Y003292D01*
X021610Y003133D02*
X011445Y003133D01*
X011196Y002975D02*
X021662Y002975D01*
X021844Y002816D02*
X002618Y002816D01*
X002591Y002881D02*
X002481Y002991D01*
X002338Y003050D01*
X002182Y003050D01*
X002039Y002991D01*
X001929Y002881D01*
X001870Y002738D01*
X001870Y002582D01*
X001929Y002439D01*
X002037Y002331D01*
X001840Y002134D01*
X001840Y001960D01*
X002260Y001960D01*
X002680Y001960D01*
X002680Y002134D01*
X002483Y002331D01*
X002591Y002439D01*
X002650Y002582D01*
X002650Y002738D01*
X002591Y002881D01*
X002497Y002975D02*
X010980Y002975D01*
X010981Y002974D02*
X011052Y002963D01*
X011079Y002963D01*
X011079Y003411D01*
X010631Y003411D01*
X010631Y003384D01*
X010642Y003313D01*
X010664Y003245D01*
X010697Y003180D01*
X010739Y003122D01*
X010790Y003071D01*
X010848Y003029D01*
X010912Y002996D01*
X010981Y002974D01*
X011079Y002975D02*
X011097Y002975D01*
X011097Y003133D02*
X011079Y003133D01*
X011079Y003292D02*
X011097Y003292D01*
X011097Y003450D02*
X011079Y003450D01*
X011079Y003609D02*
X011097Y003609D01*
X011097Y003767D02*
X011079Y003767D01*
X010788Y003767D02*
X010361Y003767D01*
X010346Y003782D02*
X010189Y003847D01*
X010019Y003847D01*
X009862Y003782D01*
X009742Y003662D01*
X009710Y003586D01*
X009678Y003662D01*
X009558Y003782D01*
X009401Y003847D01*
X009231Y003847D01*
X009074Y003782D01*
X008954Y003662D01*
X008889Y003505D01*
X008889Y003335D01*
X008954Y003178D01*
X009074Y003058D01*
X009231Y002993D01*
X009401Y002993D01*
X009558Y003058D01*
X009678Y003178D01*
X009710Y003254D01*
X009742Y003178D01*
X009862Y003058D01*
X010019Y002993D01*
X010189Y002993D01*
X010346Y003058D01*
X010466Y003178D01*
X010531Y003335D01*
X010531Y003505D01*
X010466Y003662D01*
X010346Y003782D01*
X010488Y003609D02*
X010671Y003609D01*
X010631Y003450D02*
X010531Y003450D01*
X010513Y003292D02*
X010649Y003292D01*
X010731Y003133D02*
X010421Y003133D01*
X009787Y003133D02*
X009633Y003133D01*
X008999Y003133D02*
X008649Y003133D01*
X008741Y003292D02*
X008907Y003292D01*
X008889Y003450D02*
X008759Y003450D01*
X008716Y003609D02*
X008932Y003609D01*
X009059Y003767D02*
X008589Y003767D01*
X007905Y003450D02*
X000451Y003450D01*
X000451Y003292D02*
X007923Y003292D01*
X008015Y003133D02*
X000451Y003133D01*
X000451Y002975D02*
X002023Y002975D01*
X001902Y002816D02*
X000451Y002816D01*
X000451Y002658D02*
X001870Y002658D01*
X001905Y002499D02*
X000451Y002499D01*
X000451Y002341D02*
X002028Y002341D01*
X001888Y002182D02*
X000451Y002182D01*
X000451Y002024D02*
X001840Y002024D01*
X001840Y001960D02*
X001840Y001786D01*
X002086Y001540D01*
X002260Y001540D01*
X002434Y001540D01*
X002680Y001786D01*
X002680Y001960D01*
X002260Y001960D01*
X002260Y001960D01*
X002260Y001960D01*
X002260Y001540D01*
X002260Y001960D01*
X002260Y001960D01*
X001840Y001960D01*
X001840Y001865D02*
X000450Y001865D01*
X000450Y001707D02*
X001920Y001707D01*
X002078Y001548D02*
X000450Y001548D01*
X000450Y001390D02*
X058512Y001390D01*
X058512Y001548D02*
X002442Y001548D01*
X002260Y001548D02*
X002260Y001548D01*
X002260Y001707D02*
X002260Y001707D01*
X002260Y001865D02*
X002260Y001865D01*
X002600Y001707D02*
X058512Y001707D01*
X058512Y001865D02*
X002680Y001865D01*
X002680Y002024D02*
X058512Y002024D01*
X058512Y002182D02*
X002632Y002182D01*
X002492Y002341D02*
X058512Y002341D01*
X058512Y002499D02*
X002615Y002499D01*
X002650Y002658D02*
X058512Y002658D01*
X058512Y002816D02*
X028651Y002816D01*
X028666Y002822D02*
X028818Y002974D01*
X028900Y003173D01*
X028900Y004167D01*
X028818Y004366D01*
X028666Y004518D01*
X028467Y004600D01*
X028253Y004600D01*
X028054Y004518D01*
X027902Y004366D01*
X027820Y004167D01*
X027820Y003173D01*
X027902Y002974D01*
X028054Y002822D01*
X028253Y002740D01*
X028467Y002740D01*
X028666Y002822D01*
X028818Y002975D02*
X058512Y002975D01*
X058512Y003133D02*
X040279Y003133D01*
X040299Y003153D02*
X040360Y003300D01*
X040360Y003460D01*
X040299Y003607D01*
X040190Y003716D01*
X040190Y015487D01*
X040247Y015511D01*
X040359Y015623D01*
X040420Y015770D01*
X040420Y015930D01*
X040359Y016077D01*
X040247Y016189D01*
X040100Y016250D01*
X039940Y016250D01*
X039793Y016189D01*
X039681Y016077D01*
X039620Y015930D01*
X039620Y015770D01*
X039681Y015623D01*
X039730Y015574D01*
X039730Y003716D01*
X039621Y003607D01*
X039560Y003460D01*
X039560Y003300D01*
X039621Y003153D01*
X039733Y003041D01*
X039880Y002980D01*
X040040Y002980D01*
X040187Y003041D01*
X040299Y003153D01*
X040356Y003292D02*
X058512Y003292D01*
X058512Y003450D02*
X040360Y003450D01*
X040297Y003609D02*
X058512Y003609D01*
X058512Y003767D02*
X040190Y003767D01*
X040190Y003926D02*
X052893Y003926D01*
X052995Y003823D02*
X053365Y003823D01*
X053627Y004085D01*
X053627Y004455D01*
X053365Y004717D01*
X052995Y004717D01*
X052733Y004455D01*
X052733Y004085D01*
X052995Y003823D01*
X052734Y004084D02*
X040190Y004084D01*
X040190Y004243D02*
X052733Y004243D01*
X052733Y004401D02*
X040190Y004401D01*
X040190Y004560D02*
X052838Y004560D01*
X052995Y004823D02*
X053365Y004823D01*
X053627Y005085D01*
X053627Y005455D01*
X053365Y005717D01*
X052995Y005717D01*
X052733Y005455D01*
X052733Y005085D01*
X052995Y004823D01*
X052942Y004877D02*
X040190Y004877D01*
X040190Y005035D02*
X052783Y005035D01*
X052733Y005194D02*
X040190Y005194D01*
X040190Y005352D02*
X052733Y005352D01*
X052789Y005511D02*
X040190Y005511D01*
X040190Y005669D02*
X052947Y005669D01*
X052995Y005823D02*
X052733Y006085D01*
X052733Y006455D01*
X052995Y006717D01*
X053365Y006717D01*
X053627Y006455D01*
X053627Y006085D01*
X053365Y005823D01*
X052995Y005823D01*
X052991Y005828D02*
X040190Y005828D01*
X040190Y005986D02*
X052832Y005986D01*
X052733Y006145D02*
X040190Y006145D01*
X040190Y006303D02*
X052733Y006303D01*
X052740Y006462D02*
X040190Y006462D01*
X040190Y006620D02*
X052898Y006620D01*
X052995Y006823D02*
X052733Y007085D01*
X052733Y007455D01*
X052995Y007717D01*
X053365Y007717D01*
X053627Y007455D01*
X053627Y007085D01*
X053365Y006823D01*
X052995Y006823D01*
X052881Y006937D02*
X048776Y006937D01*
X048790Y006970D02*
X048729Y006823D01*
X048617Y006711D01*
X048470Y006650D01*
X048310Y006650D01*
X048163Y006711D01*
X048051Y006823D01*
X047990Y006970D01*
X047990Y007130D01*
X048051Y007277D01*
X048160Y007386D01*
X048160Y029165D01*
X046325Y031000D01*
X006712Y031000D01*
X006244Y030303D01*
X006270Y030240D01*
X006270Y030080D01*
X006209Y029933D01*
X006097Y029821D01*
X005950Y029760D01*
X005790Y029760D01*
X005643Y029821D01*
X005531Y029933D01*
X005470Y030080D01*
X005470Y030240D01*
X005531Y030387D01*
X005643Y030499D01*
X005790Y030560D01*
X005862Y030560D01*
X006360Y031300D01*
X006360Y031325D01*
X006412Y031377D01*
X006452Y031437D01*
X006477Y031442D01*
X006495Y031460D01*
X006568Y031460D01*
X006639Y031474D01*
X006660Y031460D01*
X046515Y031460D01*
X046650Y031325D01*
X048620Y029355D01*
X048620Y007386D01*
X048729Y007277D01*
X048790Y007130D01*
X048790Y006970D01*
X048790Y007096D02*
X052733Y007096D01*
X052733Y007254D02*
X048738Y007254D01*
X048620Y007413D02*
X052733Y007413D01*
X052849Y007571D02*
X048620Y007571D01*
X048620Y007730D02*
X058512Y007730D01*
X058512Y007888D02*
X054430Y007888D01*
X054365Y007823D02*
X054627Y008085D01*
X054627Y008455D01*
X054365Y008717D01*
X053995Y008717D01*
X053733Y008455D01*
X053733Y008085D01*
X053995Y007823D01*
X054365Y007823D01*
X054365Y007717D02*
X053995Y007717D01*
X053733Y007455D01*
X053733Y007085D01*
X053995Y006823D01*
X054365Y006823D01*
X054627Y007085D01*
X054627Y007455D01*
X054365Y007717D01*
X054511Y007571D02*
X058512Y007571D01*
X058512Y007413D02*
X054627Y007413D01*
X054627Y007254D02*
X058512Y007254D01*
X058512Y007096D02*
X054627Y007096D01*
X054479Y006937D02*
X058512Y006937D01*
X058512Y006779D02*
X048684Y006779D01*
X048390Y007050D02*
X048390Y029260D01*
X046420Y031230D01*
X006590Y031230D01*
X005870Y030160D01*
X006195Y029920D02*
X006264Y029920D01*
X006269Y030078D02*
X006441Y030078D01*
X006270Y030237D02*
X006617Y030237D01*
X006794Y030395D02*
X006305Y030395D01*
X006412Y030554D02*
X006971Y030554D01*
X007148Y030712D02*
X006519Y030712D01*
X006625Y030871D02*
X046454Y030871D01*
X046340Y030715D02*
X046205Y030850D01*
X007396Y030850D01*
X007307Y030855D01*
X007302Y030850D01*
X007295Y030850D01*
X007232Y030787D01*
X005945Y029634D01*
X005930Y029640D01*
X005770Y029640D01*
X005623Y029579D01*
X005511Y029467D01*
X005450Y029320D01*
X005450Y029160D01*
X005511Y029013D01*
X005623Y028901D01*
X005770Y028840D01*
X005930Y028840D01*
X006077Y028901D01*
X006189Y029013D01*
X006250Y029160D01*
X006250Y029290D01*
X007478Y030390D01*
X046015Y030390D01*
X046830Y029575D01*
X046830Y007666D01*
X046721Y007557D01*
X046660Y007410D01*
X046660Y007250D01*
X046721Y007103D01*
X046833Y006991D01*
X046980Y006930D01*
X047140Y006930D01*
X047287Y006991D01*
X047399Y007103D01*
X047460Y007250D01*
X047460Y007410D01*
X047399Y007557D01*
X047290Y007666D01*
X047290Y029765D01*
X046340Y030715D01*
X046343Y030712D02*
X046613Y030712D01*
X046502Y030554D02*
X046771Y030554D01*
X046660Y030395D02*
X046930Y030395D01*
X046819Y030237D02*
X047088Y030237D01*
X046977Y030078D02*
X047247Y030078D01*
X047136Y029920D02*
X047405Y029920D01*
X047290Y029761D02*
X047564Y029761D01*
X047722Y029603D02*
X047290Y029603D01*
X047290Y029444D02*
X047881Y029444D01*
X048039Y029286D02*
X047290Y029286D01*
X047290Y029127D02*
X048160Y029127D01*
X048160Y028969D02*
X047290Y028969D01*
X047290Y028810D02*
X048160Y028810D01*
X048160Y028652D02*
X047290Y028652D01*
X047290Y028493D02*
X048160Y028493D01*
X048160Y028335D02*
X047290Y028335D01*
X047290Y028176D02*
X048160Y028176D01*
X048160Y028018D02*
X047290Y028018D01*
X047290Y027859D02*
X048160Y027859D01*
X048160Y027701D02*
X047290Y027701D01*
X047290Y027542D02*
X048160Y027542D01*
X048160Y027384D02*
X047290Y027384D01*
X047290Y027225D02*
X048160Y027225D01*
X048160Y027067D02*
X047290Y027067D01*
X047290Y026908D02*
X048160Y026908D01*
X048160Y026750D02*
X047290Y026750D01*
X047290Y026591D02*
X048160Y026591D01*
X048160Y026433D02*
X047290Y026433D01*
X047290Y026274D02*
X048160Y026274D01*
X048160Y026116D02*
X047290Y026116D01*
X047290Y025957D02*
X048160Y025957D01*
X048160Y025799D02*
X047290Y025799D01*
X047290Y025640D02*
X048160Y025640D01*
X048160Y025482D02*
X047290Y025482D01*
X047290Y025323D02*
X048160Y025323D01*
X048160Y025165D02*
X047290Y025165D01*
X047290Y025006D02*
X048160Y025006D01*
X048160Y024848D02*
X047290Y024848D01*
X047290Y024689D02*
X048160Y024689D01*
X048160Y024531D02*
X047290Y024531D01*
X047290Y024372D02*
X048160Y024372D01*
X048160Y024214D02*
X047290Y024214D01*
X047290Y024055D02*
X048160Y024055D01*
X048160Y023897D02*
X047290Y023897D01*
X047290Y023738D02*
X048160Y023738D01*
X048160Y023580D02*
X047290Y023580D01*
X047290Y023421D02*
X048160Y023421D01*
X048160Y023263D02*
X047290Y023263D01*
X047290Y023104D02*
X048160Y023104D01*
X048160Y022946D02*
X047290Y022946D01*
X047290Y022787D02*
X048160Y022787D01*
X048160Y022629D02*
X047290Y022629D01*
X047290Y022470D02*
X048160Y022470D01*
X048160Y022312D02*
X047290Y022312D01*
X047290Y022153D02*
X048160Y022153D01*
X048160Y021995D02*
X047290Y021995D01*
X047290Y021836D02*
X048160Y021836D01*
X048160Y021678D02*
X047290Y021678D01*
X047290Y021519D02*
X048160Y021519D01*
X048160Y021361D02*
X047290Y021361D01*
X047290Y021202D02*
X048160Y021202D01*
X048160Y021044D02*
X047290Y021044D01*
X047290Y020885D02*
X048160Y020885D01*
X048160Y020727D02*
X047290Y020727D01*
X047290Y020568D02*
X048160Y020568D01*
X048160Y020410D02*
X047290Y020410D01*
X047290Y020251D02*
X048160Y020251D01*
X048160Y020093D02*
X047290Y020093D01*
X047290Y019934D02*
X048160Y019934D01*
X048160Y019776D02*
X047290Y019776D01*
X047290Y019617D02*
X048160Y019617D01*
X048160Y019459D02*
X047290Y019459D01*
X047290Y019300D02*
X048160Y019300D01*
X048160Y019142D02*
X047290Y019142D01*
X047290Y018983D02*
X048160Y018983D01*
X048160Y018825D02*
X047290Y018825D01*
X047290Y018666D02*
X048160Y018666D01*
X048160Y018508D02*
X047290Y018508D01*
X047290Y018349D02*
X048160Y018349D01*
X048160Y018191D02*
X047290Y018191D01*
X047290Y018032D02*
X048160Y018032D01*
X048160Y017874D02*
X047290Y017874D01*
X047290Y017715D02*
X048160Y017715D01*
X048160Y017557D02*
X047290Y017557D01*
X047290Y017398D02*
X048160Y017398D01*
X048160Y017240D02*
X047290Y017240D01*
X047290Y017081D02*
X048160Y017081D01*
X048160Y016923D02*
X047290Y016923D01*
X047290Y016764D02*
X048160Y016764D01*
X048160Y016606D02*
X047290Y016606D01*
X047290Y016447D02*
X048160Y016447D01*
X048160Y016289D02*
X047290Y016289D01*
X047290Y016130D02*
X048160Y016130D01*
X048160Y015972D02*
X047290Y015972D01*
X047290Y015813D02*
X048160Y015813D01*
X048160Y015655D02*
X047290Y015655D01*
X047290Y015496D02*
X048160Y015496D01*
X048160Y015338D02*
X047290Y015338D01*
X047290Y015179D02*
X048160Y015179D01*
X048160Y015021D02*
X047290Y015021D01*
X047290Y014862D02*
X048160Y014862D01*
X048160Y014704D02*
X047290Y014704D01*
X047290Y014545D02*
X048160Y014545D01*
X048160Y014387D02*
X047290Y014387D01*
X047290Y014228D02*
X048160Y014228D01*
X048160Y014070D02*
X047290Y014070D01*
X047290Y013911D02*
X048160Y013911D01*
X048160Y013753D02*
X047290Y013753D01*
X047290Y013594D02*
X048160Y013594D01*
X048160Y013436D02*
X047290Y013436D01*
X047290Y013277D02*
X048160Y013277D01*
X048160Y013119D02*
X047290Y013119D01*
X047290Y012960D02*
X048160Y012960D01*
X048160Y012802D02*
X047290Y012802D01*
X047290Y012643D02*
X048160Y012643D01*
X048160Y012485D02*
X047290Y012485D01*
X047290Y012326D02*
X048160Y012326D01*
X048160Y012168D02*
X047290Y012168D01*
X047290Y012009D02*
X048160Y012009D01*
X048160Y011851D02*
X047290Y011851D01*
X047290Y011692D02*
X048160Y011692D01*
X048160Y011534D02*
X047290Y011534D01*
X047290Y011375D02*
X048160Y011375D01*
X048160Y011217D02*
X047290Y011217D01*
X047290Y011058D02*
X048160Y011058D01*
X048160Y010900D02*
X047290Y010900D01*
X047290Y010741D02*
X048160Y010741D01*
X048160Y010583D02*
X047290Y010583D01*
X047290Y010424D02*
X048160Y010424D01*
X048160Y010266D02*
X047290Y010266D01*
X047290Y010107D02*
X048160Y010107D01*
X048160Y009949D02*
X047290Y009949D01*
X047290Y009790D02*
X048160Y009790D01*
X048160Y009632D02*
X047290Y009632D01*
X047290Y009473D02*
X048160Y009473D01*
X048160Y009315D02*
X047290Y009315D01*
X047290Y009156D02*
X048160Y009156D01*
X048160Y008998D02*
X047290Y008998D01*
X047290Y008839D02*
X048160Y008839D01*
X048160Y008681D02*
X047290Y008681D01*
X047290Y008522D02*
X048160Y008522D01*
X048160Y008364D02*
X047290Y008364D01*
X047290Y008205D02*
X048160Y008205D01*
X048160Y008047D02*
X047290Y008047D01*
X047290Y007888D02*
X048160Y007888D01*
X048160Y007730D02*
X047290Y007730D01*
X047385Y007571D02*
X048160Y007571D01*
X048160Y007413D02*
X047459Y007413D01*
X047460Y007254D02*
X048042Y007254D01*
X047990Y007096D02*
X047391Y007096D01*
X047156Y006937D02*
X048004Y006937D01*
X048096Y006779D02*
X040190Y006779D01*
X040190Y006937D02*
X046964Y006937D01*
X046729Y007096D02*
X040190Y007096D01*
X040190Y007254D02*
X046660Y007254D01*
X046661Y007413D02*
X040190Y007413D01*
X040190Y007571D02*
X046735Y007571D01*
X046830Y007730D02*
X040190Y007730D01*
X040190Y007888D02*
X046830Y007888D01*
X046830Y008047D02*
X040190Y008047D01*
X040190Y008205D02*
X046830Y008205D01*
X046830Y008364D02*
X040190Y008364D01*
X040190Y008522D02*
X046830Y008522D01*
X046830Y008681D02*
X040190Y008681D01*
X040190Y008839D02*
X046830Y008839D01*
X046830Y008998D02*
X040190Y008998D01*
X040190Y009156D02*
X046830Y009156D01*
X046830Y009315D02*
X040190Y009315D01*
X040190Y009473D02*
X046830Y009473D01*
X046830Y009632D02*
X040190Y009632D01*
X040190Y009790D02*
X046830Y009790D01*
X046830Y009949D02*
X040190Y009949D01*
X040190Y010107D02*
X046830Y010107D01*
X046830Y010266D02*
X040190Y010266D01*
X040190Y010424D02*
X046830Y010424D01*
X046830Y010583D02*
X040190Y010583D01*
X040190Y010741D02*
X046830Y010741D01*
X046830Y010900D02*
X040190Y010900D01*
X040190Y011058D02*
X046830Y011058D01*
X046830Y011217D02*
X040190Y011217D01*
X040190Y011375D02*
X046830Y011375D01*
X046830Y011534D02*
X040190Y011534D01*
X040190Y011692D02*
X046830Y011692D01*
X046830Y011851D02*
X040190Y011851D01*
X040190Y012009D02*
X046830Y012009D01*
X046830Y012168D02*
X040190Y012168D01*
X040190Y012326D02*
X046830Y012326D01*
X046830Y012485D02*
X040190Y012485D01*
X040190Y012643D02*
X046830Y012643D01*
X046830Y012802D02*
X040190Y012802D01*
X040190Y012960D02*
X046830Y012960D01*
X046830Y013119D02*
X040190Y013119D01*
X040190Y013277D02*
X046830Y013277D01*
X046830Y013436D02*
X040190Y013436D01*
X040190Y013594D02*
X046830Y013594D01*
X046830Y013753D02*
X040190Y013753D01*
X040190Y013911D02*
X046830Y013911D01*
X046830Y014070D02*
X040190Y014070D01*
X040190Y014228D02*
X046830Y014228D01*
X046830Y014387D02*
X040190Y014387D01*
X040190Y014545D02*
X046830Y014545D01*
X046830Y014704D02*
X040190Y014704D01*
X040190Y014862D02*
X046830Y014862D01*
X046830Y015021D02*
X040190Y015021D01*
X040190Y015179D02*
X046830Y015179D01*
X046830Y015338D02*
X040190Y015338D01*
X040211Y015496D02*
X046830Y015496D01*
X046830Y015655D02*
X040372Y015655D01*
X040420Y015813D02*
X046830Y015813D01*
X046830Y015972D02*
X040403Y015972D01*
X040306Y016130D02*
X046830Y016130D01*
X046830Y016289D02*
X039390Y016289D01*
X039390Y016447D02*
X046830Y016447D01*
X046830Y016606D02*
X039390Y016606D01*
X039390Y016764D02*
X046830Y016764D01*
X046830Y016923D02*
X039390Y016923D01*
X039390Y017081D02*
X046830Y017081D01*
X046830Y017240D02*
X039390Y017240D01*
X039390Y017398D02*
X046830Y017398D01*
X046830Y017557D02*
X039390Y017557D01*
X039390Y017715D02*
X046830Y017715D01*
X046830Y017874D02*
X039390Y017874D01*
X039390Y018032D02*
X046830Y018032D01*
X046830Y018191D02*
X039390Y018191D01*
X039390Y018349D02*
X046830Y018349D01*
X046830Y018508D02*
X039390Y018508D01*
X039390Y018666D02*
X046830Y018666D01*
X046830Y018825D02*
X039390Y018825D01*
X039390Y018983D02*
X046830Y018983D01*
X046830Y019142D02*
X039390Y019142D01*
X039390Y019300D02*
X046830Y019300D01*
X046830Y019459D02*
X039390Y019459D01*
X039390Y019617D02*
X046830Y019617D01*
X046830Y019776D02*
X039390Y019776D01*
X039390Y019934D02*
X046830Y019934D01*
X046830Y020093D02*
X039390Y020093D01*
X039390Y020251D02*
X046830Y020251D01*
X046830Y020410D02*
X039390Y020410D01*
X039390Y020568D02*
X046830Y020568D01*
X046830Y020727D02*
X039390Y020727D01*
X039390Y020885D02*
X046830Y020885D01*
X046830Y021044D02*
X039390Y021044D01*
X039390Y021202D02*
X046830Y021202D01*
X046830Y021361D02*
X039390Y021361D01*
X039390Y021519D02*
X046830Y021519D01*
X046830Y021678D02*
X039390Y021678D01*
X039390Y021836D02*
X046830Y021836D01*
X046830Y021995D02*
X039390Y021995D01*
X039390Y022153D02*
X046830Y022153D01*
X046830Y022312D02*
X039390Y022312D01*
X039390Y022470D02*
X046830Y022470D01*
X046830Y022629D02*
X039390Y022629D01*
X039390Y022787D02*
X046830Y022787D01*
X046830Y022946D02*
X039390Y022946D01*
X039390Y023104D02*
X046830Y023104D01*
X046830Y023263D02*
X039390Y023263D01*
X039390Y023421D02*
X046830Y023421D01*
X046830Y023580D02*
X039390Y023580D01*
X039390Y023738D02*
X046830Y023738D01*
X046830Y023897D02*
X039390Y023897D01*
X039451Y024055D02*
X046830Y024055D01*
X046830Y024214D02*
X039545Y024214D01*
X039560Y024372D02*
X046830Y024372D01*
X046830Y024531D02*
X039510Y024531D01*
X039338Y024689D02*
X046830Y024689D01*
X046830Y024848D02*
X004537Y024848D01*
X004537Y024835D02*
X004275Y024573D01*
X003905Y024573D01*
X003643Y024835D01*
X003643Y025205D01*
X003905Y025467D01*
X004275Y025467D01*
X004537Y025205D01*
X004537Y024835D01*
X004537Y025006D02*
X046830Y025006D01*
X046830Y025165D02*
X004537Y025165D01*
X004419Y025323D02*
X046830Y025323D01*
X046830Y025482D02*
X000458Y025482D01*
X000458Y025640D02*
X002838Y025640D01*
X002905Y025573D02*
X003275Y025573D01*
X003537Y025835D01*
X003537Y026205D01*
X003275Y026467D01*
X002905Y026467D01*
X002643Y026205D01*
X002643Y025835D01*
X002905Y025573D01*
X002905Y025467D02*
X002643Y025205D01*
X002643Y024835D01*
X002905Y024573D01*
X003275Y024573D01*
X003537Y024835D01*
X003537Y025205D01*
X003275Y025467D01*
X002905Y025467D01*
X002761Y025323D02*
X000458Y025323D01*
X000458Y025165D02*
X002643Y025165D01*
X002643Y025006D02*
X000458Y025006D01*
X000458Y024848D02*
X002643Y024848D01*
X002789Y024689D02*
X000458Y024689D01*
X000458Y024531D02*
X038810Y024531D01*
X038982Y024689D02*
X004391Y024689D01*
X003789Y024689D02*
X003391Y024689D01*
X003537Y024848D02*
X003643Y024848D01*
X003643Y025006D02*
X003537Y025006D01*
X003537Y025165D02*
X003643Y025165D01*
X003761Y025323D02*
X003419Y025323D01*
X003342Y025640D02*
X003838Y025640D01*
X003905Y025573D02*
X004275Y025573D01*
X004537Y025835D01*
X004537Y026205D01*
X004275Y026467D01*
X003905Y026467D01*
X003643Y026205D01*
X003643Y025835D01*
X003905Y025573D01*
X003680Y025799D02*
X003500Y025799D01*
X003537Y025957D02*
X003643Y025957D01*
X003643Y026116D02*
X003537Y026116D01*
X003468Y026274D02*
X003712Y026274D01*
X003871Y026433D02*
X003309Y026433D01*
X003275Y026573D02*
X003537Y026835D01*
X003537Y027205D01*
X003275Y027467D01*
X002905Y027467D01*
X002643Y027205D01*
X002643Y026835D01*
X002905Y026573D01*
X003275Y026573D01*
X003293Y026591D02*
X003887Y026591D01*
X003905Y026573D02*
X004275Y026573D01*
X004537Y026835D01*
X004537Y027205D01*
X004275Y027467D01*
X003905Y027467D01*
X003643Y027205D01*
X003643Y026835D01*
X003905Y026573D01*
X003729Y026750D02*
X003451Y026750D01*
X003537Y026908D02*
X003643Y026908D01*
X003643Y027067D02*
X003537Y027067D01*
X003517Y027225D02*
X003663Y027225D01*
X003822Y027384D02*
X003358Y027384D01*
X003275Y027573D02*
X003537Y027835D01*
X003537Y028205D01*
X003275Y028467D01*
X002905Y028467D01*
X002643Y028205D01*
X002643Y027835D01*
X002905Y027573D01*
X003275Y027573D01*
X003402Y027701D02*
X003778Y027701D01*
X003905Y027573D02*
X003643Y027835D01*
X003643Y028205D01*
X003905Y028467D01*
X004275Y028467D01*
X004537Y028205D01*
X004537Y027835D01*
X004275Y027573D01*
X003905Y027573D01*
X003643Y027859D02*
X003537Y027859D01*
X003537Y028018D02*
X003643Y028018D01*
X003643Y028176D02*
X003537Y028176D01*
X003407Y028335D02*
X003773Y028335D01*
X003905Y028573D02*
X004275Y028573D01*
X004537Y028835D01*
X004537Y029205D01*
X004275Y029467D01*
X003905Y029467D01*
X003643Y029205D01*
X003643Y028835D01*
X003905Y028573D01*
X003827Y028652D02*
X003353Y028652D01*
X003275Y028573D02*
X003537Y028835D01*
X003537Y029205D01*
X003275Y029467D01*
X002905Y029467D01*
X002643Y029205D01*
X002643Y028835D01*
X002905Y028573D01*
X003275Y028573D01*
X003512Y028810D02*
X003668Y028810D01*
X003643Y028969D02*
X003537Y028969D01*
X003537Y029127D02*
X003643Y029127D01*
X003724Y029286D02*
X003456Y029286D01*
X003298Y029444D02*
X003882Y029444D01*
X004298Y029444D02*
X005502Y029444D01*
X005450Y029286D02*
X004456Y029286D01*
X004537Y029127D02*
X005464Y029127D01*
X005556Y028969D02*
X004537Y028969D01*
X004512Y028810D02*
X046830Y028810D01*
X046830Y028652D02*
X004353Y028652D01*
X004407Y028335D02*
X046830Y028335D01*
X046830Y028493D02*
X000459Y028493D01*
X000459Y028335D02*
X002773Y028335D01*
X002643Y028176D02*
X000459Y028176D01*
X000459Y028018D02*
X002643Y028018D01*
X002643Y027859D02*
X000459Y027859D01*
X000459Y027701D02*
X002778Y027701D01*
X002822Y027384D02*
X000459Y027384D01*
X000459Y027542D02*
X046830Y027542D01*
X046830Y027384D02*
X004358Y027384D01*
X004517Y027225D02*
X046830Y027225D01*
X046830Y027067D02*
X004537Y027067D01*
X004537Y026908D02*
X046830Y026908D01*
X046830Y026750D02*
X004451Y026750D01*
X004293Y026591D02*
X046830Y026591D01*
X046830Y026433D02*
X004309Y026433D01*
X004468Y026274D02*
X046830Y026274D01*
X046830Y026116D02*
X004537Y026116D01*
X004537Y025957D02*
X046830Y025957D01*
X046830Y025799D02*
X004500Y025799D01*
X004342Y025640D02*
X046830Y025640D01*
X048620Y025640D02*
X052848Y025640D01*
X052935Y025727D02*
X052673Y025465D01*
X052673Y025095D01*
X052935Y024833D01*
X053305Y024833D01*
X053567Y025095D01*
X053567Y025465D01*
X053305Y025727D01*
X052935Y025727D01*
X052935Y025833D02*
X053305Y025833D01*
X053567Y026095D01*
X053567Y026465D01*
X053305Y026727D01*
X052935Y026727D01*
X052673Y026465D01*
X052673Y026095D01*
X052935Y025833D01*
X052811Y025957D02*
X048620Y025957D01*
X048620Y025799D02*
X058512Y025799D01*
X058512Y025957D02*
X054429Y025957D01*
X054305Y025833D02*
X054567Y026095D01*
X054567Y026465D01*
X054305Y026727D01*
X053935Y026727D01*
X053673Y026465D01*
X053673Y026095D01*
X053935Y025833D01*
X054305Y025833D01*
X054305Y025727D02*
X053935Y025727D01*
X053673Y025465D01*
X053673Y025095D01*
X053935Y024833D01*
X054305Y024833D01*
X054567Y025095D01*
X054567Y025465D01*
X054305Y025727D01*
X054392Y025640D02*
X058512Y025640D01*
X058512Y025482D02*
X054550Y025482D01*
X054567Y025323D02*
X058512Y025323D01*
X058512Y025165D02*
X054567Y025165D01*
X054478Y025006D02*
X058512Y025006D01*
X058512Y024848D02*
X054319Y024848D01*
X054305Y024727D02*
X053935Y024727D01*
X053673Y024465D01*
X053673Y024095D01*
X053935Y023833D01*
X054305Y023833D01*
X054567Y024095D01*
X054567Y024465D01*
X054305Y024727D01*
X054343Y024689D02*
X058512Y024689D01*
X058512Y024531D02*
X054501Y024531D01*
X054567Y024372D02*
X058512Y024372D01*
X058512Y024214D02*
X054567Y024214D01*
X054527Y024055D02*
X058512Y024055D01*
X058512Y023897D02*
X054368Y023897D01*
X054305Y023727D02*
X053935Y023727D01*
X053673Y023465D01*
X053673Y023095D01*
X053935Y022833D01*
X054305Y022833D01*
X054567Y023095D01*
X054567Y023465D01*
X054305Y023727D01*
X054452Y023580D02*
X058512Y023580D01*
X058512Y023738D02*
X048620Y023738D01*
X048620Y023580D02*
X052788Y023580D01*
X052673Y023465D02*
X052935Y023727D01*
X053305Y023727D01*
X053567Y023465D01*
X053567Y023095D01*
X053305Y022833D01*
X052935Y022833D01*
X052673Y023095D01*
X052673Y023465D01*
X052673Y023421D02*
X048620Y023421D01*
X048620Y023263D02*
X052673Y023263D01*
X052673Y023104D02*
X048620Y023104D01*
X048620Y022946D02*
X052823Y022946D01*
X053417Y022946D02*
X053823Y022946D01*
X053673Y023104D02*
X053567Y023104D01*
X053567Y023263D02*
X053673Y023263D01*
X053673Y023421D02*
X053567Y023421D01*
X053452Y023580D02*
X053788Y023580D01*
X053872Y023897D02*
X053368Y023897D01*
X053305Y023833D02*
X053567Y024095D01*
X053567Y024465D01*
X053305Y024727D01*
X052935Y024727D01*
X052673Y024465D01*
X052673Y024095D01*
X052935Y023833D01*
X053305Y023833D01*
X053527Y024055D02*
X053713Y024055D01*
X053673Y024214D02*
X053567Y024214D01*
X053567Y024372D02*
X053673Y024372D01*
X053739Y024531D02*
X053501Y024531D01*
X053343Y024689D02*
X053897Y024689D01*
X053921Y024848D02*
X053319Y024848D01*
X053478Y025006D02*
X053762Y025006D01*
X053673Y025165D02*
X053567Y025165D01*
X053567Y025323D02*
X053673Y025323D01*
X053690Y025482D02*
X053550Y025482D01*
X053392Y025640D02*
X053848Y025640D01*
X053811Y025957D02*
X053429Y025957D01*
X053567Y026116D02*
X053673Y026116D01*
X053673Y026274D02*
X053567Y026274D01*
X053567Y026433D02*
X053673Y026433D01*
X053799Y026591D02*
X053441Y026591D01*
X053305Y026833D02*
X053567Y027095D01*
X053567Y027465D01*
X053305Y027727D01*
X052935Y027727D01*
X052673Y027465D01*
X052673Y027095D01*
X052935Y026833D01*
X053305Y026833D01*
X053380Y026908D02*
X053860Y026908D01*
X053935Y026833D02*
X054305Y026833D01*
X054567Y027095D01*
X054567Y027465D01*
X054305Y027727D01*
X053935Y027727D01*
X053673Y027465D01*
X053673Y027095D01*
X053935Y026833D01*
X053702Y027067D02*
X053538Y027067D01*
X053567Y027225D02*
X053673Y027225D01*
X053673Y027384D02*
X053567Y027384D01*
X053490Y027542D02*
X053750Y027542D01*
X053909Y027701D02*
X053331Y027701D01*
X052909Y027701D02*
X048620Y027701D01*
X048620Y027859D02*
X058512Y027859D01*
X058512Y027701D02*
X054331Y027701D01*
X054490Y027542D02*
X058512Y027542D01*
X058512Y027384D02*
X054567Y027384D01*
X054567Y027225D02*
X058512Y027225D01*
X058512Y027067D02*
X054538Y027067D01*
X054380Y026908D02*
X058512Y026908D01*
X058512Y026750D02*
X048620Y026750D01*
X048620Y026908D02*
X052860Y026908D01*
X052702Y027067D02*
X048620Y027067D01*
X048620Y027225D02*
X052673Y027225D01*
X052673Y027384D02*
X048620Y027384D01*
X048620Y027542D02*
X052750Y027542D01*
X052799Y026591D02*
X048620Y026591D01*
X048620Y026433D02*
X052673Y026433D01*
X052673Y026274D02*
X048620Y026274D01*
X048620Y026116D02*
X052673Y026116D01*
X052690Y025482D02*
X048620Y025482D01*
X048620Y025323D02*
X052673Y025323D01*
X052673Y025165D02*
X048620Y025165D01*
X048620Y025006D02*
X052762Y025006D01*
X052921Y024848D02*
X048620Y024848D01*
X048620Y024689D02*
X052897Y024689D01*
X052739Y024531D02*
X048620Y024531D01*
X048620Y024372D02*
X052673Y024372D01*
X052673Y024214D02*
X048620Y024214D01*
X048620Y024055D02*
X052713Y024055D01*
X052872Y023897D02*
X048620Y023897D01*
X048620Y022787D02*
X058512Y022787D01*
X058512Y022629D02*
X048620Y022629D01*
X048620Y022470D02*
X058512Y022470D01*
X058512Y022312D02*
X048620Y022312D01*
X048620Y022153D02*
X058512Y022153D01*
X058512Y021995D02*
X048620Y021995D01*
X048620Y021836D02*
X058512Y021836D01*
X058512Y021678D02*
X048620Y021678D01*
X048620Y021519D02*
X058512Y021519D01*
X058512Y021361D02*
X048620Y021361D01*
X048620Y021202D02*
X058512Y021202D01*
X058512Y021044D02*
X048620Y021044D01*
X048620Y020885D02*
X058512Y020885D01*
X058512Y020727D02*
X048620Y020727D01*
X048620Y020568D02*
X058512Y020568D01*
X058512Y020410D02*
X048620Y020410D01*
X048620Y020251D02*
X058512Y020251D01*
X058512Y020093D02*
X048620Y020093D01*
X048620Y019934D02*
X058512Y019934D01*
X058512Y019776D02*
X048620Y019776D01*
X048620Y019617D02*
X058512Y019617D01*
X058512Y019459D02*
X048620Y019459D01*
X048620Y019300D02*
X058512Y019300D01*
X058512Y019142D02*
X048620Y019142D01*
X048620Y018983D02*
X058512Y018983D01*
X058512Y018825D02*
X048620Y018825D01*
X048620Y018666D02*
X058512Y018666D01*
X058512Y018508D02*
X048620Y018508D01*
X048620Y018349D02*
X058512Y018349D01*
X058512Y018191D02*
X054511Y018191D01*
X054637Y018065D02*
X054375Y018327D01*
X054005Y018327D01*
X053743Y018065D01*
X053743Y017695D01*
X054005Y017433D01*
X054375Y017433D01*
X054637Y017695D01*
X054637Y018065D01*
X054637Y018032D02*
X058512Y018032D01*
X058512Y017874D02*
X054637Y017874D01*
X054637Y017715D02*
X058512Y017715D01*
X058512Y017557D02*
X054498Y017557D01*
X054375Y017327D02*
X054005Y017327D01*
X053743Y017065D01*
X053743Y016695D01*
X054005Y016433D01*
X054375Y016433D01*
X054637Y016695D01*
X054637Y017065D01*
X054375Y017327D01*
X054462Y017240D02*
X058512Y017240D01*
X058512Y017398D02*
X048620Y017398D01*
X048620Y017240D02*
X052918Y017240D01*
X053005Y017327D02*
X052743Y017065D01*
X052743Y016695D01*
X053005Y016433D01*
X053375Y016433D01*
X053637Y016695D01*
X053637Y017065D01*
X053375Y017327D01*
X053005Y017327D01*
X053005Y017433D02*
X052743Y017695D01*
X052743Y018065D01*
X053005Y018327D01*
X053375Y018327D01*
X053637Y018065D01*
X053637Y017695D01*
X053375Y017433D01*
X053005Y017433D01*
X052882Y017557D02*
X048620Y017557D01*
X048620Y017715D02*
X052743Y017715D01*
X052743Y017874D02*
X048620Y017874D01*
X048620Y018032D02*
X052743Y018032D01*
X052869Y018191D02*
X048620Y018191D01*
X048620Y017081D02*
X052759Y017081D01*
X052743Y016923D02*
X048620Y016923D01*
X048620Y016764D02*
X052743Y016764D01*
X052833Y016606D02*
X048620Y016606D01*
X048620Y016447D02*
X052991Y016447D01*
X053005Y016327D02*
X052743Y016065D01*
X052743Y015695D01*
X053005Y015433D01*
X053375Y015433D01*
X053637Y015695D01*
X053637Y016065D01*
X053375Y016327D01*
X053005Y016327D01*
X052967Y016289D02*
X048620Y016289D01*
X048620Y016130D02*
X052808Y016130D01*
X052743Y015972D02*
X048620Y015972D01*
X048620Y015813D02*
X052743Y015813D01*
X052784Y015655D02*
X048620Y015655D01*
X048620Y015496D02*
X052942Y015496D01*
X052992Y015357D02*
X052713Y015078D01*
X052713Y014898D01*
X053172Y014898D01*
X053172Y014862D01*
X048620Y014862D01*
X048620Y014704D02*
X052713Y014704D01*
X052713Y014682D02*
X052992Y014403D01*
X053172Y014403D01*
X053172Y014862D01*
X052713Y014862D01*
X052713Y014682D01*
X052851Y014545D02*
X048620Y014545D01*
X048620Y014387D02*
X058512Y014387D01*
X058512Y014545D02*
X054487Y014545D01*
X054375Y014433D02*
X054637Y014695D01*
X054637Y015065D01*
X054375Y015327D01*
X054005Y015327D01*
X053743Y015065D01*
X053743Y014695D01*
X054005Y014433D01*
X054375Y014433D01*
X054388Y014357D02*
X054208Y014357D01*
X054208Y013898D01*
X054172Y013898D01*
X054172Y013862D01*
X053713Y013862D01*
X053713Y013682D01*
X053992Y013403D01*
X054172Y013403D01*
X054172Y013862D01*
X054208Y013862D01*
X054208Y013898D01*
X054667Y013898D01*
X054667Y014078D01*
X054388Y014357D01*
X054516Y014228D02*
X058512Y014228D01*
X058512Y014070D02*
X054667Y014070D01*
X054667Y013911D02*
X058512Y013911D01*
X058512Y013753D02*
X054667Y013753D01*
X054667Y013682D02*
X054667Y013862D01*
X054208Y013862D01*
X054208Y013403D01*
X054388Y013403D01*
X054667Y013682D01*
X054578Y013594D02*
X058512Y013594D01*
X058512Y013436D02*
X054420Y013436D01*
X054208Y013436D02*
X054172Y013436D01*
X054172Y013594D02*
X054208Y013594D01*
X054208Y013753D02*
X054172Y013753D01*
X054172Y013898D02*
X053713Y013898D01*
X053713Y014078D01*
X053992Y014357D01*
X054172Y014357D01*
X054172Y013898D01*
X054172Y013911D02*
X054208Y013911D01*
X054208Y014070D02*
X054172Y014070D01*
X054172Y014228D02*
X054208Y014228D01*
X053864Y014228D02*
X053516Y014228D01*
X053388Y014357D02*
X053208Y014357D01*
X053208Y013898D01*
X053172Y013898D01*
X053172Y013862D01*
X052713Y013862D01*
X052713Y013682D01*
X052992Y013403D01*
X053172Y013403D01*
X053172Y013862D01*
X053208Y013862D01*
X053208Y013898D01*
X053667Y013898D01*
X053667Y014078D01*
X053388Y014357D01*
X053388Y014403D02*
X053667Y014682D01*
X053667Y014862D01*
X053208Y014862D01*
X053743Y014862D01*
X053667Y014898D02*
X053667Y015078D01*
X053388Y015357D01*
X053208Y015357D01*
X053208Y014898D01*
X053172Y014898D01*
X053172Y015357D01*
X052992Y015357D01*
X052973Y015338D02*
X048620Y015338D01*
X048620Y015179D02*
X052815Y015179D01*
X052713Y015021D02*
X048620Y015021D01*
X048620Y014228D02*
X052864Y014228D01*
X052992Y014357D02*
X052713Y014078D01*
X052713Y013898D01*
X053172Y013898D01*
X053172Y014357D01*
X052992Y014357D01*
X053172Y014228D02*
X053208Y014228D01*
X053208Y014070D02*
X053172Y014070D01*
X053172Y013911D02*
X053208Y013911D01*
X053208Y013862D02*
X053667Y013862D01*
X053667Y013682D01*
X053388Y013403D01*
X053208Y013403D01*
X053208Y013862D01*
X053208Y013753D02*
X053172Y013753D01*
X053172Y013594D02*
X053208Y013594D01*
X053208Y013436D02*
X053172Y013436D01*
X052960Y013436D02*
X048620Y013436D01*
X048620Y013594D02*
X052802Y013594D01*
X052713Y013753D02*
X048620Y013753D01*
X048620Y013911D02*
X052713Y013911D01*
X052713Y014070D02*
X048620Y014070D01*
X048620Y013277D02*
X058512Y013277D01*
X058512Y013119D02*
X048620Y013119D01*
X048620Y012960D02*
X058512Y012960D01*
X058512Y012802D02*
X048620Y012802D01*
X048620Y012643D02*
X058512Y012643D01*
X058512Y012485D02*
X048620Y012485D01*
X048620Y012326D02*
X058512Y012326D01*
X058512Y012168D02*
X048620Y012168D01*
X048620Y012009D02*
X058512Y012009D01*
X058512Y011851D02*
X048620Y011851D01*
X048620Y011692D02*
X058512Y011692D01*
X058512Y011534D02*
X048620Y011534D01*
X048620Y011375D02*
X058512Y011375D01*
X058512Y011217D02*
X048620Y011217D01*
X048620Y011058D02*
X058512Y011058D01*
X058512Y010900D02*
X048620Y010900D01*
X048620Y010741D02*
X058512Y010741D01*
X058512Y010583D02*
X048620Y010583D01*
X048620Y010424D02*
X058512Y010424D01*
X058512Y010266D02*
X048620Y010266D01*
X048620Y010107D02*
X058512Y010107D01*
X058512Y009949D02*
X048620Y009949D01*
X048620Y009790D02*
X058512Y009790D01*
X058512Y009632D02*
X048620Y009632D01*
X048620Y009473D02*
X058512Y009473D01*
X058512Y009315D02*
X048620Y009315D01*
X048620Y009156D02*
X058512Y009156D01*
X058512Y008998D02*
X048620Y008998D01*
X048620Y008839D02*
X058512Y008839D01*
X058512Y008681D02*
X054401Y008681D01*
X054560Y008522D02*
X058512Y008522D01*
X058512Y008364D02*
X054627Y008364D01*
X054627Y008205D02*
X058512Y008205D01*
X058512Y008047D02*
X054588Y008047D01*
X053930Y007888D02*
X053430Y007888D01*
X053365Y007823D02*
X053627Y008085D01*
X053627Y008455D01*
X053365Y008717D01*
X052995Y008717D01*
X052733Y008455D01*
X052733Y008085D01*
X052995Y007823D01*
X053365Y007823D01*
X053511Y007571D02*
X053849Y007571D01*
X053733Y007413D02*
X053627Y007413D01*
X053627Y007254D02*
X053733Y007254D01*
X053733Y007096D02*
X053627Y007096D01*
X053479Y006937D02*
X053881Y006937D01*
X053995Y006717D02*
X053733Y006455D01*
X053733Y006085D01*
X053995Y005823D01*
X054365Y005823D01*
X054627Y006085D01*
X054627Y006455D01*
X054365Y006717D01*
X053995Y006717D01*
X053898Y006620D02*
X053462Y006620D01*
X053620Y006462D02*
X053740Y006462D01*
X053733Y006303D02*
X053627Y006303D01*
X053627Y006145D02*
X053733Y006145D01*
X053832Y005986D02*
X053528Y005986D01*
X053369Y005828D02*
X053991Y005828D01*
X053995Y005717D02*
X053733Y005455D01*
X053733Y005085D01*
X053995Y004823D01*
X054365Y004823D01*
X054627Y005085D01*
X054627Y005455D01*
X054365Y005717D01*
X053995Y005717D01*
X053947Y005669D02*
X053413Y005669D01*
X053571Y005511D02*
X053789Y005511D01*
X053733Y005352D02*
X053627Y005352D01*
X053627Y005194D02*
X053733Y005194D01*
X053783Y005035D02*
X053577Y005035D01*
X053418Y004877D02*
X053942Y004877D01*
X053995Y004717D02*
X053733Y004455D01*
X053733Y004085D01*
X053995Y003823D01*
X054365Y003823D01*
X054627Y004085D01*
X054627Y004455D01*
X054365Y004717D01*
X053995Y004717D01*
X053838Y004560D02*
X053522Y004560D01*
X053627Y004401D02*
X053733Y004401D01*
X053733Y004243D02*
X053627Y004243D01*
X053626Y004084D02*
X053734Y004084D01*
X053893Y003926D02*
X053467Y003926D01*
X054467Y003926D02*
X058512Y003926D01*
X058512Y004084D02*
X054626Y004084D01*
X054627Y004243D02*
X058512Y004243D01*
X058512Y004401D02*
X054627Y004401D01*
X054522Y004560D02*
X058512Y004560D01*
X058512Y004718D02*
X040190Y004718D01*
X039730Y004718D02*
X021777Y004718D01*
X021619Y004877D02*
X039730Y004877D01*
X039730Y005035D02*
X021460Y005035D01*
X021302Y005194D02*
X039730Y005194D01*
X039730Y005352D02*
X021143Y005352D01*
X020985Y005511D02*
X039730Y005511D01*
X039730Y005669D02*
X020826Y005669D01*
X020668Y005828D02*
X039730Y005828D01*
X039730Y005986D02*
X020509Y005986D01*
X020351Y006145D02*
X039730Y006145D01*
X039730Y006303D02*
X020192Y006303D01*
X020034Y006462D02*
X039730Y006462D01*
X039730Y006620D02*
X019875Y006620D01*
X019717Y006779D02*
X039730Y006779D01*
X039730Y006937D02*
X019558Y006937D01*
X019400Y007096D02*
X039730Y007096D01*
X039730Y007254D02*
X019241Y007254D01*
X019083Y007413D02*
X039730Y007413D01*
X039730Y007571D02*
X018924Y007571D01*
X018766Y007730D02*
X039730Y007730D01*
X039730Y007888D02*
X018607Y007888D01*
X018449Y008047D02*
X039730Y008047D01*
X039730Y008205D02*
X039000Y008205D01*
X038880Y008410D02*
X039220Y008750D01*
X039160Y008810D01*
X039160Y024330D01*
X046830Y027701D02*
X004402Y027701D01*
X004537Y027859D02*
X046830Y027859D01*
X046830Y028018D02*
X004537Y028018D01*
X004537Y028176D02*
X046830Y028176D01*
X046830Y028969D02*
X006144Y028969D01*
X006236Y029127D02*
X046830Y029127D01*
X046830Y029286D02*
X006250Y029286D01*
X006422Y029444D02*
X046830Y029444D01*
X046802Y029603D02*
X006599Y029603D01*
X006776Y029761D02*
X046644Y029761D01*
X046485Y029920D02*
X006953Y029920D01*
X007130Y030078D02*
X046327Y030078D01*
X046168Y030237D02*
X007307Y030237D01*
X007390Y030620D02*
X005850Y029240D01*
X005680Y029603D02*
X000459Y029603D01*
X000459Y029761D02*
X005788Y029761D01*
X005952Y029761D02*
X006087Y029761D01*
X005545Y029920D02*
X000459Y029920D01*
X000459Y030078D02*
X005471Y030078D01*
X005470Y030237D02*
X000459Y030237D01*
X000460Y030395D02*
X005539Y030395D01*
X005775Y030554D02*
X000460Y030554D01*
X000460Y030712D02*
X005964Y030712D01*
X006071Y030871D02*
X000460Y030871D01*
X000460Y031029D02*
X006178Y031029D01*
X006284Y031188D02*
X000460Y031188D01*
X000460Y031346D02*
X006381Y031346D01*
X007390Y030620D02*
X046110Y030620D01*
X047060Y029670D01*
X047060Y007330D01*
X048620Y007888D02*
X052930Y007888D01*
X052772Y008047D02*
X048620Y008047D01*
X048620Y008205D02*
X052733Y008205D01*
X052733Y008364D02*
X048620Y008364D01*
X048620Y008522D02*
X052800Y008522D01*
X052959Y008681D02*
X048620Y008681D01*
X053401Y008681D02*
X053959Y008681D01*
X053800Y008522D02*
X053560Y008522D01*
X053627Y008364D02*
X053733Y008364D01*
X053733Y008205D02*
X053627Y008205D01*
X053588Y008047D02*
X053772Y008047D01*
X054462Y006620D02*
X058512Y006620D01*
X058512Y006462D02*
X054620Y006462D01*
X054627Y006303D02*
X058512Y006303D01*
X058512Y006145D02*
X054627Y006145D01*
X054528Y005986D02*
X058512Y005986D01*
X058512Y005828D02*
X054369Y005828D01*
X054413Y005669D02*
X058512Y005669D01*
X058512Y005511D02*
X054571Y005511D01*
X054627Y005352D02*
X058512Y005352D01*
X058512Y005194D02*
X054627Y005194D01*
X054577Y005035D02*
X058512Y005035D01*
X058512Y004877D02*
X054418Y004877D01*
X058512Y001231D02*
X000450Y001231D01*
X000450Y001073D02*
X058512Y001073D01*
X058512Y000914D02*
X000450Y000914D01*
X000450Y000756D02*
X058512Y000756D01*
X058512Y000679D02*
X000450Y000571D01*
X000460Y031620D01*
X058512Y031650D01*
X058512Y000679D01*
X039960Y003380D02*
X039960Y015790D01*
X040020Y015850D01*
X039734Y016130D02*
X039390Y016130D01*
X039390Y015972D02*
X039637Y015972D01*
X039620Y015813D02*
X039390Y015813D01*
X039390Y015655D02*
X039668Y015655D01*
X039730Y015496D02*
X039390Y015496D01*
X039390Y015338D02*
X039730Y015338D01*
X039730Y015179D02*
X039390Y015179D01*
X039390Y015021D02*
X039730Y015021D01*
X039730Y014862D02*
X039390Y014862D01*
X039390Y014704D02*
X039730Y014704D01*
X039730Y014545D02*
X039390Y014545D01*
X039390Y014387D02*
X039730Y014387D01*
X039730Y014228D02*
X039390Y014228D01*
X039390Y014070D02*
X039730Y014070D01*
X039730Y013911D02*
X039390Y013911D01*
X039390Y013753D02*
X039730Y013753D01*
X039730Y013594D02*
X039390Y013594D01*
X039390Y013436D02*
X039730Y013436D01*
X039730Y013277D02*
X039390Y013277D01*
X039390Y013119D02*
X039730Y013119D01*
X039730Y012960D02*
X039390Y012960D01*
X039390Y012802D02*
X039730Y012802D01*
X039730Y012643D02*
X039390Y012643D01*
X039390Y012485D02*
X039730Y012485D01*
X039730Y012326D02*
X039390Y012326D01*
X039390Y012168D02*
X039730Y012168D01*
X039730Y012009D02*
X039390Y012009D01*
X039390Y011851D02*
X039730Y011851D01*
X039730Y011692D02*
X039390Y011692D01*
X039390Y011534D02*
X039730Y011534D01*
X039730Y011375D02*
X039390Y011375D01*
X039390Y011217D02*
X039730Y011217D01*
X039730Y011058D02*
X039390Y011058D01*
X039390Y010900D02*
X039730Y010900D01*
X039730Y010741D02*
X039390Y010741D01*
X039390Y010583D02*
X039730Y010583D01*
X039730Y010424D02*
X039390Y010424D01*
X039390Y010266D02*
X039730Y010266D01*
X039730Y010107D02*
X039390Y010107D01*
X039390Y009949D02*
X039730Y009949D01*
X039730Y009790D02*
X039390Y009790D01*
X039390Y009632D02*
X039730Y009632D01*
X039730Y009473D02*
X039390Y009473D01*
X039390Y009315D02*
X039730Y009315D01*
X039730Y009156D02*
X039390Y009156D01*
X039538Y008998D02*
X039730Y008998D01*
X039730Y008839D02*
X039616Y008839D01*
X039620Y008681D02*
X039730Y008681D01*
X039730Y008522D02*
X039558Y008522D01*
X039730Y008364D02*
X039332Y008364D01*
X038880Y008410D02*
X037350Y008410D01*
X035860Y009900D01*
X019670Y009900D01*
X019150Y010420D01*
X019150Y014540D01*
X019519Y014387D02*
X021952Y014387D01*
X021719Y014228D02*
X019404Y014228D01*
X019380Y014070D02*
X021486Y014070D01*
X021252Y013911D02*
X019380Y013911D01*
X019380Y013753D02*
X021019Y013753D01*
X020785Y013594D02*
X019380Y013594D01*
X019380Y013436D02*
X020552Y013436D01*
X020319Y013277D02*
X019380Y013277D01*
X019380Y013119D02*
X020085Y013119D01*
X019932Y013014D02*
X019870Y013040D01*
X019710Y013040D01*
X019563Y012979D01*
X019451Y012867D01*
X019390Y012720D01*
X019390Y012560D01*
X019451Y012413D01*
X019563Y012301D01*
X019710Y012240D01*
X019870Y012240D01*
X020017Y012301D01*
X020129Y012413D01*
X020190Y012560D01*
X020190Y012634D01*
X024691Y015690D01*
X038154Y015690D01*
X038263Y015581D01*
X038410Y015520D01*
X038570Y015520D01*
X038717Y015581D01*
X038829Y015693D01*
X038890Y015840D01*
X038890Y016000D01*
X038829Y016147D01*
X038717Y016259D01*
X038570Y016320D01*
X038410Y016320D01*
X038263Y016259D01*
X038154Y016150D01*
X024642Y016150D01*
X024570Y016164D01*
X024549Y016150D01*
X024525Y016150D01*
X024473Y016098D01*
X019932Y013014D01*
X019544Y012960D02*
X019380Y012960D01*
X019380Y012802D02*
X019424Y012802D01*
X019390Y012643D02*
X019380Y012643D01*
X019380Y012485D02*
X019421Y012485D01*
X019380Y012326D02*
X019538Y012326D01*
X019380Y012168D02*
X038930Y012168D01*
X038930Y012326D02*
X020042Y012326D01*
X020159Y012485D02*
X038930Y012485D01*
X038930Y012643D02*
X020204Y012643D01*
X020437Y012802D02*
X038930Y012802D01*
X038930Y012960D02*
X020671Y012960D01*
X020904Y013119D02*
X038930Y013119D01*
X038930Y013277D02*
X021137Y013277D01*
X021371Y013436D02*
X038930Y013436D01*
X038930Y013594D02*
X021604Y013594D01*
X021838Y013753D02*
X038930Y013753D01*
X038930Y013911D02*
X022071Y013911D01*
X022304Y014070D02*
X038930Y014070D01*
X038930Y014228D02*
X022538Y014228D01*
X022771Y014387D02*
X038930Y014387D01*
X038930Y014545D02*
X023005Y014545D01*
X023238Y014704D02*
X038930Y014704D01*
X038930Y014862D02*
X023471Y014862D01*
X023705Y015021D02*
X038930Y015021D01*
X038930Y015179D02*
X023938Y015179D01*
X024172Y015338D02*
X038930Y015338D01*
X038930Y015496D02*
X024405Y015496D01*
X024638Y015655D02*
X038190Y015655D01*
X038490Y015920D02*
X024620Y015920D01*
X019790Y012640D01*
X019380Y012009D02*
X038930Y012009D01*
X038930Y011851D02*
X019380Y011851D01*
X019380Y011692D02*
X038930Y011692D01*
X038930Y011534D02*
X019380Y011534D01*
X019380Y011375D02*
X038930Y011375D01*
X038930Y011217D02*
X019380Y011217D01*
X019380Y011058D02*
X038930Y011058D01*
X038930Y010900D02*
X019380Y010900D01*
X019380Y010741D02*
X038930Y010741D01*
X038930Y010583D02*
X019380Y010583D01*
X019471Y010424D02*
X038930Y010424D01*
X038930Y010266D02*
X019630Y010266D01*
X019296Y009949D02*
X016547Y009949D01*
X016388Y010107D02*
X019138Y010107D01*
X019055Y010190D02*
X019055Y010190D01*
X018979Y010266D02*
X016230Y010266D01*
X016071Y010424D02*
X018920Y010424D01*
X018920Y010583D02*
X015913Y010583D01*
X015754Y010741D02*
X018920Y010741D01*
X018920Y010900D02*
X015596Y010900D01*
X015437Y011058D02*
X018920Y011058D01*
X018920Y011217D02*
X015279Y011217D01*
X015120Y011375D02*
X018920Y011375D01*
X018920Y011534D02*
X014962Y011534D01*
X014803Y011692D02*
X018920Y011692D01*
X018920Y011851D02*
X014645Y011851D01*
X014486Y012009D02*
X018920Y012009D01*
X018920Y012168D02*
X014328Y012168D01*
X014169Y012326D02*
X018920Y012326D01*
X018920Y012485D02*
X014011Y012485D01*
X013852Y012643D02*
X018920Y012643D01*
X018920Y012802D02*
X013694Y012802D01*
X013535Y012960D02*
X018920Y012960D01*
X018920Y013119D02*
X013377Y013119D01*
X013218Y013277D02*
X018920Y013277D01*
X018920Y013436D02*
X013060Y013436D01*
X012901Y013594D02*
X018920Y013594D01*
X018920Y013753D02*
X012743Y013753D01*
X012584Y013911D02*
X018920Y013911D01*
X018920Y014070D02*
X012426Y014070D01*
X012267Y014228D02*
X018896Y014228D01*
X018781Y014387D02*
X012109Y014387D01*
X011950Y014545D02*
X018750Y014545D01*
X018785Y014704D02*
X011792Y014704D01*
X011633Y014862D02*
X018906Y014862D01*
X019394Y014862D02*
X022653Y014862D01*
X022886Y015021D02*
X011480Y015021D01*
X011476Y015179D02*
X023119Y015179D01*
X023353Y015338D02*
X011398Y015338D01*
X011080Y015090D02*
X022010Y004160D01*
X022010Y003180D01*
X022176Y002816D02*
X024129Y002816D01*
X024114Y002822D02*
X024313Y002740D01*
X024527Y002740D01*
X024726Y002822D01*
X024878Y002974D01*
X024960Y003173D01*
X024960Y004167D01*
X024878Y004366D01*
X024726Y004518D01*
X024527Y004600D01*
X024313Y004600D01*
X024114Y004518D01*
X023962Y004366D01*
X023880Y004167D01*
X023880Y003173D01*
X023962Y002974D01*
X024114Y002822D01*
X023962Y002975D02*
X022358Y002975D01*
X022410Y003133D02*
X023896Y003133D01*
X023880Y003292D02*
X022397Y003292D01*
X022306Y003450D02*
X023880Y003450D01*
X023880Y003609D02*
X022240Y003609D01*
X022240Y003767D02*
X023880Y003767D01*
X023880Y003926D02*
X022240Y003926D01*
X022240Y004084D02*
X023880Y004084D01*
X023911Y004243D02*
X022240Y004243D01*
X022094Y004401D02*
X023997Y004401D01*
X024215Y004560D02*
X021936Y004560D01*
X024625Y004560D02*
X026115Y004560D01*
X026091Y004548D02*
X026171Y004588D01*
X026257Y004616D01*
X026340Y004629D01*
X026340Y003720D01*
X026440Y003720D01*
X026960Y003720D01*
X026960Y004105D01*
X026946Y004193D01*
X026918Y004279D01*
X026878Y004359D01*
X026825Y004431D01*
X026761Y004495D01*
X026689Y004548D01*
X026609Y004588D01*
X026523Y004616D01*
X026440Y004629D01*
X026440Y003720D01*
X026440Y003620D01*
X026960Y003620D01*
X026960Y003235D01*
X026946Y003147D01*
X026918Y003061D01*
X026878Y002981D01*
X026825Y002909D01*
X026761Y002845D01*
X026689Y002792D01*
X026609Y002752D01*
X026523Y002724D01*
X026440Y002711D01*
X026440Y003620D01*
X026340Y003620D01*
X026340Y002711D01*
X026257Y002724D01*
X026171Y002752D01*
X026091Y002792D01*
X026019Y002845D01*
X025955Y002909D01*
X025902Y002981D01*
X025862Y003061D01*
X025834Y003147D01*
X025820Y003235D01*
X025820Y003620D01*
X026340Y003620D01*
X026340Y003720D01*
X025820Y003720D01*
X025820Y004105D01*
X025834Y004193D01*
X025862Y004279D01*
X025902Y004359D01*
X025955Y004431D01*
X026019Y004495D01*
X026091Y004548D01*
X025933Y004401D02*
X024843Y004401D01*
X024929Y004243D02*
X025850Y004243D01*
X025820Y004084D02*
X024960Y004084D01*
X024960Y003926D02*
X025820Y003926D01*
X025820Y003767D02*
X024960Y003767D01*
X024960Y003609D02*
X025820Y003609D01*
X025820Y003450D02*
X024960Y003450D01*
X024960Y003292D02*
X025820Y003292D01*
X025838Y003133D02*
X024944Y003133D01*
X024878Y002975D02*
X025907Y002975D01*
X026059Y002816D02*
X024711Y002816D01*
X026340Y002816D02*
X026440Y002816D01*
X026440Y002975D02*
X026340Y002975D01*
X026340Y003133D02*
X026440Y003133D01*
X026440Y003292D02*
X026340Y003292D01*
X026340Y003450D02*
X026440Y003450D01*
X026440Y003609D02*
X026340Y003609D01*
X026340Y003767D02*
X026440Y003767D01*
X026440Y003926D02*
X026340Y003926D01*
X026340Y004084D02*
X026440Y004084D01*
X026440Y004243D02*
X026340Y004243D01*
X026340Y004401D02*
X026440Y004401D01*
X026440Y004560D02*
X026340Y004560D01*
X026665Y004560D02*
X028155Y004560D01*
X027937Y004401D02*
X026847Y004401D01*
X026930Y004243D02*
X027851Y004243D01*
X027820Y004084D02*
X026960Y004084D01*
X026960Y003926D02*
X027820Y003926D01*
X027820Y003767D02*
X026960Y003767D01*
X026960Y003609D02*
X027820Y003609D01*
X027820Y003450D02*
X026960Y003450D01*
X026960Y003292D02*
X027820Y003292D01*
X027836Y003133D02*
X026942Y003133D01*
X026873Y002975D02*
X027902Y002975D01*
X028069Y002816D02*
X026721Y002816D01*
X028884Y003133D02*
X039641Y003133D01*
X039564Y003292D02*
X028900Y003292D01*
X028900Y003450D02*
X039560Y003450D01*
X039623Y003609D02*
X028900Y003609D01*
X028900Y003767D02*
X039730Y003767D01*
X039730Y003926D02*
X028900Y003926D01*
X028900Y004084D02*
X039730Y004084D01*
X039730Y004243D02*
X028869Y004243D01*
X028783Y004401D02*
X039730Y004401D01*
X039730Y004560D02*
X028565Y004560D01*
X036437Y008998D02*
X017498Y008998D01*
X017339Y009156D02*
X036279Y009156D01*
X036120Y009315D02*
X017181Y009315D01*
X017022Y009473D02*
X035962Y009473D01*
X035803Y009632D02*
X016864Y009632D01*
X016705Y009790D02*
X019455Y009790D01*
X017656Y008839D02*
X036596Y008839D01*
X036754Y008681D02*
X017815Y008681D01*
X017973Y008522D02*
X036913Y008522D01*
X037071Y008364D02*
X018132Y008364D01*
X018290Y008205D02*
X037230Y008205D01*
X037405Y008681D02*
X038820Y008681D01*
X038824Y008839D02*
X037246Y008839D01*
X037088Y008998D02*
X038902Y008998D01*
X038930Y009156D02*
X036929Y009156D01*
X036771Y009315D02*
X038930Y009315D01*
X038930Y009473D02*
X036612Y009473D01*
X036454Y009632D02*
X038930Y009632D01*
X038930Y009790D02*
X036295Y009790D01*
X036137Y009949D02*
X038930Y009949D01*
X038930Y010107D02*
X035978Y010107D01*
X038790Y015655D02*
X038930Y015655D01*
X038930Y015813D02*
X038879Y015813D01*
X038890Y015972D02*
X038930Y015972D01*
X038930Y016130D02*
X038836Y016130D01*
X038930Y016289D02*
X038646Y016289D01*
X038334Y016289D02*
X004280Y016289D01*
X004282Y016130D02*
X024505Y016130D01*
X024286Y015972D02*
X004440Y015972D01*
X004517Y015813D02*
X024053Y015813D01*
X023820Y015655D02*
X004517Y015655D01*
X004488Y015496D02*
X023586Y015496D01*
X022419Y014704D02*
X019515Y014704D01*
X019550Y014545D02*
X022186Y014545D01*
X024890Y019880D02*
X029370Y019880D01*
X032490Y016760D01*
X038930Y016764D02*
X004517Y016764D01*
X004517Y016606D02*
X038930Y016606D01*
X038930Y016447D02*
X004439Y016447D01*
X004489Y016923D02*
X038930Y016923D01*
X038930Y017081D02*
X004331Y017081D01*
X003799Y018349D02*
X003341Y018349D01*
X003499Y018508D02*
X003641Y018508D01*
X003623Y018666D02*
X003517Y018666D01*
X003517Y018825D02*
X003623Y018825D01*
X003711Y018983D02*
X003429Y018983D01*
X003270Y019142D02*
X003870Y019142D01*
X003885Y019263D02*
X004255Y019263D01*
X004517Y019525D01*
X004517Y019895D01*
X004255Y020157D01*
X003885Y020157D01*
X003623Y019895D01*
X003623Y019525D01*
X003885Y019263D01*
X003848Y019300D02*
X003292Y019300D01*
X003450Y019459D02*
X003690Y019459D01*
X003623Y019617D02*
X003517Y019617D01*
X003517Y019776D02*
X003623Y019776D01*
X003662Y019934D02*
X003478Y019934D01*
X003319Y020093D02*
X003821Y020093D01*
X004319Y020093D02*
X038930Y020093D01*
X038930Y019934D02*
X004478Y019934D01*
X004517Y019776D02*
X038930Y019776D01*
X038930Y019617D02*
X004517Y019617D01*
X004450Y019459D02*
X038930Y019459D01*
X038930Y019300D02*
X004292Y019300D01*
X004270Y019142D02*
X038930Y019142D01*
X038930Y018983D02*
X004429Y018983D01*
X004517Y018825D02*
X038930Y018825D01*
X038930Y018666D02*
X004517Y018666D01*
X004499Y018508D02*
X038930Y018508D01*
X053172Y015338D02*
X053208Y015338D01*
X053208Y015179D02*
X053172Y015179D01*
X053172Y015021D02*
X053208Y015021D01*
X053208Y014898D02*
X053667Y014898D01*
X053667Y015021D02*
X053743Y015021D01*
X053857Y015179D02*
X053565Y015179D01*
X053407Y015338D02*
X058512Y015338D01*
X058512Y015496D02*
X054438Y015496D01*
X054375Y015433D02*
X054637Y015695D01*
X054637Y016065D01*
X054375Y016327D01*
X054005Y016327D01*
X053743Y016065D01*
X053743Y015695D01*
X054005Y015433D01*
X054375Y015433D01*
X054523Y015179D02*
X058512Y015179D01*
X058512Y015021D02*
X054637Y015021D01*
X054637Y014862D02*
X058512Y014862D01*
X058512Y014704D02*
X054637Y014704D01*
X053893Y014545D02*
X053529Y014545D01*
X053388Y014403D02*
X053208Y014403D01*
X053208Y014862D01*
X053208Y014898D01*
X053208Y014862D02*
X053172Y014862D01*
X053172Y014704D02*
X053208Y014704D01*
X053208Y014545D02*
X053172Y014545D01*
X053667Y014704D02*
X053743Y014704D01*
X053713Y014070D02*
X053667Y014070D01*
X053667Y013911D02*
X053713Y013911D01*
X053713Y013753D02*
X053667Y013753D01*
X053578Y013594D02*
X053802Y013594D01*
X053960Y013436D02*
X053420Y013436D01*
X053438Y015496D02*
X053942Y015496D01*
X053784Y015655D02*
X053596Y015655D01*
X053637Y015813D02*
X053743Y015813D01*
X053743Y015972D02*
X053637Y015972D01*
X053572Y016130D02*
X053808Y016130D01*
X053967Y016289D02*
X053413Y016289D01*
X053389Y016447D02*
X053991Y016447D01*
X053833Y016606D02*
X053547Y016606D01*
X053637Y016764D02*
X053743Y016764D01*
X053743Y016923D02*
X053637Y016923D01*
X053621Y017081D02*
X053759Y017081D01*
X053918Y017240D02*
X053462Y017240D01*
X053498Y017557D02*
X053882Y017557D01*
X053743Y017715D02*
X053637Y017715D01*
X053637Y017874D02*
X053743Y017874D01*
X053743Y018032D02*
X053637Y018032D01*
X053511Y018191D02*
X053869Y018191D01*
X054621Y017081D02*
X058512Y017081D01*
X058512Y016923D02*
X054637Y016923D01*
X054637Y016764D02*
X058512Y016764D01*
X058512Y016606D02*
X054547Y016606D01*
X054389Y016447D02*
X058512Y016447D01*
X058512Y016289D02*
X054413Y016289D01*
X054572Y016130D02*
X058512Y016130D01*
X058512Y015972D02*
X054637Y015972D01*
X054637Y015813D02*
X058512Y015813D01*
X058512Y015655D02*
X054596Y015655D01*
X054417Y022946D02*
X058512Y022946D01*
X058512Y023104D02*
X054567Y023104D01*
X054567Y023263D02*
X058512Y023263D01*
X058512Y023421D02*
X054567Y023421D01*
X054567Y026116D02*
X058512Y026116D01*
X058512Y026274D02*
X054567Y026274D01*
X054567Y026433D02*
X058512Y026433D01*
X058512Y026591D02*
X054441Y026591D01*
X058512Y028018D02*
X048620Y028018D01*
X048620Y028176D02*
X058512Y028176D01*
X058512Y028335D02*
X048620Y028335D01*
X048620Y028493D02*
X058512Y028493D01*
X058512Y028652D02*
X048620Y028652D01*
X048620Y028810D02*
X058512Y028810D01*
X058512Y028969D02*
X048620Y028969D01*
X048620Y029127D02*
X058512Y029127D01*
X058512Y029286D02*
X048620Y029286D01*
X048531Y029444D02*
X058512Y029444D01*
X058512Y029603D02*
X048373Y029603D01*
X048214Y029761D02*
X058512Y029761D01*
X058512Y029920D02*
X048056Y029920D01*
X047897Y030078D02*
X058512Y030078D01*
X058512Y030237D02*
X047739Y030237D01*
X047580Y030395D02*
X058512Y030395D01*
X058512Y030554D02*
X047422Y030554D01*
X047263Y030712D02*
X058512Y030712D01*
X058512Y030871D02*
X047105Y030871D01*
X046946Y031029D02*
X058512Y031029D01*
X058512Y031188D02*
X046788Y031188D01*
X046629Y031346D02*
X058512Y031346D01*
X058512Y031505D02*
X000460Y031505D01*
X000459Y029444D02*
X002882Y029444D01*
X002724Y029286D02*
X000459Y029286D01*
X000459Y029127D02*
X002643Y029127D01*
X002643Y028969D02*
X000459Y028969D01*
X000459Y028810D02*
X002668Y028810D01*
X002827Y028652D02*
X000459Y028652D01*
X000459Y027225D02*
X002663Y027225D01*
X002643Y027067D02*
X000458Y027067D01*
X000458Y026908D02*
X002643Y026908D01*
X002729Y026750D02*
X000458Y026750D01*
X000458Y026591D02*
X002887Y026591D01*
X002871Y026433D02*
X000458Y026433D01*
X000458Y026274D02*
X002712Y026274D01*
X002643Y026116D02*
X000458Y026116D01*
X000458Y025957D02*
X002643Y025957D01*
X002680Y025799D02*
X000458Y025799D01*
X000455Y017081D02*
X002809Y017081D01*
X002651Y016923D02*
X000455Y016923D01*
X000455Y016764D02*
X002623Y016764D01*
X002623Y016606D02*
X000455Y016606D01*
X000455Y016447D02*
X002701Y016447D01*
X002860Y016289D02*
X000455Y016289D01*
X000455Y016130D02*
X002858Y016130D01*
X002700Y015972D02*
X000455Y015972D01*
X000455Y015813D02*
X002623Y015813D01*
X002623Y015655D02*
X000455Y015655D01*
X000455Y015496D02*
X002652Y015496D01*
X002811Y015338D02*
X000455Y015338D01*
X000453Y008839D02*
X003297Y008839D01*
X003395Y008937D02*
X003133Y008675D01*
X003133Y008305D01*
X003395Y008043D01*
X003765Y008043D01*
X004027Y008305D01*
X004027Y008675D01*
X003765Y008937D01*
X003395Y008937D01*
X003139Y008681D02*
X000453Y008681D01*
X000453Y008522D02*
X003133Y008522D01*
X003133Y008364D02*
X000453Y008364D01*
X000453Y008205D02*
X003233Y008205D01*
X003392Y008047D02*
X000452Y008047D01*
X000452Y007888D02*
X003346Y007888D01*
X003395Y007937D02*
X003133Y007675D01*
X003133Y007305D01*
X003395Y007043D01*
X003765Y007043D01*
X004027Y007305D01*
X004027Y007675D01*
X003765Y007937D01*
X003395Y007937D01*
X003188Y007730D02*
X000452Y007730D01*
X000452Y007571D02*
X003133Y007571D01*
X003133Y007413D02*
X000452Y007413D01*
X000452Y007254D02*
X003184Y007254D01*
X003343Y007096D02*
X000452Y007096D01*
X003817Y007096D02*
X004300Y007096D01*
X004382Y007013D02*
X004562Y007013D01*
X004562Y007472D01*
X004598Y007472D01*
X004598Y007508D01*
X005057Y007508D01*
X005057Y007688D01*
X004778Y007967D01*
X004598Y007967D01*
X004598Y007508D01*
X004562Y007508D01*
X004562Y007472D01*
X004103Y007472D01*
X004103Y007292D01*
X004382Y007013D01*
X004562Y007096D02*
X004598Y007096D01*
X004598Y007013D02*
X004778Y007013D01*
X005057Y007292D01*
X005057Y007472D01*
X004598Y007472D01*
X004598Y007013D01*
X004598Y007254D02*
X004562Y007254D01*
X004562Y007413D02*
X004598Y007413D01*
X004562Y007508D02*
X004103Y007508D01*
X004103Y007688D01*
X004382Y007967D01*
X004562Y007967D01*
X004562Y007508D01*
X004562Y007571D02*
X004598Y007571D01*
X004598Y007730D02*
X004562Y007730D01*
X004562Y007888D02*
X004598Y007888D01*
X004765Y008043D02*
X004395Y008043D01*
X004133Y008305D01*
X004133Y008675D01*
X004395Y008937D01*
X004765Y008937D01*
X005027Y008675D01*
X005027Y008305D01*
X004765Y008043D01*
X004768Y008047D02*
X005392Y008047D01*
X005395Y008043D02*
X005765Y008043D01*
X006027Y008305D01*
X006027Y008675D01*
X005765Y008937D01*
X005395Y008937D01*
X005133Y008675D01*
X005133Y008305D01*
X005395Y008043D01*
X005382Y007967D02*
X005103Y007688D01*
X005103Y007508D01*
X005562Y007508D01*
X005562Y007472D01*
X005598Y007472D01*
X005598Y007508D01*
X006057Y007508D01*
X006057Y007688D01*
X005778Y007967D01*
X005598Y007967D01*
X005598Y007508D01*
X005562Y007508D01*
X005562Y007967D01*
X005382Y007967D01*
X005304Y007888D02*
X004856Y007888D01*
X005015Y007730D02*
X005145Y007730D01*
X005103Y007571D02*
X005057Y007571D01*
X005103Y007472D02*
X005103Y007292D01*
X005382Y007013D01*
X005562Y007013D01*
X005562Y007472D01*
X005103Y007472D01*
X005103Y007413D02*
X005057Y007413D01*
X005018Y007254D02*
X005142Y007254D01*
X005300Y007096D02*
X004860Y007096D01*
X005562Y007096D02*
X005598Y007096D01*
X005598Y007013D02*
X005778Y007013D01*
X006057Y007292D01*
X006057Y007472D01*
X005598Y007472D01*
X005598Y007013D01*
X005598Y007254D02*
X005562Y007254D01*
X005562Y007413D02*
X005598Y007413D01*
X005598Y007571D02*
X005562Y007571D01*
X005562Y007730D02*
X005598Y007730D01*
X005598Y007888D02*
X005562Y007888D01*
X005768Y008047D02*
X006392Y008047D01*
X006382Y007967D02*
X006103Y007688D01*
X006103Y007508D01*
X006562Y007508D01*
X006562Y007967D01*
X006382Y007967D01*
X006304Y007888D02*
X005856Y007888D01*
X006015Y007730D02*
X006145Y007730D01*
X006103Y007571D02*
X006057Y007571D01*
X006103Y007472D02*
X006103Y007292D01*
X006382Y007013D01*
X006562Y007013D01*
X006562Y007472D01*
X006103Y007472D01*
X006103Y007413D02*
X006057Y007413D01*
X006018Y007254D02*
X006142Y007254D01*
X006300Y007096D02*
X005860Y007096D01*
X006562Y007096D02*
X006598Y007096D01*
X006598Y007254D02*
X006562Y007254D01*
X006562Y007413D02*
X006598Y007413D01*
X006598Y007571D02*
X006562Y007571D01*
X006562Y007730D02*
X006598Y007730D01*
X006598Y007888D02*
X006562Y007888D01*
X006233Y008205D02*
X005927Y008205D01*
X006027Y008364D02*
X006133Y008364D01*
X006133Y008522D02*
X006027Y008522D01*
X006021Y008681D02*
X006139Y008681D01*
X006297Y008839D02*
X005863Y008839D01*
X005297Y008839D02*
X004863Y008839D01*
X005021Y008681D02*
X005139Y008681D01*
X005133Y008522D02*
X005027Y008522D01*
X005027Y008364D02*
X005133Y008364D01*
X005233Y008205D02*
X004927Y008205D01*
X004392Y008047D02*
X003768Y008047D01*
X003814Y007888D02*
X004304Y007888D01*
X004145Y007730D02*
X003972Y007730D01*
X004027Y007571D02*
X004103Y007571D01*
X004103Y007413D02*
X004027Y007413D01*
X003976Y007254D02*
X004142Y007254D01*
X004233Y008205D02*
X003927Y008205D01*
X004027Y008364D02*
X004133Y008364D01*
X004133Y008522D02*
X004027Y008522D01*
X004021Y008681D02*
X004139Y008681D01*
X004297Y008839D02*
X003863Y008839D01*
X006863Y008839D02*
X007297Y008839D01*
X007139Y008681D02*
X007021Y008681D01*
X007027Y008522D02*
X007133Y008522D01*
X007133Y008364D02*
X007027Y008364D01*
X006927Y008205D02*
X007233Y008205D01*
X009573Y003767D02*
X009847Y003767D01*
X009719Y003609D02*
X009701Y003609D01*
X014560Y000597D02*
X000450Y000597D01*
D19*
X009990Y005890D03*
X020130Y003080D03*
M02*
