%
M48
M72
T01C0.0236
T02C0.0276
T03C0.0280
T04C0.0354
T05C0.0394
T06C0.0520
T07C0.0906
%
T01
X8450Y13810
X13730Y16330
X19200Y16050
X19210Y15330
X19690Y14290
X21720Y16900
X21820Y17360
X21720Y17880
X21630Y18730
X22380Y20610
X21680Y21010
X18170Y23080
X19040Y23750
X17030Y22070
X16240Y21530
X15610Y22050
X15260Y21450
X14850Y21990
X14500Y21420
X14070Y21940
X13600Y21400
X13240Y21950
X12600Y20600
X5390Y22150
X1020Y27040
X12630Y32100
X18980Y31900
X19930Y31510
X19590Y30770
X19900Y30100
X20820Y30440
X21770Y29720
X20730Y31110
X20710Y28140
X21960Y28400
X25640Y27180
X28540Y27510
X28595Y26985
X28570Y28140
X31860Y29420
X33470Y28920
X29920Y25000
X29905Y24395
X29970Y23730
X29915Y23185
X32850Y23270
X33400Y23200
X33470Y23850
X32820Y24880
X33090Y22520
X33110Y21830
X33140Y21180
X33220Y20470
X33100Y19900
X32150Y17170
X32480Y16700
X32955Y16355
X33505Y16415
X31240Y13970
X30780Y13470
X30100Y12970
X33360Y10410
X32810Y9990
X32260Y9450
X31760Y8910
X31260Y8340
X30740Y7910
X30210Y7410
X28460Y8640
X29240Y10050
X33350Y4940
X32810Y4430
X32260Y4000
X31760Y3430
X31260Y2930
X30740Y2460
X30220Y1980
X40120Y6960
X39460Y12470
X41500Y18210
X40570Y19170
X39020Y18570
X40130Y24850
X41530Y30860
X39660Y32340
X28410Y19860
X28270Y18810
X29290Y17120
X25370Y19180
X40580Y1410
X16960Y38350
X19470Y38710
T02
X18920Y11350
T03
X7900Y5880
X7900Y6580
T04
X13972Y7340
X14956Y7340
X15744Y7340
X16728Y7340
T05
X13220Y11410
X12220Y11410
X11220Y11410
X10220Y11410
X9220Y11410
X9220Y12410
X10220Y12410
X11220Y12410
X12220Y12410
X13220Y12410
X3000Y17860
X3000Y18860
X2000Y18860
X2000Y17860
X2000Y19860
X2000Y20860
X3000Y20860
X3000Y19860
X3000Y21860
X3000Y22860
X2000Y22860
X2000Y21860
X2000Y23860
X2000Y24860
X3000Y24860
X3000Y23860
X3020Y29570
X2020Y29570
X2020Y30570
X2020Y31570
X3020Y31570
X3020Y30570
X3020Y32570
X3020Y33570
X2020Y33570
X2020Y32570
X2020Y34570
X2020Y35570
X3020Y35570
X3020Y34570
X3020Y36570
X2020Y36570
X50320Y25290
X50320Y24290
X51320Y24290
X51320Y25290
X51320Y23290
X51320Y22290
X50320Y22290
X50320Y23290
X50320Y21290
X50320Y20290
X51320Y20290
X51320Y21290
X51320Y19290
X51320Y18290
X50320Y18290
X50320Y19290
X55470Y18900
X55470Y17900
X56470Y17900
X56470Y18900
X56470Y19900
X56470Y20900
X55470Y20900
X55470Y19900
X55470Y21900
X56470Y21900
X56470Y16900
X56470Y15900
X55470Y15900
X55470Y16900
X55470Y14900
X56470Y14900
X56450Y10290
X55450Y10290
X55450Y9290
X56450Y9290
X56450Y8290
X56450Y7290
X55450Y7290
X55450Y8290
X55450Y6290
X55450Y5290
X56450Y5290
X56450Y6290
X56450Y4290
X56450Y3290
X55450Y3290
X55450Y4290
X51330Y29760
X50330Y29760
X50330Y30760
X51330Y30760
X51330Y31760
X50330Y31760
X50330Y32760
X51330Y32760
X51330Y33760
X50330Y33760
X50330Y34760
X51330Y34760
X51330Y35760
X50330Y35760
X50330Y36760
X51330Y36760
T06
X27490Y3130
X25520Y3130
X23550Y3130
T07
X17937Y8407
X12763Y8407
M30
