G75*
G70*
%OFA0B0*%
%FSLAX24Y24*%
%IPPOS*%
%LPD*%
%AMOC8*
5,1,8,0,0,1.08239X$1,22.5*
%
%ADD10C,0.0000*%
%ADD11C,0.0080*%
%ADD12C,0.0100*%
%ADD13C,0.0060*%
%ADD14C,0.0020*%
%ADD15C,0.0050*%
%ADD16R,0.0050X0.0200*%
%ADD17C,0.0040*%
%ADD18C,0.0348*%
D10*
X000170Y000290D02*
X000180Y031900D01*
X058792Y031930D01*
X058792Y000400D01*
X000170Y000290D01*
D11*
X018616Y004352D02*
X020664Y004352D01*
X020664Y008368D01*
X018616Y008368D01*
X018616Y004352D01*
X023728Y013100D02*
X027192Y013100D01*
X027350Y013258D01*
X027350Y016722D01*
X027192Y016880D01*
X023728Y016880D01*
X023570Y016722D01*
X023570Y013258D01*
X023728Y013100D01*
D12*
X023774Y013415D02*
X023776Y013435D01*
X023781Y013455D01*
X023791Y013473D01*
X023803Y013490D01*
X023818Y013504D01*
X023836Y013514D01*
X023855Y013522D01*
X023875Y013526D01*
X023895Y013526D01*
X023915Y013522D01*
X023934Y013514D01*
X023952Y013504D01*
X023967Y013490D01*
X023979Y013473D01*
X023989Y013455D01*
X023994Y013435D01*
X023996Y013415D01*
X023994Y013395D01*
X023989Y013375D01*
X023979Y013357D01*
X023967Y013340D01*
X023952Y013326D01*
X023934Y013316D01*
X023915Y013308D01*
X023895Y013304D01*
X023875Y013304D01*
X023855Y013308D01*
X023836Y013316D01*
X023818Y013326D01*
X023803Y013340D01*
X023791Y013357D01*
X023781Y013375D01*
X023776Y013395D01*
X023774Y013415D01*
D13*
X022680Y013520D02*
X022680Y013734D01*
X022680Y013627D02*
X022039Y013627D01*
X022039Y013520D02*
X022039Y013734D01*
X022146Y013950D02*
X022573Y013950D01*
X022680Y014056D01*
X022680Y014270D01*
X022573Y014377D01*
X022680Y014594D02*
X022680Y015021D01*
X022680Y014808D02*
X022039Y014808D01*
X022253Y014594D01*
X022146Y014377D02*
X022039Y014270D01*
X022039Y014056D01*
X022146Y013950D01*
X018670Y016940D02*
X017850Y016940D01*
X016850Y016940D01*
X016030Y016940D01*
X016007Y016942D01*
X015984Y016947D01*
X015962Y016956D01*
X015942Y016969D01*
X015924Y016984D01*
X015909Y017002D01*
X015896Y017022D01*
X015887Y017044D01*
X015882Y017067D01*
X015880Y017090D01*
X016850Y016940D02*
X016852Y016984D01*
X016858Y017027D01*
X016867Y017069D01*
X016880Y017111D01*
X016897Y017151D01*
X016917Y017190D01*
X016940Y017227D01*
X016967Y017261D01*
X016996Y017294D01*
X017029Y017323D01*
X017063Y017350D01*
X017100Y017373D01*
X017139Y017393D01*
X017179Y017410D01*
X017221Y017423D01*
X017263Y017432D01*
X017306Y017438D01*
X017350Y017440D01*
X017394Y017438D01*
X017437Y017432D01*
X017479Y017423D01*
X017521Y017410D01*
X017561Y017393D01*
X017600Y017373D01*
X017637Y017350D01*
X017671Y017323D01*
X017704Y017294D01*
X017733Y017261D01*
X017760Y017227D01*
X017783Y017190D01*
X017803Y017151D01*
X017820Y017111D01*
X017833Y017069D01*
X017842Y017027D01*
X017848Y016984D01*
X017850Y016940D01*
X018670Y016940D02*
X018693Y016942D01*
X018716Y016947D01*
X018738Y016956D01*
X018758Y016969D01*
X018776Y016984D01*
X018791Y017002D01*
X018804Y017022D01*
X018813Y017044D01*
X018818Y017067D01*
X018820Y017090D01*
X012140Y017600D02*
X012140Y021920D01*
X012138Y021943D01*
X012133Y021966D01*
X012124Y021988D01*
X012111Y022008D01*
X012096Y022026D01*
X012078Y022041D01*
X012058Y022054D01*
X012036Y022063D01*
X012013Y022068D01*
X011990Y022070D01*
X009350Y022070D01*
X009327Y022068D01*
X009304Y022063D01*
X009282Y022054D01*
X009262Y022041D01*
X009244Y022026D01*
X009229Y022008D01*
X009216Y021988D01*
X009207Y021966D01*
X009202Y021943D01*
X009200Y021920D01*
X009200Y017600D01*
X009202Y017577D01*
X009207Y017554D01*
X009216Y017532D01*
X009229Y017512D01*
X009244Y017494D01*
X009262Y017479D01*
X009282Y017466D01*
X009304Y017457D01*
X009327Y017452D01*
X009350Y017450D01*
X011990Y017450D01*
X012013Y017452D01*
X012036Y017457D01*
X012058Y017466D01*
X012078Y017479D01*
X012096Y017494D01*
X012111Y017512D01*
X012124Y017532D01*
X012133Y017554D01*
X012138Y017577D01*
X012140Y017600D01*
X011170Y017450D02*
X011168Y017494D01*
X011162Y017537D01*
X011153Y017579D01*
X011140Y017621D01*
X011123Y017661D01*
X011103Y017700D01*
X011080Y017737D01*
X011053Y017771D01*
X011024Y017804D01*
X010991Y017833D01*
X010957Y017860D01*
X010920Y017883D01*
X010881Y017903D01*
X010841Y017920D01*
X010799Y017933D01*
X010757Y017942D01*
X010714Y017948D01*
X010670Y017950D01*
X010626Y017948D01*
X010583Y017942D01*
X010541Y017933D01*
X010499Y017920D01*
X010459Y017903D01*
X010420Y017883D01*
X010383Y017860D01*
X010349Y017833D01*
X010316Y017804D01*
X010287Y017771D01*
X010260Y017737D01*
X010237Y017700D01*
X010217Y017661D01*
X010200Y017621D01*
X010187Y017579D01*
X010178Y017537D01*
X010172Y017494D01*
X010170Y017450D01*
X015880Y021910D02*
X015882Y021933D01*
X015887Y021956D01*
X015896Y021978D01*
X015909Y021998D01*
X015924Y022016D01*
X015942Y022031D01*
X015962Y022044D01*
X015984Y022053D01*
X016007Y022058D01*
X016030Y022060D01*
X018670Y022060D01*
X018693Y022058D01*
X018716Y022053D01*
X018738Y022044D01*
X018758Y022031D01*
X018776Y022016D01*
X018791Y021998D01*
X018804Y021978D01*
X018813Y021956D01*
X018818Y021933D01*
X018820Y021910D01*
X018410Y025430D02*
X017590Y025430D01*
X016590Y025430D01*
X015770Y025430D01*
X015747Y025432D01*
X015724Y025437D01*
X015702Y025446D01*
X015682Y025459D01*
X015664Y025474D01*
X015649Y025492D01*
X015636Y025512D01*
X015627Y025534D01*
X015622Y025557D01*
X015620Y025580D01*
X016590Y025430D02*
X016592Y025474D01*
X016598Y025517D01*
X016607Y025559D01*
X016620Y025601D01*
X016637Y025641D01*
X016657Y025680D01*
X016680Y025717D01*
X016707Y025751D01*
X016736Y025784D01*
X016769Y025813D01*
X016803Y025840D01*
X016840Y025863D01*
X016879Y025883D01*
X016919Y025900D01*
X016961Y025913D01*
X017003Y025922D01*
X017046Y025928D01*
X017090Y025930D01*
X017134Y025928D01*
X017177Y025922D01*
X017219Y025913D01*
X017261Y025900D01*
X017301Y025883D01*
X017340Y025863D01*
X017377Y025840D01*
X017411Y025813D01*
X017444Y025784D01*
X017473Y025751D01*
X017500Y025717D01*
X017523Y025680D01*
X017543Y025641D01*
X017560Y025601D01*
X017573Y025559D01*
X017582Y025517D01*
X017588Y025474D01*
X017590Y025430D01*
X018410Y025430D02*
X018433Y025432D01*
X018456Y025437D01*
X018478Y025446D01*
X018498Y025459D01*
X018516Y025474D01*
X018531Y025492D01*
X018544Y025512D01*
X018553Y025534D01*
X018558Y025557D01*
X018560Y025580D01*
X012210Y026080D02*
X012210Y030400D01*
X012208Y030423D01*
X012203Y030446D01*
X012194Y030468D01*
X012181Y030488D01*
X012166Y030506D01*
X012148Y030521D01*
X012128Y030534D01*
X012106Y030543D01*
X012083Y030548D01*
X012060Y030550D01*
X009420Y030550D01*
X009397Y030548D01*
X009374Y030543D01*
X009352Y030534D01*
X009332Y030521D01*
X009314Y030506D01*
X009299Y030488D01*
X009286Y030468D01*
X009277Y030446D01*
X009272Y030423D01*
X009270Y030400D01*
X009270Y026080D01*
X009272Y026057D01*
X009277Y026034D01*
X009286Y026012D01*
X009299Y025992D01*
X009314Y025974D01*
X009332Y025959D01*
X009352Y025946D01*
X009374Y025937D01*
X009397Y025932D01*
X009420Y025930D01*
X012060Y025930D01*
X012083Y025932D01*
X012106Y025937D01*
X012128Y025946D01*
X012148Y025959D01*
X012166Y025974D01*
X012181Y025992D01*
X012194Y026012D01*
X012203Y026034D01*
X012208Y026057D01*
X012210Y026080D01*
X011240Y025930D02*
X011238Y025974D01*
X011232Y026017D01*
X011223Y026059D01*
X011210Y026101D01*
X011193Y026141D01*
X011173Y026180D01*
X011150Y026217D01*
X011123Y026251D01*
X011094Y026284D01*
X011061Y026313D01*
X011027Y026340D01*
X010990Y026363D01*
X010951Y026383D01*
X010911Y026400D01*
X010869Y026413D01*
X010827Y026422D01*
X010784Y026428D01*
X010740Y026430D01*
X010696Y026428D01*
X010653Y026422D01*
X010611Y026413D01*
X010569Y026400D01*
X010529Y026383D01*
X010490Y026363D01*
X010453Y026340D01*
X010419Y026313D01*
X010386Y026284D01*
X010357Y026251D01*
X010330Y026217D01*
X010307Y026180D01*
X010287Y026141D01*
X010270Y026101D01*
X010257Y026059D01*
X010248Y026017D01*
X010242Y025974D01*
X010240Y025930D01*
X015620Y030400D02*
X015622Y030423D01*
X015627Y030446D01*
X015636Y030468D01*
X015649Y030488D01*
X015664Y030506D01*
X015682Y030521D01*
X015702Y030534D01*
X015724Y030543D01*
X015747Y030548D01*
X015770Y030550D01*
X018410Y030550D01*
X018433Y030548D01*
X018456Y030543D01*
X018478Y030534D01*
X018498Y030521D01*
X018516Y030506D01*
X018531Y030488D01*
X018544Y030468D01*
X018553Y030446D01*
X018558Y030423D01*
X018560Y030400D01*
X035080Y030040D02*
X035900Y030040D01*
X036900Y030040D01*
X037720Y030040D01*
X037743Y030038D01*
X037766Y030033D01*
X037788Y030024D01*
X037808Y030011D01*
X037826Y029996D01*
X037841Y029978D01*
X037854Y029958D01*
X037863Y029936D01*
X037868Y029913D01*
X037870Y029890D01*
X036900Y030040D02*
X036898Y029996D01*
X036892Y029953D01*
X036883Y029911D01*
X036870Y029869D01*
X036853Y029829D01*
X036833Y029790D01*
X036810Y029753D01*
X036783Y029719D01*
X036754Y029686D01*
X036721Y029657D01*
X036687Y029630D01*
X036650Y029607D01*
X036611Y029587D01*
X036571Y029570D01*
X036529Y029557D01*
X036487Y029548D01*
X036444Y029542D01*
X036400Y029540D01*
X036356Y029542D01*
X036313Y029548D01*
X036271Y029557D01*
X036229Y029570D01*
X036189Y029587D01*
X036150Y029607D01*
X036113Y029630D01*
X036079Y029657D01*
X036046Y029686D01*
X036017Y029719D01*
X035990Y029753D01*
X035967Y029790D01*
X035947Y029829D01*
X035930Y029869D01*
X035917Y029911D01*
X035908Y029953D01*
X035902Y029996D01*
X035900Y030040D01*
X035080Y030040D02*
X035057Y030038D01*
X035034Y030033D01*
X035012Y030024D01*
X034992Y030011D01*
X034974Y029996D01*
X034959Y029978D01*
X034946Y029958D01*
X034937Y029936D01*
X034932Y029913D01*
X034930Y029890D01*
X041690Y029380D02*
X041690Y025060D01*
X041692Y025037D01*
X041697Y025014D01*
X041706Y024992D01*
X041719Y024972D01*
X041734Y024954D01*
X041752Y024939D01*
X041772Y024926D01*
X041794Y024917D01*
X041817Y024912D01*
X041840Y024910D01*
X044480Y024910D01*
X044503Y024912D01*
X044526Y024917D01*
X044548Y024926D01*
X044568Y024939D01*
X044586Y024954D01*
X044601Y024972D01*
X044614Y024992D01*
X044623Y025014D01*
X044628Y025037D01*
X044630Y025060D01*
X044630Y029380D01*
X044628Y029403D01*
X044623Y029426D01*
X044614Y029448D01*
X044601Y029468D01*
X044586Y029486D01*
X044568Y029501D01*
X044548Y029514D01*
X044526Y029523D01*
X044503Y029528D01*
X044480Y029530D01*
X041840Y029530D01*
X041817Y029528D01*
X041794Y029523D01*
X041772Y029514D01*
X041752Y029501D01*
X041734Y029486D01*
X041719Y029468D01*
X041706Y029448D01*
X041697Y029426D01*
X041692Y029403D01*
X041690Y029380D01*
X042660Y029530D02*
X042662Y029486D01*
X042668Y029443D01*
X042677Y029401D01*
X042690Y029359D01*
X042707Y029319D01*
X042727Y029280D01*
X042750Y029243D01*
X042777Y029209D01*
X042806Y029176D01*
X042839Y029147D01*
X042873Y029120D01*
X042910Y029097D01*
X042949Y029077D01*
X042989Y029060D01*
X043031Y029047D01*
X043073Y029038D01*
X043116Y029032D01*
X043160Y029030D01*
X043204Y029032D01*
X043247Y029038D01*
X043289Y029047D01*
X043331Y029060D01*
X043371Y029077D01*
X043410Y029097D01*
X043447Y029120D01*
X043481Y029147D01*
X043514Y029176D01*
X043543Y029209D01*
X043570Y029243D01*
X043593Y029280D01*
X043613Y029319D01*
X043630Y029359D01*
X043643Y029401D01*
X043652Y029443D01*
X043658Y029486D01*
X043660Y029530D01*
X037870Y025070D02*
X037868Y025047D01*
X037863Y025024D01*
X037854Y025002D01*
X037841Y024982D01*
X037826Y024964D01*
X037808Y024949D01*
X037788Y024936D01*
X037766Y024927D01*
X037743Y024922D01*
X037720Y024920D01*
X035080Y024920D01*
X035057Y024922D01*
X035034Y024927D01*
X035012Y024936D01*
X034992Y024949D01*
X034974Y024964D01*
X034959Y024982D01*
X034946Y025002D01*
X034937Y025024D01*
X034932Y025047D01*
X034930Y025070D01*
X035060Y021850D02*
X035880Y021850D01*
X036880Y021850D01*
X037700Y021850D01*
X037723Y021848D01*
X037746Y021843D01*
X037768Y021834D01*
X037788Y021821D01*
X037806Y021806D01*
X037821Y021788D01*
X037834Y021768D01*
X037843Y021746D01*
X037848Y021723D01*
X037850Y021700D01*
X036880Y021850D02*
X036878Y021806D01*
X036872Y021763D01*
X036863Y021721D01*
X036850Y021679D01*
X036833Y021639D01*
X036813Y021600D01*
X036790Y021563D01*
X036763Y021529D01*
X036734Y021496D01*
X036701Y021467D01*
X036667Y021440D01*
X036630Y021417D01*
X036591Y021397D01*
X036551Y021380D01*
X036509Y021367D01*
X036467Y021358D01*
X036424Y021352D01*
X036380Y021350D01*
X036336Y021352D01*
X036293Y021358D01*
X036251Y021367D01*
X036209Y021380D01*
X036169Y021397D01*
X036130Y021417D01*
X036093Y021440D01*
X036059Y021467D01*
X036026Y021496D01*
X035997Y021529D01*
X035970Y021563D01*
X035947Y021600D01*
X035927Y021639D01*
X035910Y021679D01*
X035897Y021721D01*
X035888Y021763D01*
X035882Y021806D01*
X035880Y021850D01*
X035060Y021850D02*
X035037Y021848D01*
X035014Y021843D01*
X034992Y021834D01*
X034972Y021821D01*
X034954Y021806D01*
X034939Y021788D01*
X034926Y021768D01*
X034917Y021746D01*
X034912Y021723D01*
X034910Y021700D01*
X041860Y021250D02*
X041860Y016930D01*
X041862Y016907D01*
X041867Y016884D01*
X041876Y016862D01*
X041889Y016842D01*
X041904Y016824D01*
X041922Y016809D01*
X041942Y016796D01*
X041964Y016787D01*
X041987Y016782D01*
X042010Y016780D01*
X044650Y016780D01*
X044673Y016782D01*
X044696Y016787D01*
X044718Y016796D01*
X044738Y016809D01*
X044756Y016824D01*
X044771Y016842D01*
X044784Y016862D01*
X044793Y016884D01*
X044798Y016907D01*
X044800Y016930D01*
X044800Y021250D01*
X044798Y021273D01*
X044793Y021296D01*
X044784Y021318D01*
X044771Y021338D01*
X044756Y021356D01*
X044738Y021371D01*
X044718Y021384D01*
X044696Y021393D01*
X044673Y021398D01*
X044650Y021400D01*
X042010Y021400D01*
X041987Y021398D01*
X041964Y021393D01*
X041942Y021384D01*
X041922Y021371D01*
X041904Y021356D01*
X041889Y021338D01*
X041876Y021318D01*
X041867Y021296D01*
X041862Y021273D01*
X041860Y021250D01*
X042830Y021400D02*
X042832Y021356D01*
X042838Y021313D01*
X042847Y021271D01*
X042860Y021229D01*
X042877Y021189D01*
X042897Y021150D01*
X042920Y021113D01*
X042947Y021079D01*
X042976Y021046D01*
X043009Y021017D01*
X043043Y020990D01*
X043080Y020967D01*
X043119Y020947D01*
X043159Y020930D01*
X043201Y020917D01*
X043243Y020908D01*
X043286Y020902D01*
X043330Y020900D01*
X043374Y020902D01*
X043417Y020908D01*
X043459Y020917D01*
X043501Y020930D01*
X043541Y020947D01*
X043580Y020967D01*
X043617Y020990D01*
X043651Y021017D01*
X043684Y021046D01*
X043713Y021079D01*
X043740Y021113D01*
X043763Y021150D01*
X043783Y021189D01*
X043800Y021229D01*
X043813Y021271D01*
X043822Y021313D01*
X043828Y021356D01*
X043830Y021400D01*
X037850Y016880D02*
X037848Y016857D01*
X037843Y016834D01*
X037834Y016812D01*
X037821Y016792D01*
X037806Y016774D01*
X037788Y016759D01*
X037768Y016746D01*
X037746Y016737D01*
X037723Y016732D01*
X037700Y016730D01*
X035060Y016730D01*
X035037Y016732D01*
X035014Y016737D01*
X034992Y016746D01*
X034972Y016759D01*
X034954Y016774D01*
X034939Y016792D01*
X034926Y016812D01*
X034917Y016834D01*
X034912Y016857D01*
X034910Y016880D01*
X035030Y014710D02*
X035850Y014710D01*
X036850Y014710D01*
X037670Y014710D01*
X037693Y014708D01*
X037716Y014703D01*
X037738Y014694D01*
X037758Y014681D01*
X037776Y014666D01*
X037791Y014648D01*
X037804Y014628D01*
X037813Y014606D01*
X037818Y014583D01*
X037820Y014560D01*
X036850Y014710D02*
X036848Y014666D01*
X036842Y014623D01*
X036833Y014581D01*
X036820Y014539D01*
X036803Y014499D01*
X036783Y014460D01*
X036760Y014423D01*
X036733Y014389D01*
X036704Y014356D01*
X036671Y014327D01*
X036637Y014300D01*
X036600Y014277D01*
X036561Y014257D01*
X036521Y014240D01*
X036479Y014227D01*
X036437Y014218D01*
X036394Y014212D01*
X036350Y014210D01*
X036306Y014212D01*
X036263Y014218D01*
X036221Y014227D01*
X036179Y014240D01*
X036139Y014257D01*
X036100Y014277D01*
X036063Y014300D01*
X036029Y014327D01*
X035996Y014356D01*
X035967Y014389D01*
X035940Y014423D01*
X035917Y014460D01*
X035897Y014499D01*
X035880Y014539D01*
X035867Y014581D01*
X035858Y014623D01*
X035852Y014666D01*
X035850Y014710D01*
X035030Y014710D02*
X035007Y014708D01*
X034984Y014703D01*
X034962Y014694D01*
X034942Y014681D01*
X034924Y014666D01*
X034909Y014648D01*
X034896Y014628D01*
X034887Y014606D01*
X034882Y014583D01*
X034880Y014560D01*
X042230Y014040D02*
X042230Y009720D01*
X042232Y009697D01*
X042237Y009674D01*
X042246Y009652D01*
X042259Y009632D01*
X042274Y009614D01*
X042292Y009599D01*
X042312Y009586D01*
X042334Y009577D01*
X042357Y009572D01*
X042380Y009570D01*
X045020Y009570D01*
X045043Y009572D01*
X045066Y009577D01*
X045088Y009586D01*
X045108Y009599D01*
X045126Y009614D01*
X045141Y009632D01*
X045154Y009652D01*
X045163Y009674D01*
X045168Y009697D01*
X045170Y009720D01*
X045170Y014040D01*
X045168Y014063D01*
X045163Y014086D01*
X045154Y014108D01*
X045141Y014128D01*
X045126Y014146D01*
X045108Y014161D01*
X045088Y014174D01*
X045066Y014183D01*
X045043Y014188D01*
X045020Y014190D01*
X042380Y014190D01*
X042357Y014188D01*
X042334Y014183D01*
X042312Y014174D01*
X042292Y014161D01*
X042274Y014146D01*
X042259Y014128D01*
X042246Y014108D01*
X042237Y014086D01*
X042232Y014063D01*
X042230Y014040D01*
X043200Y014190D02*
X043202Y014146D01*
X043208Y014103D01*
X043217Y014061D01*
X043230Y014019D01*
X043247Y013979D01*
X043267Y013940D01*
X043290Y013903D01*
X043317Y013869D01*
X043346Y013836D01*
X043379Y013807D01*
X043413Y013780D01*
X043450Y013757D01*
X043489Y013737D01*
X043529Y013720D01*
X043571Y013707D01*
X043613Y013698D01*
X043656Y013692D01*
X043700Y013690D01*
X043744Y013692D01*
X043787Y013698D01*
X043829Y013707D01*
X043871Y013720D01*
X043911Y013737D01*
X043950Y013757D01*
X043987Y013780D01*
X044021Y013807D01*
X044054Y013836D01*
X044083Y013869D01*
X044110Y013903D01*
X044133Y013940D01*
X044153Y013979D01*
X044170Y014019D01*
X044183Y014061D01*
X044192Y014103D01*
X044198Y014146D01*
X044200Y014190D01*
X037820Y009740D02*
X037818Y009717D01*
X037813Y009694D01*
X037804Y009672D01*
X037791Y009652D01*
X037776Y009634D01*
X037758Y009619D01*
X037738Y009606D01*
X037716Y009597D01*
X037693Y009592D01*
X037670Y009590D01*
X035030Y009590D01*
X035007Y009592D01*
X034984Y009597D01*
X034962Y009606D01*
X034942Y009619D01*
X034924Y009634D01*
X034909Y009652D01*
X034896Y009672D01*
X034887Y009694D01*
X034882Y009717D01*
X034880Y009740D01*
X035040Y007540D02*
X035860Y007540D01*
X036860Y007540D01*
X037680Y007540D01*
X037703Y007538D01*
X037726Y007533D01*
X037748Y007524D01*
X037768Y007511D01*
X037786Y007496D01*
X037801Y007478D01*
X037814Y007458D01*
X037823Y007436D01*
X037828Y007413D01*
X037830Y007390D01*
X036860Y007540D02*
X036858Y007496D01*
X036852Y007453D01*
X036843Y007411D01*
X036830Y007369D01*
X036813Y007329D01*
X036793Y007290D01*
X036770Y007253D01*
X036743Y007219D01*
X036714Y007186D01*
X036681Y007157D01*
X036647Y007130D01*
X036610Y007107D01*
X036571Y007087D01*
X036531Y007070D01*
X036489Y007057D01*
X036447Y007048D01*
X036404Y007042D01*
X036360Y007040D01*
X036316Y007042D01*
X036273Y007048D01*
X036231Y007057D01*
X036189Y007070D01*
X036149Y007087D01*
X036110Y007107D01*
X036073Y007130D01*
X036039Y007157D01*
X036006Y007186D01*
X035977Y007219D01*
X035950Y007253D01*
X035927Y007290D01*
X035907Y007329D01*
X035890Y007369D01*
X035877Y007411D01*
X035868Y007453D01*
X035862Y007496D01*
X035860Y007540D01*
X035040Y007540D02*
X035017Y007538D01*
X034994Y007533D01*
X034972Y007524D01*
X034952Y007511D01*
X034934Y007496D01*
X034919Y007478D01*
X034906Y007458D01*
X034897Y007436D01*
X034892Y007413D01*
X034890Y007390D01*
X028080Y008240D02*
X028080Y008640D01*
X028080Y008240D02*
X028078Y008223D01*
X028074Y008206D01*
X028067Y008190D01*
X028057Y008176D01*
X028044Y008163D01*
X028030Y008153D01*
X028014Y008146D01*
X027997Y008142D01*
X027980Y008140D01*
X023680Y008140D01*
X023663Y008142D01*
X023646Y008146D01*
X023630Y008153D01*
X023616Y008163D01*
X023603Y008176D01*
X023593Y008190D01*
X023586Y008206D01*
X023582Y008223D01*
X023580Y008240D01*
X023580Y008640D01*
X023580Y009540D02*
X023580Y009940D01*
X023582Y009957D01*
X023586Y009974D01*
X023593Y009990D01*
X023603Y010004D01*
X023616Y010017D01*
X023630Y010027D01*
X023646Y010034D01*
X023663Y010038D01*
X023680Y010040D01*
X027980Y010040D01*
X027997Y010038D01*
X028014Y010034D01*
X028030Y010027D01*
X028044Y010017D01*
X028057Y010004D01*
X028067Y009990D01*
X028074Y009974D01*
X028078Y009957D01*
X028080Y009940D01*
X028080Y009540D01*
X026080Y009340D02*
X026080Y009090D01*
X026080Y008840D01*
X025930Y008840D02*
X025730Y008840D01*
X025730Y009340D01*
X025930Y009340D01*
X025930Y008840D01*
X025580Y008840D02*
X025580Y009090D01*
X025580Y009340D01*
X034890Y002570D02*
X034892Y002547D01*
X034897Y002524D01*
X034906Y002502D01*
X034919Y002482D01*
X034934Y002464D01*
X034952Y002449D01*
X034972Y002436D01*
X034994Y002427D01*
X035017Y002422D01*
X035040Y002420D01*
X037680Y002420D01*
X037703Y002422D01*
X037726Y002427D01*
X037748Y002436D01*
X037768Y002449D01*
X037786Y002464D01*
X037801Y002482D01*
X037814Y002502D01*
X037823Y002524D01*
X037828Y002547D01*
X037830Y002570D01*
X042140Y002590D02*
X042140Y006910D01*
X042142Y006933D01*
X042147Y006956D01*
X042156Y006978D01*
X042169Y006998D01*
X042184Y007016D01*
X042202Y007031D01*
X042222Y007044D01*
X042244Y007053D01*
X042267Y007058D01*
X042290Y007060D01*
X044930Y007060D01*
X044953Y007058D01*
X044976Y007053D01*
X044998Y007044D01*
X045018Y007031D01*
X045036Y007016D01*
X045051Y006998D01*
X045064Y006978D01*
X045073Y006956D01*
X045078Y006933D01*
X045080Y006910D01*
X045080Y002590D01*
X045078Y002567D01*
X045073Y002544D01*
X045064Y002522D01*
X045051Y002502D01*
X045036Y002484D01*
X045018Y002469D01*
X044998Y002456D01*
X044976Y002447D01*
X044953Y002442D01*
X044930Y002440D01*
X042290Y002440D01*
X042267Y002442D01*
X042244Y002447D01*
X042222Y002456D01*
X042202Y002469D01*
X042184Y002484D01*
X042169Y002502D01*
X042156Y002522D01*
X042147Y002544D01*
X042142Y002567D01*
X042140Y002590D01*
X043110Y007060D02*
X043112Y007016D01*
X043118Y006973D01*
X043127Y006931D01*
X043140Y006889D01*
X043157Y006849D01*
X043177Y006810D01*
X043200Y006773D01*
X043227Y006739D01*
X043256Y006706D01*
X043289Y006677D01*
X043323Y006650D01*
X043360Y006627D01*
X043399Y006607D01*
X043439Y006590D01*
X043481Y006577D01*
X043523Y006568D01*
X043566Y006562D01*
X043610Y006560D01*
X043654Y006562D01*
X043697Y006568D01*
X043739Y006577D01*
X043781Y006590D01*
X043821Y006607D01*
X043860Y006627D01*
X043897Y006650D01*
X043931Y006677D01*
X043964Y006706D01*
X043993Y006739D01*
X044020Y006773D01*
X044043Y006810D01*
X044063Y006849D01*
X044080Y006889D01*
X044093Y006931D01*
X044102Y006973D01*
X044108Y007016D01*
X044110Y007060D01*
D14*
X042280Y007050D02*
X042280Y002450D01*
X035030Y002430D02*
X035030Y007530D01*
X035020Y009600D02*
X035020Y014700D01*
X035050Y016740D02*
X035050Y021840D01*
X035070Y024930D02*
X035070Y030030D01*
X041830Y029520D02*
X041830Y024920D01*
X042000Y021390D02*
X042000Y016790D01*
X042370Y014180D02*
X042370Y009580D01*
X027180Y009590D02*
X024480Y009590D01*
X024480Y009890D02*
X027180Y009890D01*
X027180Y009590D02*
X027218Y009589D01*
X027255Y009584D01*
X027292Y009577D01*
X027328Y009568D01*
X027364Y009555D01*
X027398Y009540D01*
X027180Y009890D02*
X027236Y009888D01*
X027291Y009882D01*
X027346Y009873D01*
X027400Y009859D01*
X027453Y009842D01*
X027504Y009821D01*
X027554Y009797D01*
X027602Y009769D01*
X027649Y009738D01*
X027692Y009704D01*
X027734Y009667D01*
X027773Y009627D01*
X027809Y009585D01*
X027841Y009540D01*
X027398Y008640D02*
X027364Y008625D01*
X027328Y008612D01*
X027292Y008603D01*
X027255Y008596D01*
X027218Y008591D01*
X027180Y008590D01*
X024480Y008590D01*
X024480Y008290D02*
X027180Y008290D01*
X027236Y008292D01*
X027291Y008298D01*
X027346Y008307D01*
X027400Y008321D01*
X027453Y008338D01*
X027504Y008359D01*
X027554Y008383D01*
X027602Y008411D01*
X027649Y008442D01*
X027693Y008476D01*
X027734Y008513D01*
X027773Y008553D01*
X027809Y008595D01*
X027841Y008640D01*
X026230Y009090D02*
X026080Y009090D01*
X025580Y009090D02*
X025430Y009090D01*
X024480Y009890D02*
X024424Y009888D01*
X024369Y009882D01*
X024314Y009873D01*
X024260Y009859D01*
X024207Y009842D01*
X024156Y009821D01*
X024106Y009797D01*
X024058Y009769D01*
X024011Y009738D01*
X023967Y009704D01*
X023926Y009667D01*
X023887Y009627D01*
X023851Y009585D01*
X023819Y009540D01*
X023819Y008640D02*
X023851Y008595D01*
X023887Y008553D01*
X023926Y008513D01*
X023968Y008476D01*
X024011Y008442D01*
X024058Y008411D01*
X024106Y008383D01*
X024156Y008359D01*
X024207Y008338D01*
X024260Y008321D01*
X024314Y008307D01*
X024369Y008298D01*
X024424Y008292D01*
X024480Y008290D01*
X024480Y008590D02*
X024442Y008591D01*
X024405Y008596D01*
X024368Y008603D01*
X024332Y008612D01*
X024296Y008625D01*
X024262Y008640D01*
X024262Y009540D02*
X024296Y009555D01*
X024332Y009568D01*
X024368Y009577D01*
X024405Y009584D01*
X024442Y009589D01*
X024480Y009590D01*
X018680Y016950D02*
X018680Y022050D01*
X018420Y025440D02*
X018420Y030540D01*
X012070Y030540D02*
X012070Y025940D01*
X012000Y022060D02*
X012000Y017460D01*
D15*
X011860Y017285D02*
X011935Y017210D01*
X011935Y017135D01*
X011860Y017060D01*
X011935Y016985D01*
X011935Y016910D01*
X011860Y016835D01*
X011710Y016835D01*
X011635Y016910D01*
X011635Y016985D01*
X011710Y017060D01*
X011860Y017060D01*
X011710Y017060D02*
X011635Y017135D01*
X011635Y017210D01*
X011710Y017285D01*
X011860Y017285D01*
X011474Y017210D02*
X011399Y017285D01*
X011249Y017285D01*
X011174Y017210D01*
X011174Y016910D01*
X011249Y016835D01*
X011399Y016835D01*
X011474Y016910D01*
X011017Y016835D02*
X010867Y016835D01*
X010942Y016835D02*
X010942Y017285D01*
X010867Y017285D02*
X011017Y017285D01*
X017397Y016775D02*
X017547Y016775D01*
X017472Y016775D02*
X017472Y016325D01*
X017397Y016325D02*
X017547Y016325D01*
X017704Y016400D02*
X017779Y016325D01*
X017929Y016325D01*
X018004Y016400D01*
X018165Y016400D02*
X018240Y016325D01*
X018390Y016325D01*
X018465Y016400D01*
X018465Y016475D01*
X018390Y016550D01*
X018165Y016550D01*
X018165Y016400D01*
X018165Y016550D02*
X018315Y016700D01*
X018465Y016775D01*
X018004Y016700D02*
X017929Y016775D01*
X017779Y016775D01*
X017704Y016700D01*
X017704Y016400D01*
X027184Y007890D02*
X027259Y007965D01*
X027409Y007965D01*
X027484Y007890D01*
X027484Y007590D01*
X027409Y007515D01*
X027259Y007515D01*
X027184Y007590D01*
X027184Y007890D01*
X027334Y007665D02*
X027484Y007515D01*
X027645Y007515D02*
X027945Y007515D01*
X027795Y007515D02*
X027795Y007965D01*
X027645Y007815D01*
X035135Y007705D02*
X035285Y007705D01*
X035210Y007705D02*
X035210Y008155D01*
X035135Y008155D02*
X035285Y008155D01*
X035442Y008080D02*
X035442Y007780D01*
X035517Y007705D01*
X035667Y007705D01*
X035742Y007780D01*
X035902Y007780D02*
X035977Y007705D01*
X036128Y007705D01*
X036203Y007780D01*
X036203Y007930D01*
X036128Y008005D01*
X036052Y008005D01*
X035902Y007930D01*
X035902Y008155D01*
X036203Y008155D01*
X035742Y008080D02*
X035667Y008155D01*
X035517Y008155D01*
X035442Y008080D01*
X042235Y007675D02*
X042385Y007675D01*
X042310Y007675D02*
X042310Y007225D01*
X042235Y007225D02*
X042385Y007225D01*
X042542Y007300D02*
X042617Y007225D01*
X042767Y007225D01*
X042842Y007300D01*
X043002Y007225D02*
X043303Y007225D01*
X043152Y007225D02*
X043152Y007675D01*
X043002Y007525D01*
X042842Y007600D02*
X042767Y007675D01*
X042617Y007675D01*
X042542Y007600D01*
X042542Y007300D01*
X043463Y007225D02*
X043763Y007525D01*
X043763Y007600D01*
X043688Y007675D01*
X043538Y007675D01*
X043463Y007600D01*
X043463Y007225D02*
X043763Y007225D01*
X043778Y014355D02*
X043628Y014355D01*
X043553Y014430D01*
X043393Y014355D02*
X043092Y014355D01*
X043242Y014355D02*
X043242Y014805D01*
X043092Y014655D01*
X042932Y014730D02*
X042857Y014805D01*
X042707Y014805D01*
X042632Y014730D01*
X042632Y014430D01*
X042707Y014355D01*
X042857Y014355D01*
X042932Y014430D01*
X042475Y014355D02*
X042325Y014355D01*
X042400Y014355D02*
X042400Y014805D01*
X042325Y014805D02*
X042475Y014805D01*
X043553Y014730D02*
X043628Y014805D01*
X043778Y014805D01*
X043853Y014730D01*
X043853Y014655D01*
X043778Y014580D01*
X043853Y014505D01*
X043853Y014430D01*
X043778Y014355D01*
X043778Y014580D02*
X043703Y014580D01*
X036193Y015250D02*
X035892Y014950D01*
X035892Y014875D01*
X035732Y014950D02*
X035657Y014875D01*
X035507Y014875D01*
X035432Y014950D01*
X035432Y015250D01*
X035507Y015325D01*
X035657Y015325D01*
X035732Y015250D01*
X035892Y015325D02*
X036193Y015325D01*
X036193Y015250D01*
X035275Y015325D02*
X035125Y015325D01*
X035200Y015325D02*
X035200Y014875D01*
X035125Y014875D02*
X035275Y014875D01*
X041955Y021565D02*
X042105Y021565D01*
X042030Y021565D02*
X042030Y022015D01*
X041955Y022015D02*
X042105Y022015D01*
X042262Y021940D02*
X042262Y021640D01*
X042337Y021565D01*
X042487Y021565D01*
X042562Y021640D01*
X042722Y021565D02*
X043023Y021565D01*
X042872Y021565D02*
X042872Y022015D01*
X042722Y021865D01*
X042562Y021940D02*
X042487Y022015D01*
X042337Y022015D01*
X042262Y021940D01*
X043183Y021940D02*
X043183Y021640D01*
X043483Y021940D01*
X043483Y021640D01*
X043408Y021565D01*
X043258Y021565D01*
X043183Y021640D01*
X043183Y021940D02*
X043258Y022015D01*
X043408Y022015D01*
X043483Y021940D01*
X036223Y022090D02*
X036148Y022015D01*
X035997Y022015D01*
X035922Y022090D01*
X035762Y022090D02*
X035687Y022015D01*
X035537Y022015D01*
X035462Y022090D01*
X035462Y022390D01*
X035537Y022465D01*
X035687Y022465D01*
X035762Y022390D01*
X035922Y022390D02*
X035997Y022465D01*
X036148Y022465D01*
X036223Y022390D01*
X036223Y022315D01*
X036148Y022240D01*
X036223Y022165D01*
X036223Y022090D01*
X036148Y022240D02*
X036072Y022240D01*
X035305Y022015D02*
X035155Y022015D01*
X035230Y022015D02*
X035230Y022465D01*
X035155Y022465D02*
X035305Y022465D01*
X041785Y029695D02*
X041935Y029695D01*
X041860Y029695D02*
X041860Y030145D01*
X041785Y030145D02*
X041935Y030145D01*
X042092Y030070D02*
X042092Y029770D01*
X042167Y029695D01*
X042317Y029695D01*
X042392Y029770D01*
X042552Y029695D02*
X042853Y029695D01*
X042702Y029695D02*
X042702Y030145D01*
X042552Y029995D01*
X042392Y030070D02*
X042317Y030145D01*
X042167Y030145D01*
X042092Y030070D01*
X043013Y029995D02*
X043163Y030145D01*
X043163Y029695D01*
X043013Y029695D02*
X043313Y029695D01*
X036243Y030430D02*
X035942Y030430D01*
X036168Y030655D01*
X036168Y030205D01*
X035782Y030280D02*
X035707Y030205D01*
X035557Y030205D01*
X035482Y030280D01*
X035482Y030580D01*
X035557Y030655D01*
X035707Y030655D01*
X035782Y030580D01*
X035325Y030655D02*
X035175Y030655D01*
X035250Y030655D02*
X035250Y030205D01*
X035175Y030205D02*
X035325Y030205D01*
X018205Y025190D02*
X018205Y025115D01*
X017905Y024815D01*
X018205Y024815D01*
X018205Y025190D02*
X018130Y025265D01*
X017980Y025265D01*
X017905Y025190D01*
X017744Y025190D02*
X017669Y025265D01*
X017519Y025265D01*
X017444Y025190D01*
X017444Y024890D01*
X017519Y024815D01*
X017669Y024815D01*
X017744Y024890D01*
X017287Y024815D02*
X017137Y024815D01*
X017212Y024815D02*
X017212Y025265D01*
X017137Y025265D02*
X017287Y025265D01*
X012005Y025390D02*
X012005Y025690D01*
X011930Y025765D01*
X011780Y025765D01*
X011705Y025690D01*
X011705Y025615D01*
X011780Y025540D01*
X012005Y025540D01*
X012005Y025390D02*
X011930Y025315D01*
X011780Y025315D01*
X011705Y025390D01*
X011544Y025390D02*
X011469Y025315D01*
X011319Y025315D01*
X011244Y025390D01*
X011244Y025690D01*
X011319Y025765D01*
X011469Y025765D01*
X011544Y025690D01*
X011087Y025765D02*
X010937Y025765D01*
X011012Y025765D02*
X011012Y025315D01*
X010937Y025315D02*
X011087Y025315D01*
D16*
X012235Y026240D03*
X012235Y026740D03*
X012235Y027240D03*
X012235Y027740D03*
X012235Y028240D03*
X012235Y028740D03*
X012235Y029240D03*
X012235Y029740D03*
X012235Y030240D03*
X009245Y030240D03*
X009245Y029740D03*
X009245Y029240D03*
X009245Y028740D03*
X009245Y028240D03*
X009245Y027740D03*
X009245Y027240D03*
X009245Y026740D03*
X009245Y026240D03*
X009175Y021760D03*
X009175Y021260D03*
X009175Y020760D03*
X009175Y020260D03*
X009175Y019760D03*
X009175Y019260D03*
X009175Y018760D03*
X009175Y018260D03*
X009175Y017760D03*
X012165Y017760D03*
X012165Y018260D03*
X012165Y018760D03*
X012165Y019260D03*
X012165Y019760D03*
X012165Y020260D03*
X012165Y020760D03*
X012165Y021260D03*
X012165Y021760D03*
X041835Y021090D03*
X041835Y020590D03*
X041835Y020090D03*
X041835Y019590D03*
X041835Y019090D03*
X041835Y018590D03*
X041835Y018090D03*
X041835Y017590D03*
X041835Y017090D03*
X044825Y017090D03*
X044825Y017590D03*
X044825Y018090D03*
X044825Y018590D03*
X044825Y019090D03*
X044825Y019590D03*
X044825Y020090D03*
X044825Y020590D03*
X044825Y021090D03*
X044655Y025220D03*
X044655Y025720D03*
X044655Y026220D03*
X044655Y026720D03*
X044655Y027220D03*
X044655Y027720D03*
X044655Y028220D03*
X044655Y028720D03*
X044655Y029220D03*
X041665Y029220D03*
X041665Y028720D03*
X041665Y028220D03*
X041665Y027720D03*
X041665Y027220D03*
X041665Y026720D03*
X041665Y026220D03*
X041665Y025720D03*
X041665Y025220D03*
X042205Y013880D03*
X042205Y013380D03*
X042205Y012880D03*
X042205Y012380D03*
X042205Y011880D03*
X042205Y011380D03*
X042205Y010880D03*
X042205Y010380D03*
X042205Y009880D03*
X045195Y009880D03*
X045195Y010380D03*
X045195Y010880D03*
X045195Y011380D03*
X045195Y011880D03*
X045195Y012380D03*
X045195Y012880D03*
X045195Y013380D03*
X045195Y013880D03*
X045105Y006750D03*
X045105Y006250D03*
X045105Y005750D03*
X045105Y005250D03*
X045105Y004750D03*
X045105Y004250D03*
X045105Y003750D03*
X045105Y003250D03*
X045105Y002750D03*
X042115Y002750D03*
X042115Y003250D03*
X042115Y003750D03*
X042115Y004250D03*
X042115Y004750D03*
X042115Y005250D03*
X042115Y005750D03*
X042115Y006250D03*
X042115Y006750D03*
D17*
X027347Y010370D02*
X027040Y010370D01*
X027270Y010600D01*
X027270Y010140D01*
X026886Y010217D02*
X026809Y010140D01*
X026656Y010140D01*
X026579Y010217D01*
X026579Y010524D01*
X026656Y010600D01*
X026809Y010600D01*
X026886Y010524D01*
X025177Y011717D02*
X025101Y011640D01*
X024947Y011640D01*
X024870Y011717D01*
X024717Y011717D02*
X024640Y011640D01*
X024487Y011640D01*
X024410Y011717D01*
X024410Y012024D01*
X024487Y012100D01*
X024640Y012100D01*
X024717Y012024D01*
X024870Y012024D02*
X024947Y012100D01*
X025101Y012100D01*
X025177Y012024D01*
X025177Y011947D01*
X025101Y011870D01*
X025177Y011793D01*
X025177Y011717D01*
X025101Y011870D02*
X025024Y011870D01*
X015517Y007050D02*
X015210Y007050D01*
X015210Y006820D01*
X015363Y006897D01*
X015440Y006897D01*
X015517Y006820D01*
X015517Y006667D01*
X015440Y006590D01*
X015286Y006590D01*
X015210Y006667D01*
X015056Y006667D02*
X014979Y006590D01*
X014826Y006590D01*
X014749Y006667D01*
X014749Y006974D01*
X014826Y007050D01*
X014979Y007050D01*
X015056Y006974D01*
X014467Y007274D02*
X014160Y006967D01*
X014160Y006890D01*
X014007Y006890D02*
X013853Y007043D01*
X013930Y007043D02*
X013700Y007043D01*
X013700Y006890D02*
X013700Y007350D01*
X013930Y007350D01*
X014007Y007274D01*
X014007Y007120D01*
X013930Y007043D01*
X014160Y007350D02*
X014467Y007350D01*
X014467Y007274D01*
X015926Y005877D02*
X016003Y005877D01*
X016080Y005800D01*
X016080Y005646D01*
X016003Y005570D01*
X015926Y005570D01*
X015850Y005646D01*
X015850Y005800D01*
X015926Y005877D01*
X016080Y005800D02*
X016157Y005877D01*
X016233Y005877D01*
X016310Y005800D01*
X016310Y005646D01*
X016233Y005570D01*
X016157Y005570D01*
X016080Y005646D01*
X016080Y005416D02*
X015926Y005416D01*
X015850Y005339D01*
X015850Y005109D01*
X016310Y005109D01*
X016157Y005109D02*
X016157Y005339D01*
X016080Y005416D01*
X016157Y005263D02*
X016310Y005416D01*
X016627Y004160D02*
X016550Y004084D01*
X016550Y003777D01*
X016627Y003700D01*
X016780Y003700D01*
X016857Y003777D01*
X017010Y003777D02*
X017087Y003700D01*
X017241Y003700D01*
X017317Y003777D01*
X017317Y003853D01*
X017241Y003930D01*
X017010Y003930D01*
X017010Y003777D01*
X017010Y003930D02*
X017164Y004084D01*
X017317Y004160D01*
X016857Y004084D02*
X016780Y004160D01*
X016627Y004160D01*
X019007Y004184D02*
X019161Y004184D01*
X019084Y004184D02*
X019084Y003724D01*
X019007Y003724D02*
X019161Y003724D01*
X019314Y003801D02*
X019391Y003724D01*
X019544Y003724D01*
X019621Y003801D01*
X019775Y003724D02*
X020082Y003724D01*
X019928Y003724D02*
X019928Y004184D01*
X019775Y004031D01*
X019621Y004108D02*
X019544Y004184D01*
X019391Y004184D01*
X019314Y004108D01*
X019314Y003801D01*
X020235Y003954D02*
X020542Y003954D01*
X020465Y003724D02*
X020465Y004184D01*
X020235Y003954D01*
X005637Y010360D02*
X005330Y010360D01*
X005483Y010360D02*
X005483Y010820D01*
X005330Y010667D01*
X005176Y010744D02*
X005176Y010590D01*
X005099Y010513D01*
X004869Y010513D01*
X004869Y010360D02*
X004869Y010820D01*
X005099Y010820D01*
X005176Y010744D01*
X005023Y010513D02*
X005176Y010360D01*
X004140Y005277D02*
X004140Y004970D01*
X004140Y004817D02*
X004140Y004510D01*
X003680Y004510D01*
X003833Y004970D02*
X003680Y005124D01*
X004140Y005124D01*
X005000Y002407D02*
X005000Y002100D01*
X005000Y002253D02*
X004540Y002253D01*
X004693Y002100D01*
X004616Y001946D02*
X004540Y001869D01*
X004540Y001716D01*
X004616Y001639D01*
X004923Y001639D01*
X005000Y001716D01*
X005000Y001869D01*
X004923Y001946D01*
D18*
X020280Y004706D03*
M02*
