%
M48
M72
T01C0.0236
T02C0.0276
T03C0.0280
T04C0.0354
T05C0.0394
T06C0.0520
T07C0.0906
%
T01
X9990Y5890
X20130Y3080
T02
X22010Y3180
X28860Y6980
X32830Y10820
X39220Y8750
X47060Y7330
X48390Y7050
X39960Y3380
X19790Y12640
X19150Y14540
X17460Y14870
X11080Y15090
X21390Y21550
X24890Y19880
X27440Y23480
X20330Y25400
X13540Y22940
X5850Y29240
X5870Y30160
X32490Y16760
X33590Y15240
X38490Y15920
X40020Y15850
X39160Y24330
X36600Y24350
X13280Y7430
T03
X2260Y1960
X2260Y2660
T04
X8332Y3420
X9316Y3420
X10104Y3420
X11088Y3420
T05
X7580Y7490
X6580Y7490
X5580Y7490
X4580Y7490
X3580Y7490
X3580Y8490
X4580Y8490
X5580Y8490
X6580Y8490
X7580Y8490
X4070Y15710
X3070Y15710
X3070Y16710
X4070Y16710
X4070Y17710
X3070Y17710
X3070Y18710
X4070Y18710
X4070Y19710
X3070Y19710
X3090Y25020
X4090Y25020
X4090Y26020
X3090Y26020
X3090Y27020
X4090Y27020
X4090Y28020
X3090Y28020
X3090Y29020
X4090Y29020
X53120Y27280
X54120Y27280
X54120Y26280
X53120Y26280
X53120Y25280
X54120Y25280
X54120Y24280
X53120Y24280
X53120Y23280
X54120Y23280
X54190Y17880
X53190Y17880
X53190Y16880
X54190Y16880
X54190Y15880
X53190Y15880
X53190Y14880
X54190Y14880
X54190Y13880
X53190Y13880
X53180Y8270
X54180Y8270
X54180Y7270
X53180Y7270
X53180Y6270
X54180Y6270
X54180Y5270
X53180Y5270
X53180Y4270
X54180Y4270
T06
X28360Y3670
X26390Y3670
X24420Y3670
T07
X12297Y4487
X7123Y4487
M30
