G75*
G70*
%OFA0B0*%
%FSLAX24Y24*%
%IPPOS*%
%LPD*%
%AMOC8*
5,1,8,0,0,1.08239X$1,22.5*
%
%ADD10C,0.0000*%
%ADD11C,0.0080*%
%ADD12OC8,0.0594*%
%ADD13OC8,0.0480*%
%ADD14C,0.0480*%
%ADD15C,0.1306*%
%ADD16C,0.0554*%
%ADD17C,0.0780*%
%ADD18C,0.0356*%
%ADD19C,0.0160*%
%ADD20C,0.0500*%
D10*
X000250Y000210D02*
X000260Y039250D01*
X058872Y039280D01*
X058872Y000320D01*
X000250Y000210D01*
D11*
X020155Y005167D02*
X020461Y004860D01*
X020768Y005167D01*
X020768Y005781D01*
X021075Y005627D02*
X021229Y005781D01*
X021536Y005781D01*
X021689Y005627D01*
X021075Y005627D02*
X021075Y005474D01*
X021689Y004860D01*
X021075Y004860D01*
X020155Y005167D02*
X020155Y005781D01*
X021996Y004860D02*
X022610Y004860D01*
X022303Y004860D02*
X022303Y005781D01*
X022610Y005474D01*
X024225Y005307D02*
X024225Y004693D01*
X024378Y004540D01*
X024838Y004540D01*
X024838Y005461D01*
X024378Y005461D01*
X024225Y005307D01*
X025145Y005461D02*
X025145Y004540D01*
X025759Y005461D01*
X025759Y004540D01*
X026066Y004693D02*
X026066Y005000D01*
X026373Y005000D01*
X026066Y004693D02*
X026220Y004540D01*
X026527Y004540D01*
X026680Y004693D01*
X026680Y005307D01*
X026527Y005461D01*
X026220Y005461D01*
X026066Y005307D01*
X028245Y005027D02*
X028245Y005641D01*
X028859Y005641D02*
X028859Y005027D01*
X028552Y004720D01*
X028245Y005027D01*
X029166Y005180D02*
X029166Y004873D01*
X029320Y004720D01*
X029627Y004720D01*
X029780Y004873D01*
X029780Y005180D02*
X029473Y005334D01*
X029320Y005334D01*
X029166Y005180D01*
X029166Y005641D02*
X029780Y005641D01*
X029780Y005180D01*
D12*
X013220Y011410D03*
X012220Y011410D03*
X011220Y011410D03*
X010220Y011410D03*
X009220Y011410D03*
X009220Y012410D03*
X010220Y012410D03*
X011220Y012410D03*
X012220Y012410D03*
X013220Y012410D03*
X003000Y017860D03*
X003000Y018860D03*
X002000Y018860D03*
X002000Y017860D03*
X002000Y019860D03*
X002000Y020860D03*
X003000Y020860D03*
X003000Y019860D03*
X003000Y021860D03*
X003000Y022860D03*
X002000Y022860D03*
X002000Y021860D03*
X002000Y023860D03*
X002000Y024860D03*
X003000Y024860D03*
X003000Y023860D03*
X003020Y029570D03*
X002020Y029570D03*
X002020Y030570D03*
X002020Y031570D03*
X003020Y031570D03*
X003020Y030570D03*
X003020Y032570D03*
X003020Y033570D03*
X002020Y033570D03*
X002020Y032570D03*
X002020Y034570D03*
X002020Y035570D03*
X003020Y035570D03*
X003020Y034570D03*
X003020Y036570D03*
X002020Y036570D03*
X050320Y025290D03*
X050320Y024290D03*
X051320Y024290D03*
X051320Y025290D03*
X051320Y023290D03*
X051320Y022290D03*
X050320Y022290D03*
X050320Y023290D03*
X050320Y021290D03*
X050320Y020290D03*
X051320Y020290D03*
X051320Y021290D03*
X051320Y019290D03*
X051320Y018290D03*
X050320Y018290D03*
X050320Y019290D03*
X055470Y018900D03*
X055470Y017900D03*
X056470Y017900D03*
X056470Y018900D03*
X056470Y019900D03*
X056470Y020900D03*
X055470Y020900D03*
X055470Y019900D03*
X055470Y021900D03*
X056470Y021900D03*
X056470Y016900D03*
X056470Y015900D03*
X055470Y015900D03*
X055470Y016900D03*
X055470Y014900D03*
X056470Y014900D03*
X056450Y010290D03*
X055450Y010290D03*
X055450Y009290D03*
X056450Y009290D03*
X056450Y008290D03*
X056450Y007290D03*
X055450Y007290D03*
X055450Y008290D03*
X055450Y006290D03*
X055450Y005290D03*
X056450Y005290D03*
X056450Y006290D03*
X056450Y004290D03*
X056450Y003290D03*
X055450Y003290D03*
X055450Y004290D03*
X051330Y029760D03*
X050330Y029760D03*
X050330Y030760D03*
X051330Y030760D03*
X051330Y031760D03*
X050330Y031760D03*
X050330Y032760D03*
X051330Y032760D03*
X051330Y033760D03*
X050330Y033760D03*
X050330Y034760D03*
X051330Y034760D03*
X051330Y035760D03*
X050330Y035760D03*
X050330Y036760D03*
X051330Y036760D03*
D13*
X007900Y005880D03*
D14*
X007900Y006580D03*
D15*
X012763Y008407D03*
X017937Y008407D03*
D16*
X016728Y007340D03*
X015744Y007340D03*
X014956Y007340D03*
X013972Y007340D03*
D17*
X023550Y003520D02*
X023550Y002740D01*
X025520Y002740D02*
X025520Y003520D01*
X027490Y003520D02*
X027490Y002740D01*
D18*
X030220Y001980D03*
X030740Y002460D03*
X031260Y002930D03*
X031760Y003430D03*
X032260Y004000D03*
X032810Y004430D03*
X033350Y004940D03*
X030210Y007410D03*
X030740Y007910D03*
X031260Y008340D03*
X031760Y008910D03*
X032260Y009450D03*
X032810Y009990D03*
X033360Y010410D03*
X030100Y012970D03*
X030780Y013470D03*
X031240Y013970D03*
X032955Y016355D03*
X033505Y016415D03*
X032480Y016700D03*
X032150Y017170D03*
X029290Y017120D03*
X028270Y018810D03*
X028410Y019860D03*
X025370Y019180D03*
X022380Y020610D03*
X021680Y021010D03*
X021630Y018730D03*
X021720Y017880D03*
X021820Y017360D03*
X021720Y016900D03*
X019200Y016050D03*
X019210Y015330D03*
X019690Y014290D03*
X013730Y016330D03*
X008450Y013810D03*
X012600Y020600D03*
X013600Y021400D03*
X013240Y021950D03*
X014070Y021940D03*
X014500Y021420D03*
X014850Y021990D03*
X015260Y021450D03*
X015610Y022050D03*
X016240Y021530D03*
X017030Y022070D03*
X018170Y023080D03*
X019040Y023750D03*
X020710Y028140D03*
X021960Y028400D03*
X021770Y029720D03*
X020820Y030440D03*
X020730Y031110D03*
X019930Y031510D03*
X018980Y031900D03*
X019590Y030770D03*
X019900Y030100D03*
X025640Y027180D03*
X028540Y027510D03*
X028595Y026985D03*
X028570Y028140D03*
X031860Y029420D03*
X033470Y028920D03*
X029920Y025000D03*
X029905Y024395D03*
X029970Y023730D03*
X029915Y023185D03*
X032850Y023270D03*
X033400Y023200D03*
X033470Y023850D03*
X032820Y024880D03*
X033090Y022520D03*
X033110Y021830D03*
X033140Y021180D03*
X033220Y020470D03*
X033100Y019900D03*
X039020Y018570D03*
X040570Y019170D03*
X041500Y018210D03*
X039460Y012470D03*
X040120Y006960D03*
X040580Y001410D03*
X028460Y008640D03*
X029240Y010050D03*
X040130Y024850D03*
X041530Y030860D03*
X039660Y032340D03*
X019470Y038710D03*
X016960Y038350D03*
X012630Y032100D03*
X001020Y027040D03*
X005390Y022150D03*
D19*
X005390Y025900D01*
X004040Y027250D01*
X001230Y027250D01*
X001020Y027040D01*
X000787Y026809D02*
X000537Y026809D01*
X000537Y026967D02*
X000695Y026967D01*
X000692Y026975D02*
X000742Y026854D01*
X000834Y026762D01*
X000955Y026712D01*
X001085Y026712D01*
X001206Y026762D01*
X001298Y026854D01*
X001348Y026975D01*
X001348Y027020D01*
X003945Y027020D01*
X005160Y025805D01*
X005160Y022384D01*
X005112Y022336D01*
X005062Y022215D01*
X005062Y022085D01*
X005112Y021964D01*
X005204Y021872D01*
X005325Y021822D01*
X005455Y021822D01*
X005576Y021872D01*
X005668Y021964D01*
X005718Y022085D01*
X005718Y022215D01*
X005668Y022336D01*
X005620Y022384D01*
X005620Y025995D01*
X004270Y027345D01*
X004135Y027480D01*
X001135Y027480D01*
X001023Y027368D01*
X000955Y027368D01*
X000834Y027318D01*
X000742Y027226D01*
X000692Y027105D01*
X000692Y026975D01*
X000700Y027126D02*
X000537Y027126D01*
X000537Y027284D02*
X000800Y027284D01*
X000537Y027443D02*
X001097Y027443D01*
X001345Y026967D02*
X003998Y026967D01*
X004156Y026809D02*
X001253Y026809D01*
X000537Y026650D02*
X004315Y026650D01*
X004473Y026492D02*
X000537Y026492D01*
X000537Y026333D02*
X004632Y026333D01*
X004790Y026175D02*
X000537Y026175D01*
X000537Y026016D02*
X004949Y026016D01*
X005107Y025858D02*
X000537Y025858D01*
X000537Y025699D02*
X005160Y025699D01*
X005160Y025541D02*
X000536Y025541D01*
X000536Y025382D02*
X005160Y025382D01*
X005160Y025224D02*
X003268Y025224D01*
X003185Y025307D02*
X002815Y025307D01*
X002553Y025045D01*
X002553Y024675D01*
X002815Y024413D01*
X003185Y024413D01*
X003447Y024675D01*
X003447Y025045D01*
X003185Y025307D01*
X003427Y025065D02*
X005160Y025065D01*
X005160Y024907D02*
X003447Y024907D01*
X003447Y024748D02*
X005160Y024748D01*
X005160Y024590D02*
X003361Y024590D01*
X003203Y024431D02*
X005160Y024431D01*
X005160Y024273D02*
X003219Y024273D01*
X003185Y024307D02*
X002815Y024307D01*
X002553Y024045D01*
X002553Y023675D01*
X002815Y023413D01*
X003185Y023413D01*
X003447Y023675D01*
X003447Y024045D01*
X003185Y024307D01*
X003378Y024114D02*
X005160Y024114D01*
X005160Y023956D02*
X003447Y023956D01*
X003447Y023797D02*
X005160Y023797D01*
X005160Y023639D02*
X003410Y023639D01*
X003252Y023480D02*
X005160Y023480D01*
X005160Y023322D02*
X000536Y023322D01*
X000536Y023480D02*
X001748Y023480D01*
X001815Y023413D02*
X001553Y023675D01*
X001553Y024045D01*
X001815Y024307D01*
X002185Y024307D01*
X002447Y024045D01*
X002447Y023675D01*
X002185Y023413D01*
X001815Y023413D01*
X001815Y023307D02*
X001553Y023045D01*
X001553Y022675D01*
X001815Y022413D01*
X002185Y022413D01*
X002447Y022675D01*
X002447Y023045D01*
X002185Y023307D01*
X001815Y023307D01*
X001671Y023163D02*
X000536Y023163D01*
X000536Y023005D02*
X001553Y023005D01*
X001553Y022846D02*
X000536Y022846D01*
X000536Y022688D02*
X001553Y022688D01*
X001699Y022529D02*
X000536Y022529D01*
X000536Y022371D02*
X005147Y022371D01*
X005160Y022529D02*
X003301Y022529D01*
X003185Y022413D02*
X003447Y022675D01*
X003447Y023045D01*
X003185Y023307D01*
X002815Y023307D01*
X002553Y023045D01*
X002553Y022675D01*
X002815Y022413D01*
X003185Y022413D01*
X003185Y022307D02*
X002815Y022307D01*
X002553Y022045D01*
X002553Y021675D01*
X002815Y021413D01*
X003185Y021413D01*
X003447Y021675D01*
X003447Y022045D01*
X003185Y022307D01*
X003280Y022212D02*
X005062Y022212D01*
X005075Y022054D02*
X003438Y022054D01*
X003447Y021895D02*
X005181Y021895D01*
X005599Y021895D02*
X012912Y021895D01*
X012912Y021885D02*
X012962Y021764D01*
X013054Y021672D01*
X013175Y021622D01*
X013305Y021622D01*
X013370Y021649D01*
X013370Y021634D01*
X013322Y021586D01*
X013272Y021465D01*
X013272Y021335D01*
X013322Y021214D01*
X013414Y021122D01*
X013535Y021072D01*
X013665Y021072D01*
X013786Y021122D01*
X013878Y021214D01*
X013928Y021335D01*
X013928Y021465D01*
X013878Y021586D01*
X013830Y021634D01*
X013830Y021716D01*
X013884Y021662D01*
X014005Y021612D01*
X014135Y021612D01*
X014256Y021662D01*
X014270Y021676D01*
X014270Y021654D01*
X014222Y021606D01*
X014172Y021485D01*
X014172Y021355D01*
X014222Y021234D01*
X014314Y021142D01*
X014435Y021092D01*
X014565Y021092D01*
X014686Y021142D01*
X014778Y021234D01*
X014828Y021355D01*
X014828Y021485D01*
X014778Y021606D01*
X014730Y021654D01*
X014730Y021685D01*
X014785Y021662D01*
X014915Y021662D01*
X015030Y021709D01*
X015030Y021684D01*
X014982Y021636D01*
X014932Y021515D01*
X014932Y021385D01*
X014982Y021264D01*
X015074Y021172D01*
X015195Y021122D01*
X015325Y021122D01*
X015446Y021172D01*
X015538Y021264D01*
X015588Y021385D01*
X015588Y021515D01*
X015538Y021636D01*
X015490Y021684D01*
X015490Y021745D01*
X015545Y021722D01*
X015675Y021722D01*
X015796Y021772D01*
X015888Y021864D01*
X015938Y021985D01*
X015938Y022115D01*
X015888Y022236D01*
X015840Y022284D01*
X015840Y029295D01*
X016035Y029490D01*
X021536Y029490D01*
X021584Y029442D01*
X021705Y029392D01*
X021835Y029392D01*
X021956Y029442D01*
X022048Y029534D01*
X022098Y029655D01*
X022098Y029785D01*
X022048Y029906D01*
X021956Y029998D01*
X021835Y030048D01*
X021705Y030048D01*
X021584Y029998D01*
X021536Y029950D01*
X020193Y029950D01*
X020228Y030035D01*
X020228Y030165D01*
X020210Y030210D01*
X020586Y030210D01*
X020634Y030162D01*
X020755Y030112D01*
X020885Y030112D01*
X021006Y030162D01*
X021098Y030254D01*
X021148Y030375D01*
X021148Y030505D01*
X021098Y030626D01*
X021006Y030718D01*
X020885Y030768D01*
X020755Y030768D01*
X020634Y030718D01*
X020586Y030670D01*
X019904Y030670D01*
X019918Y030705D01*
X019918Y030835D01*
X019895Y030890D01*
X020486Y030890D01*
X020544Y030832D01*
X020665Y030782D01*
X020795Y030782D01*
X020916Y030832D01*
X021008Y030924D01*
X021058Y031045D01*
X021058Y031175D01*
X021008Y031296D01*
X020916Y031388D01*
X020795Y031438D01*
X020665Y031438D01*
X020544Y031388D01*
X020506Y031350D01*
X020219Y031350D01*
X020258Y031445D01*
X020258Y031575D01*
X020208Y031696D01*
X020116Y031788D01*
X019995Y031838D01*
X019865Y031838D01*
X019744Y031788D01*
X019686Y031730D01*
X019265Y031730D01*
X019308Y031835D01*
X019308Y031965D01*
X019258Y032086D01*
X019166Y032178D01*
X019045Y032228D01*
X018915Y032228D01*
X018794Y032178D01*
X018776Y032160D01*
X015304Y032160D01*
X015212Y032163D01*
X015209Y032160D01*
X015205Y032160D01*
X015140Y032095D01*
X013149Y030230D01*
X013145Y030230D01*
X013080Y030165D01*
X013013Y030103D01*
X013013Y030098D01*
X013010Y030095D01*
X013010Y030004D01*
X013007Y029912D01*
X013010Y029909D01*
X013010Y022184D01*
X012962Y022136D01*
X012912Y022015D01*
X012912Y021885D01*
X012989Y021737D02*
X003447Y021737D01*
X003350Y021578D02*
X013319Y021578D01*
X013272Y021420D02*
X003191Y021420D01*
X003185Y021307D02*
X002815Y021307D01*
X002553Y021045D01*
X002553Y020675D01*
X002815Y020413D01*
X003185Y020413D01*
X003447Y020675D01*
X003447Y021045D01*
X003185Y021307D01*
X003231Y021261D02*
X013302Y021261D01*
X013461Y021103D02*
X003389Y021103D01*
X003447Y020944D02*
X019081Y020944D01*
X019239Y020786D02*
X018640Y020786D01*
X018595Y020830D02*
X012834Y020830D01*
X012786Y020878D01*
X012665Y020928D01*
X012535Y020928D01*
X012414Y020878D01*
X012322Y020786D01*
X012272Y020665D01*
X012272Y020535D01*
X012322Y020414D01*
X012414Y020322D01*
X012535Y020272D01*
X012665Y020272D01*
X012786Y020322D01*
X012834Y020370D01*
X018405Y020370D01*
X019000Y019775D01*
X019135Y019640D01*
X028166Y019640D01*
X028224Y019582D01*
X028345Y019532D01*
X028475Y019532D01*
X028596Y019582D01*
X028644Y019630D01*
X028955Y019630D01*
X030190Y018395D01*
X030325Y018260D01*
X038911Y018260D01*
X038955Y018242D01*
X039085Y018242D01*
X039206Y018292D01*
X039298Y018384D01*
X039348Y018505D01*
X039348Y018635D01*
X039298Y018756D01*
X039206Y018848D01*
X039085Y018898D01*
X038955Y018898D01*
X038834Y018848D01*
X038742Y018756D01*
X038727Y018720D01*
X030515Y018720D01*
X029145Y020090D01*
X028644Y020090D01*
X028596Y020138D01*
X028475Y020188D01*
X028345Y020188D01*
X028224Y020138D01*
X028186Y020100D01*
X019325Y020100D01*
X018595Y020830D01*
X018500Y020600D02*
X019230Y019870D01*
X028400Y019870D01*
X028410Y019860D01*
X029050Y019860D01*
X030420Y018490D01*
X038940Y018490D01*
X039020Y018570D01*
X039348Y018567D02*
X039430Y018567D01*
X039430Y018725D02*
X039311Y018725D01*
X039430Y018884D02*
X039120Y018884D01*
X038920Y018884D02*
X030352Y018884D01*
X030193Y019042D02*
X039430Y019042D01*
X039430Y019201D02*
X030035Y019201D01*
X029876Y019359D02*
X039430Y019359D01*
X039430Y019518D02*
X029718Y019518D01*
X029559Y019676D02*
X032860Y019676D01*
X032822Y019714D02*
X032914Y019622D01*
X033035Y019572D01*
X033165Y019572D01*
X033286Y019622D01*
X033378Y019714D01*
X033428Y019835D01*
X033428Y019965D01*
X033378Y020086D01*
X033311Y020153D01*
X033406Y020192D01*
X033498Y020284D01*
X033548Y020405D01*
X033548Y020535D01*
X033498Y020656D01*
X033406Y020748D01*
X033285Y020798D01*
X033227Y020798D01*
X033173Y020852D01*
X033205Y020852D01*
X033326Y020902D01*
X033418Y020994D01*
X033468Y021115D01*
X033468Y021245D01*
X033418Y021366D01*
X033326Y021458D01*
X033205Y021508D01*
X033190Y021508D01*
X033296Y021552D01*
X033388Y021644D01*
X033438Y021765D01*
X033438Y021895D01*
X039430Y021895D01*
X039430Y021737D02*
X033426Y021737D01*
X033438Y021895D02*
X033388Y022016D01*
X033296Y022108D01*
X033175Y022158D01*
X033087Y022158D01*
X033053Y022192D01*
X033155Y022192D01*
X033276Y022242D01*
X033368Y022334D01*
X033418Y022455D01*
X033418Y022585D01*
X033368Y022706D01*
X033276Y022798D01*
X033155Y022848D01*
X033057Y022848D01*
X032949Y022956D01*
X033036Y022992D01*
X033103Y023059D01*
X033122Y023014D01*
X033214Y022922D01*
X033335Y022872D01*
X033465Y022872D01*
X033586Y022922D01*
X033678Y023014D01*
X033728Y023135D01*
X033728Y023265D01*
X033678Y023386D01*
X033586Y023478D01*
X033537Y023498D01*
X033513Y023522D01*
X033535Y023522D01*
X033656Y023572D01*
X033748Y023664D01*
X033798Y023785D01*
X033798Y023915D01*
X033748Y024036D01*
X033700Y024084D01*
X033700Y028686D01*
X033748Y028734D01*
X033798Y028855D01*
X033798Y028985D01*
X033748Y029106D01*
X033656Y029198D01*
X033535Y029248D01*
X033405Y029248D01*
X033284Y029198D01*
X033192Y029106D01*
X033142Y028985D01*
X033142Y028855D01*
X033192Y028734D01*
X033240Y028686D01*
X033240Y024084D01*
X033192Y024036D01*
X033142Y023915D01*
X033142Y023893D01*
X028898Y028137D01*
X028898Y028205D01*
X028848Y028326D01*
X028756Y028418D01*
X028635Y028468D01*
X028505Y028468D01*
X028384Y028418D01*
X028292Y028326D01*
X028242Y028205D01*
X028242Y028075D01*
X028292Y027954D01*
X028384Y027862D01*
X028458Y027831D01*
X028354Y027788D01*
X028262Y027696D01*
X028212Y027575D01*
X028212Y027445D01*
X028262Y027324D01*
X028354Y027232D01*
X028371Y027225D01*
X028317Y027171D01*
X028267Y027050D01*
X028267Y026920D01*
X028317Y026799D01*
X028409Y026707D01*
X028530Y026657D01*
X028598Y026657D01*
X029927Y025328D01*
X029855Y025328D01*
X029734Y025278D01*
X029642Y025186D01*
X029592Y025065D01*
X016470Y025065D01*
X016470Y024907D02*
X029604Y024907D01*
X029592Y024935D02*
X029642Y024814D01*
X029734Y024722D01*
X029785Y024701D01*
X029719Y024673D01*
X029627Y024581D01*
X029577Y024460D01*
X029577Y024330D01*
X029627Y024209D01*
X029719Y024117D01*
X029840Y024067D01*
X029908Y024067D01*
X029917Y024058D01*
X029905Y024058D01*
X029784Y024008D01*
X029692Y023916D01*
X029642Y023795D01*
X029642Y023665D01*
X029692Y023544D01*
X029760Y023476D01*
X029729Y023463D01*
X029637Y023371D01*
X029587Y023250D01*
X029587Y023120D01*
X029637Y022999D01*
X029729Y022907D01*
X029850Y022857D01*
X029918Y022857D01*
X032783Y019992D01*
X032772Y019965D01*
X032772Y019835D01*
X032822Y019714D01*
X032772Y019835D02*
X029401Y019835D01*
X029242Y019993D02*
X032782Y019993D01*
X032623Y020152D02*
X028564Y020152D01*
X028256Y020152D02*
X019274Y020152D01*
X019115Y020310D02*
X022247Y020310D01*
X022194Y020332D02*
X022315Y020282D01*
X022445Y020282D01*
X022566Y020332D01*
X022658Y020424D01*
X022708Y020545D01*
X022708Y020675D01*
X022658Y020796D01*
X022566Y020888D01*
X022445Y020938D01*
X022315Y020938D01*
X022194Y020888D01*
X022146Y020840D01*
X021965Y020840D01*
X022008Y020945D01*
X022008Y021075D01*
X021958Y021196D01*
X021866Y021288D01*
X021745Y021338D01*
X021677Y021338D01*
X019705Y023310D01*
X018404Y023310D01*
X018356Y023358D01*
X018235Y023408D01*
X018105Y023408D01*
X017984Y023358D01*
X017892Y023266D01*
X017842Y023145D01*
X017842Y023015D01*
X017892Y022894D01*
X017984Y022802D01*
X018105Y022752D01*
X018235Y022752D01*
X018356Y022802D01*
X018404Y022850D01*
X019515Y022850D01*
X021352Y021013D01*
X021352Y020945D01*
X021395Y020840D01*
X019835Y020840D01*
X018375Y022300D01*
X017264Y022300D01*
X017216Y022348D01*
X017095Y022398D01*
X016965Y022398D01*
X016844Y022348D01*
X016752Y022256D01*
X016702Y022135D01*
X016702Y022005D01*
X016752Y021884D01*
X016844Y021792D01*
X016965Y021742D01*
X017095Y021742D01*
X017216Y021792D01*
X017264Y021840D01*
X018185Y021840D01*
X019510Y020515D01*
X019645Y020380D01*
X022146Y020380D01*
X022194Y020332D01*
X022513Y020310D02*
X032465Y020310D01*
X032306Y020469D02*
X022677Y020469D01*
X022708Y020627D02*
X032148Y020627D01*
X031989Y020786D02*
X022662Y020786D01*
X022380Y020610D02*
X019740Y020610D01*
X018280Y022070D01*
X017030Y022070D01*
X016898Y022371D02*
X016470Y022371D01*
X016470Y022529D02*
X019836Y022529D01*
X019994Y022371D02*
X017162Y022371D01*
X016734Y022212D02*
X016470Y022212D01*
X016470Y022054D02*
X016702Y022054D01*
X016747Y021895D02*
X016470Y021895D01*
X016470Y021764D02*
X016470Y027525D01*
X017315Y028370D01*
X020155Y028370D01*
X020382Y028143D01*
X020382Y028075D01*
X020432Y027954D01*
X020524Y027862D01*
X020645Y027812D01*
X020775Y027812D01*
X020896Y027862D01*
X020988Y027954D01*
X021038Y028075D01*
X021038Y028205D01*
X020988Y028326D01*
X020896Y028418D01*
X020775Y028468D01*
X020707Y028468D01*
X020345Y028830D01*
X017125Y028830D01*
X016990Y028695D01*
X016010Y027715D01*
X016010Y021764D01*
X015962Y021716D01*
X015912Y021595D01*
X015912Y021465D01*
X015962Y021344D01*
X016054Y021252D01*
X016175Y021202D01*
X016305Y021202D01*
X016426Y021252D01*
X016518Y021344D01*
X016568Y021465D01*
X016568Y021595D01*
X016518Y021716D01*
X016470Y021764D01*
X016497Y021737D02*
X018288Y021737D01*
X018447Y021578D02*
X016568Y021578D01*
X016549Y021420D02*
X018605Y021420D01*
X018764Y021261D02*
X016435Y021261D01*
X016240Y021530D02*
X016240Y027620D01*
X017220Y028600D01*
X020250Y028600D01*
X020710Y028140D01*
X020468Y027918D02*
X016863Y027918D01*
X016705Y027760D02*
X028326Y027760D01*
X028328Y027918D02*
X020952Y027918D01*
X021038Y028077D02*
X028242Y028077D01*
X028254Y028235D02*
X021026Y028235D01*
X020920Y028394D02*
X028360Y028394D01*
X028570Y028140D02*
X033400Y023310D01*
X033400Y023200D01*
X033705Y023322D02*
X039430Y023322D01*
X039430Y023480D02*
X033581Y023480D01*
X033723Y023639D02*
X039430Y023639D01*
X039430Y023797D02*
X033798Y023797D01*
X033781Y023956D02*
X039430Y023956D01*
X039430Y024114D02*
X033700Y024114D01*
X033700Y024273D02*
X039430Y024273D01*
X039430Y024431D02*
X033700Y024431D01*
X033700Y024590D02*
X039430Y024590D01*
X039430Y024748D02*
X033700Y024748D01*
X033700Y024907D02*
X039430Y024907D01*
X039430Y025065D02*
X033700Y025065D01*
X033700Y025224D02*
X039430Y025224D01*
X039430Y025382D02*
X033700Y025382D01*
X033700Y025541D02*
X039430Y025541D01*
X039430Y025699D02*
X033700Y025699D01*
X033700Y025858D02*
X039430Y025858D01*
X039430Y026016D02*
X033700Y026016D01*
X033700Y026175D02*
X039430Y026175D01*
X039430Y026333D02*
X033700Y026333D01*
X033700Y026492D02*
X039430Y026492D01*
X039430Y026650D02*
X033700Y026650D01*
X033700Y026809D02*
X039430Y026809D01*
X039430Y026967D02*
X033700Y026967D01*
X033700Y027126D02*
X039430Y027126D01*
X039430Y027284D02*
X033700Y027284D01*
X033700Y027443D02*
X039430Y027443D01*
X039430Y027601D02*
X033700Y027601D01*
X033700Y027760D02*
X039430Y027760D01*
X039430Y027918D02*
X033700Y027918D01*
X033700Y028077D02*
X039430Y028077D01*
X039430Y028235D02*
X033700Y028235D01*
X033700Y028394D02*
X039430Y028394D01*
X039430Y028552D02*
X033700Y028552D01*
X033725Y028711D02*
X039430Y028711D01*
X039430Y028869D02*
X033798Y028869D01*
X033781Y029028D02*
X039430Y029028D01*
X039430Y029186D02*
X033668Y029186D01*
X033470Y028920D02*
X033470Y023850D01*
X033159Y023956D02*
X033080Y023956D01*
X032921Y024114D02*
X033240Y024114D01*
X033240Y024273D02*
X032763Y024273D01*
X032604Y024431D02*
X033240Y024431D01*
X033240Y024590D02*
X032446Y024590D01*
X032287Y024748D02*
X033240Y024748D01*
X033240Y024907D02*
X032129Y024907D01*
X031970Y025065D02*
X033240Y025065D01*
X033240Y025224D02*
X031812Y025224D01*
X031653Y025382D02*
X033240Y025382D01*
X033240Y025541D02*
X031495Y025541D01*
X031336Y025699D02*
X033240Y025699D01*
X033240Y025858D02*
X031178Y025858D01*
X031019Y026016D02*
X033240Y026016D01*
X033240Y026175D02*
X030861Y026175D01*
X030702Y026333D02*
X033240Y026333D01*
X033240Y026492D02*
X030544Y026492D01*
X030385Y026650D02*
X033240Y026650D01*
X033240Y026809D02*
X030227Y026809D01*
X030068Y026967D02*
X033240Y026967D01*
X033240Y027126D02*
X029910Y027126D01*
X029751Y027284D02*
X033240Y027284D01*
X033240Y027443D02*
X029593Y027443D01*
X029434Y027601D02*
X033240Y027601D01*
X033240Y027760D02*
X029276Y027760D01*
X029117Y027918D02*
X033240Y027918D01*
X033240Y028077D02*
X028959Y028077D01*
X028886Y028235D02*
X033240Y028235D01*
X033240Y028394D02*
X028780Y028394D01*
X028540Y027510D02*
X032770Y023280D01*
X032850Y023270D01*
X033049Y023005D02*
X033131Y023005D01*
X033160Y022846D02*
X039430Y022846D01*
X039430Y022688D02*
X033376Y022688D01*
X033418Y022529D02*
X039430Y022529D01*
X039430Y022371D02*
X033383Y022371D01*
X033204Y022212D02*
X039430Y022212D01*
X039430Y022054D02*
X033350Y022054D01*
X033110Y021830D02*
X033090Y021830D01*
X029920Y025000D01*
X029680Y025224D02*
X016470Y025224D01*
X016470Y025382D02*
X029873Y025382D01*
X029714Y025541D02*
X016470Y025541D01*
X016470Y025699D02*
X029556Y025699D01*
X029397Y025858D02*
X016470Y025858D01*
X016470Y026016D02*
X029239Y026016D01*
X029080Y026175D02*
X016470Y026175D01*
X016470Y026333D02*
X028922Y026333D01*
X028763Y026492D02*
X016470Y026492D01*
X016470Y026650D02*
X028605Y026650D01*
X028313Y026809D02*
X016470Y026809D01*
X016470Y026967D02*
X028267Y026967D01*
X028298Y027126D02*
X016470Y027126D01*
X016470Y027284D02*
X028302Y027284D01*
X028213Y027443D02*
X016470Y027443D01*
X016546Y027601D02*
X028223Y027601D01*
X028595Y026985D02*
X033060Y022520D01*
X033090Y022520D01*
X033669Y023005D02*
X039430Y023005D01*
X039430Y023163D02*
X033728Y023163D01*
X033322Y021578D02*
X039430Y021578D01*
X039430Y021420D02*
X033364Y021420D01*
X033462Y021261D02*
X039430Y021261D01*
X039430Y021103D02*
X033463Y021103D01*
X033368Y020944D02*
X039430Y020944D01*
X039430Y020786D02*
X033316Y020786D01*
X033510Y020627D02*
X039430Y020627D01*
X039430Y020469D02*
X033548Y020469D01*
X033509Y020310D02*
X039430Y020310D01*
X039430Y020152D02*
X033312Y020152D01*
X033417Y019993D02*
X039430Y019993D01*
X039430Y019835D02*
X033428Y019835D01*
X033340Y019676D02*
X039430Y019676D01*
X039890Y019676D02*
X039900Y019676D01*
X039890Y019518D02*
X039900Y019518D01*
X039890Y019359D02*
X039900Y019359D01*
X039890Y019201D02*
X039900Y019201D01*
X039890Y019042D02*
X039900Y019042D01*
X039890Y018884D02*
X039900Y018884D01*
X039890Y018725D02*
X039900Y018725D01*
X039890Y018567D02*
X039900Y018567D01*
X039890Y018408D02*
X039900Y018408D01*
X039890Y018250D02*
X039900Y018250D01*
X039890Y018091D02*
X039900Y018091D01*
X039890Y017933D02*
X039900Y017933D01*
X039890Y017774D02*
X039900Y017774D01*
X039890Y017616D02*
X039900Y017616D01*
X039890Y017457D02*
X039900Y017457D01*
X039890Y017299D02*
X039900Y017299D01*
X039890Y017140D02*
X039900Y017140D01*
X039890Y016982D02*
X039900Y016982D01*
X039890Y016823D02*
X039900Y016823D01*
X039890Y016665D02*
X039900Y016665D01*
X039890Y016506D02*
X039900Y016506D01*
X039890Y016348D02*
X039900Y016348D01*
X039890Y016189D02*
X039900Y016189D01*
X039890Y016031D02*
X039900Y016031D01*
X039890Y015872D02*
X039900Y015872D01*
X039890Y015714D02*
X039900Y015714D01*
X039890Y015555D02*
X039900Y015555D01*
X039890Y015397D02*
X039900Y015397D01*
X039890Y015238D02*
X039900Y015238D01*
X039890Y015080D02*
X039900Y015080D01*
X039890Y014921D02*
X039900Y014921D01*
X039890Y014763D02*
X039900Y014763D01*
X039890Y014604D02*
X039900Y014604D01*
X039890Y014446D02*
X039900Y014446D01*
X039890Y014287D02*
X039900Y014287D01*
X039890Y014129D02*
X039900Y014129D01*
X039890Y013970D02*
X039900Y013970D01*
X039890Y013812D02*
X039900Y013812D01*
X039890Y013653D02*
X039900Y013653D01*
X039890Y013495D02*
X039900Y013495D01*
X039890Y013336D02*
X039900Y013336D01*
X039890Y013178D02*
X039900Y013178D01*
X039890Y013019D02*
X039900Y013019D01*
X039890Y012861D02*
X039900Y012861D01*
X039890Y012702D02*
X039900Y012702D01*
X039890Y012575D02*
X039890Y024626D01*
X039900Y024616D01*
X039900Y007204D01*
X039842Y007146D01*
X039792Y007025D01*
X039792Y006895D01*
X039842Y006774D01*
X039934Y006682D01*
X040055Y006632D01*
X040185Y006632D01*
X040306Y006682D01*
X040340Y006716D01*
X040340Y001634D01*
X040302Y001596D01*
X040252Y001475D01*
X040252Y001345D01*
X040302Y001224D01*
X040394Y001132D01*
X040515Y001082D01*
X040645Y001082D01*
X040766Y001132D01*
X040858Y001224D01*
X040908Y001345D01*
X040908Y001475D01*
X040858Y001596D01*
X040800Y001654D01*
X040800Y018936D01*
X040848Y018984D01*
X040898Y019105D01*
X040898Y019235D01*
X040848Y019356D01*
X040756Y019448D01*
X040635Y019498D01*
X040505Y019498D01*
X040384Y019448D01*
X040360Y019424D01*
X040360Y024616D01*
X040408Y024664D01*
X040458Y024785D01*
X040458Y024915D01*
X040408Y025036D01*
X040316Y025128D01*
X040195Y025178D01*
X040065Y025178D01*
X039944Y025128D01*
X039890Y025074D01*
X039890Y032106D01*
X039938Y032154D01*
X039988Y032275D01*
X039988Y032405D01*
X039938Y032526D01*
X039846Y032618D01*
X039725Y032668D01*
X039595Y032668D01*
X039474Y032618D01*
X039382Y032526D01*
X039332Y032405D01*
X039332Y032275D01*
X039382Y032154D01*
X039430Y032106D01*
X039430Y012798D01*
X039395Y012798D01*
X039274Y012748D01*
X039182Y012656D01*
X039132Y012535D01*
X039132Y012405D01*
X039182Y012284D01*
X039274Y012192D01*
X039395Y012142D01*
X039525Y012142D01*
X039646Y012192D01*
X039738Y012284D01*
X039788Y012405D01*
X039788Y012473D01*
X039890Y012575D01*
X039900Y012544D02*
X039859Y012544D01*
X039900Y012385D02*
X039780Y012385D01*
X039681Y012227D02*
X039900Y012227D01*
X039900Y012068D02*
X033590Y012068D01*
X033590Y011910D02*
X039900Y011910D01*
X039900Y011751D02*
X033590Y011751D01*
X033590Y011593D02*
X039900Y011593D01*
X039900Y011434D02*
X033590Y011434D01*
X033590Y011276D02*
X039900Y011276D01*
X039900Y011117D02*
X033590Y011117D01*
X033590Y010959D02*
X039900Y010959D01*
X039900Y010800D02*
X033590Y010800D01*
X033590Y010644D02*
X033590Y016095D01*
X033691Y016137D01*
X033783Y016229D01*
X033833Y016350D01*
X033833Y016480D01*
X033783Y016601D01*
X033691Y016693D01*
X033570Y016743D01*
X033440Y016743D01*
X033319Y016693D01*
X033227Y016601D01*
X033211Y016563D01*
X033141Y016633D01*
X033020Y016683D01*
X032890Y016683D01*
X032808Y016649D01*
X032808Y016765D01*
X032758Y016886D01*
X032666Y016978D01*
X032545Y017028D01*
X032446Y017028D01*
X032478Y017105D01*
X032478Y017235D01*
X032428Y017356D01*
X032336Y017448D01*
X032215Y017498D01*
X032085Y017498D01*
X031964Y017448D01*
X031872Y017356D01*
X031822Y017235D01*
X031822Y017167D01*
X031530Y016875D01*
X031530Y014127D01*
X031518Y014156D01*
X031426Y014248D01*
X031305Y014298D01*
X031175Y014298D01*
X031054Y014248D01*
X030962Y014156D01*
X030912Y014035D01*
X030912Y013905D01*
X030962Y013784D01*
X031030Y013716D01*
X031030Y013684D01*
X030966Y013748D01*
X030845Y013798D01*
X030715Y013798D01*
X030594Y013748D01*
X030502Y013656D01*
X030452Y013535D01*
X030452Y013405D01*
X030502Y013284D01*
X030510Y013276D01*
X030510Y008144D01*
X030462Y008096D01*
X030440Y008043D01*
X030440Y012955D01*
X030428Y012967D01*
X030428Y013035D01*
X030378Y013156D01*
X030286Y013248D01*
X030165Y013298D01*
X030035Y013298D01*
X029930Y013255D01*
X029930Y017475D01*
X028598Y018807D01*
X028598Y018875D01*
X028548Y018996D01*
X028456Y019088D01*
X028335Y019138D01*
X028205Y019138D01*
X028084Y019088D01*
X027992Y018996D01*
X027942Y018875D01*
X027942Y018745D01*
X027992Y018624D01*
X028084Y018532D01*
X028205Y018482D01*
X028273Y018482D01*
X029307Y017448D01*
X029225Y017448D01*
X029104Y017398D01*
X029012Y017306D01*
X028962Y017185D01*
X028962Y017055D01*
X029012Y016934D01*
X029060Y016886D01*
X029060Y010331D01*
X029054Y010328D01*
X028962Y010236D01*
X028912Y010115D01*
X028912Y009985D01*
X028962Y009864D01*
X029054Y009772D01*
X029175Y009722D01*
X029247Y009722D01*
X028493Y008968D01*
X028395Y008968D01*
X028274Y008918D01*
X028182Y008826D01*
X028132Y008705D01*
X028132Y008575D01*
X028182Y008454D01*
X028274Y008362D01*
X028395Y008312D01*
X028525Y008312D01*
X028646Y008362D01*
X028738Y008454D01*
X028788Y008575D01*
X028788Y008613D01*
X029795Y009620D01*
X029930Y009755D01*
X029930Y012685D01*
X029980Y012665D01*
X029980Y007644D01*
X029932Y007596D01*
X029882Y007475D01*
X029882Y007345D01*
X029932Y007224D01*
X029990Y007166D01*
X029990Y002214D01*
X029942Y002166D01*
X029892Y002045D01*
X029892Y001915D01*
X029942Y001794D01*
X030034Y001702D01*
X030155Y001652D01*
X030285Y001652D01*
X030406Y001702D01*
X030498Y001794D01*
X030548Y001915D01*
X030548Y002045D01*
X030498Y002166D01*
X030450Y002214D01*
X030450Y002303D01*
X030462Y002274D01*
X030554Y002182D01*
X030675Y002132D01*
X030805Y002132D01*
X030926Y002182D01*
X031018Y002274D01*
X031068Y002395D01*
X031068Y002525D01*
X031018Y002646D01*
X030970Y002694D01*
X030970Y002773D01*
X030982Y002744D01*
X031074Y002652D01*
X031195Y002602D01*
X031325Y002602D01*
X031446Y002652D01*
X031538Y002744D01*
X031588Y002865D01*
X031588Y002995D01*
X031538Y003116D01*
X031490Y003164D01*
X031490Y003236D01*
X031574Y003152D01*
X031695Y003102D01*
X031825Y003102D01*
X031946Y003152D01*
X032038Y003244D01*
X032088Y003365D01*
X032088Y003495D01*
X032038Y003616D01*
X031990Y003664D01*
X031990Y003806D01*
X032074Y003722D01*
X032195Y003672D01*
X032325Y003672D01*
X032446Y003722D01*
X032538Y003814D01*
X032588Y003935D01*
X032588Y004065D01*
X032538Y004186D01*
X032490Y004234D01*
X032490Y004345D01*
X032532Y004244D01*
X032624Y004152D01*
X032745Y004102D01*
X032875Y004102D01*
X032996Y004152D01*
X033088Y004244D01*
X033138Y004365D01*
X033138Y004495D01*
X033088Y004616D01*
X033040Y004664D01*
X033040Y004831D01*
X033072Y004754D01*
X033164Y004662D01*
X033285Y004612D01*
X033415Y004612D01*
X033536Y004662D01*
X033628Y004754D01*
X033678Y004875D01*
X033678Y005005D01*
X033628Y005126D01*
X033580Y005174D01*
X033580Y010166D01*
X033638Y010224D01*
X033688Y010345D01*
X033688Y010475D01*
X033638Y010596D01*
X033590Y010644D01*
X033593Y010642D02*
X039900Y010642D01*
X039900Y010483D02*
X033685Y010483D01*
X033680Y010325D02*
X039900Y010325D01*
X039900Y010166D02*
X033580Y010166D01*
X033580Y010008D02*
X039900Y010008D01*
X039900Y009849D02*
X033580Y009849D01*
X033580Y009691D02*
X039900Y009691D01*
X039900Y009532D02*
X033580Y009532D01*
X033580Y009374D02*
X039900Y009374D01*
X039900Y009215D02*
X033580Y009215D01*
X033580Y009057D02*
X039900Y009057D01*
X039900Y008898D02*
X033580Y008898D01*
X033580Y008740D02*
X039900Y008740D01*
X039900Y008581D02*
X033580Y008581D01*
X033580Y008423D02*
X039900Y008423D01*
X039900Y008264D02*
X033580Y008264D01*
X033580Y008106D02*
X039900Y008106D01*
X039900Y007947D02*
X033580Y007947D01*
X033580Y007789D02*
X039900Y007789D01*
X039900Y007630D02*
X033580Y007630D01*
X033580Y007471D02*
X039900Y007471D01*
X039900Y007313D02*
X033580Y007313D01*
X033580Y007154D02*
X039850Y007154D01*
X039792Y006996D02*
X033580Y006996D01*
X033580Y006837D02*
X039816Y006837D01*
X039941Y006679D02*
X033580Y006679D01*
X033580Y006520D02*
X040340Y006520D01*
X040340Y006362D02*
X033580Y006362D01*
X033580Y006203D02*
X040340Y006203D01*
X040340Y006045D02*
X033580Y006045D01*
X033580Y005886D02*
X040340Y005886D01*
X040340Y005728D02*
X033580Y005728D01*
X033580Y005569D02*
X040340Y005569D01*
X040340Y005411D02*
X033580Y005411D01*
X033580Y005252D02*
X040340Y005252D01*
X040340Y005094D02*
X033641Y005094D01*
X033678Y004935D02*
X040340Y004935D01*
X040340Y004777D02*
X033638Y004777D01*
X033431Y004618D02*
X040340Y004618D01*
X040340Y004460D02*
X033138Y004460D01*
X033112Y004301D02*
X040340Y004301D01*
X040340Y004143D02*
X032974Y004143D01*
X032645Y004143D02*
X032556Y004143D01*
X032588Y003984D02*
X040340Y003984D01*
X040340Y003826D02*
X032543Y003826D01*
X032260Y004000D02*
X032260Y009450D01*
X032260Y016410D01*
X032480Y016630D01*
X032480Y016700D01*
X032784Y016823D02*
X039430Y016823D01*
X039430Y016665D02*
X033720Y016665D01*
X033822Y016506D02*
X039430Y016506D01*
X039430Y016348D02*
X033832Y016348D01*
X033743Y016189D02*
X039430Y016189D01*
X039430Y016031D02*
X033590Y016031D01*
X033590Y015872D02*
X039430Y015872D01*
X039430Y015714D02*
X033590Y015714D01*
X033590Y015555D02*
X039430Y015555D01*
X039430Y015397D02*
X033590Y015397D01*
X033590Y015238D02*
X039430Y015238D01*
X039430Y015080D02*
X033590Y015080D01*
X033590Y014921D02*
X039430Y014921D01*
X039430Y014763D02*
X033590Y014763D01*
X033590Y014604D02*
X039430Y014604D01*
X039430Y014446D02*
X033590Y014446D01*
X033590Y014287D02*
X039430Y014287D01*
X039430Y014129D02*
X033590Y014129D01*
X033590Y013970D02*
X039430Y013970D01*
X039430Y013812D02*
X033590Y013812D01*
X033590Y013653D02*
X039430Y013653D01*
X039430Y013495D02*
X033590Y013495D01*
X033590Y013336D02*
X039430Y013336D01*
X039430Y013178D02*
X033590Y013178D01*
X033590Y013019D02*
X039430Y013019D01*
X039430Y012861D02*
X033590Y012861D01*
X033590Y012702D02*
X039228Y012702D01*
X039135Y012544D02*
X033590Y012544D01*
X033590Y012385D02*
X039140Y012385D01*
X039239Y012227D02*
X033590Y012227D01*
X033360Y010410D02*
X033350Y010400D01*
X033350Y004940D01*
X033062Y004777D02*
X033040Y004777D01*
X033086Y004618D02*
X033269Y004618D01*
X032810Y004430D02*
X032810Y009990D01*
X032810Y016210D01*
X032955Y016355D01*
X032845Y016665D02*
X032808Y016665D01*
X033065Y016665D02*
X033290Y016665D01*
X033505Y016415D02*
X033360Y016270D01*
X033360Y010410D01*
X031760Y008910D02*
X031760Y003430D01*
X031986Y003192D02*
X040340Y003192D01*
X040340Y003350D02*
X032082Y003350D01*
X032082Y003509D02*
X040340Y003509D01*
X040340Y003667D02*
X031990Y003667D01*
X031534Y003192D02*
X031490Y003192D01*
X031572Y003033D02*
X040340Y003033D01*
X040340Y002875D02*
X031588Y002875D01*
X031511Y002716D02*
X040340Y002716D01*
X040340Y002558D02*
X031055Y002558D01*
X031068Y002399D02*
X040340Y002399D01*
X040340Y002241D02*
X030985Y002241D01*
X030740Y002460D02*
X030740Y007910D01*
X030740Y013430D01*
X030780Y013470D01*
X030480Y013336D02*
X029930Y013336D01*
X029930Y013495D02*
X030452Y013495D01*
X030501Y013653D02*
X029930Y013653D01*
X029930Y013812D02*
X030951Y013812D01*
X030912Y013970D02*
X029930Y013970D01*
X029930Y014129D02*
X030951Y014129D01*
X031148Y014287D02*
X029930Y014287D01*
X029930Y014446D02*
X031530Y014446D01*
X031530Y014604D02*
X029930Y014604D01*
X029930Y014763D02*
X031530Y014763D01*
X031530Y014921D02*
X029930Y014921D01*
X029930Y015080D02*
X031530Y015080D01*
X031530Y015238D02*
X029930Y015238D01*
X029930Y015397D02*
X031530Y015397D01*
X031530Y015555D02*
X029930Y015555D01*
X029930Y015714D02*
X031530Y015714D01*
X031530Y015872D02*
X029930Y015872D01*
X029930Y016031D02*
X031530Y016031D01*
X031530Y016189D02*
X029930Y016189D01*
X029930Y016348D02*
X031530Y016348D01*
X031530Y016506D02*
X029930Y016506D01*
X029930Y016665D02*
X031530Y016665D01*
X031530Y016823D02*
X029930Y016823D01*
X029930Y016982D02*
X031636Y016982D01*
X031795Y017140D02*
X029930Y017140D01*
X029930Y017299D02*
X031848Y017299D01*
X031986Y017457D02*
X029930Y017457D01*
X029790Y017616D02*
X039430Y017616D01*
X039430Y017774D02*
X029631Y017774D01*
X029473Y017933D02*
X039430Y017933D01*
X039430Y018091D02*
X029314Y018091D01*
X029156Y018250D02*
X038936Y018250D01*
X039104Y018250D02*
X039430Y018250D01*
X039430Y018408D02*
X039308Y018408D01*
X038729Y018725D02*
X030510Y018725D01*
X030177Y018408D02*
X028997Y018408D01*
X028839Y018567D02*
X030018Y018567D01*
X029860Y018725D02*
X028680Y018725D01*
X028595Y018884D02*
X029701Y018884D01*
X029543Y019042D02*
X028502Y019042D01*
X028270Y018810D02*
X029700Y017380D01*
X029700Y009850D01*
X028490Y008640D01*
X028460Y008640D01*
X028707Y008423D02*
X029980Y008423D01*
X029980Y008581D02*
X028788Y008581D01*
X028915Y008740D02*
X029980Y008740D01*
X029980Y008898D02*
X029073Y008898D01*
X029232Y009057D02*
X029980Y009057D01*
X029980Y009215D02*
X029390Y009215D01*
X029549Y009374D02*
X029980Y009374D01*
X029980Y009532D02*
X029707Y009532D01*
X029866Y009691D02*
X029980Y009691D01*
X029980Y009849D02*
X029930Y009849D01*
X029930Y010008D02*
X029980Y010008D01*
X029980Y010166D02*
X029930Y010166D01*
X029930Y010325D02*
X029980Y010325D01*
X029980Y010483D02*
X029930Y010483D01*
X029930Y010642D02*
X029980Y010642D01*
X029980Y010800D02*
X029930Y010800D01*
X029930Y010959D02*
X029980Y010959D01*
X029980Y011117D02*
X029930Y011117D01*
X029930Y011276D02*
X029980Y011276D01*
X029980Y011434D02*
X029930Y011434D01*
X029930Y011593D02*
X029980Y011593D01*
X029980Y011751D02*
X029930Y011751D01*
X029930Y011910D02*
X029980Y011910D01*
X029980Y012068D02*
X029930Y012068D01*
X029930Y012227D02*
X029980Y012227D01*
X029980Y012385D02*
X029930Y012385D01*
X029930Y012544D02*
X029980Y012544D01*
X030210Y012860D02*
X030100Y012970D01*
X030210Y012860D02*
X030210Y007410D01*
X030220Y007400D01*
X030220Y001980D01*
X030470Y001765D02*
X040340Y001765D01*
X040340Y001924D02*
X030548Y001924D01*
X030533Y002082D02*
X040340Y002082D01*
X040800Y002082D02*
X058592Y002082D01*
X058592Y001924D02*
X040800Y001924D01*
X040800Y001765D02*
X058592Y001765D01*
X058592Y001607D02*
X040847Y001607D01*
X040908Y001448D02*
X058592Y001448D01*
X058592Y001290D02*
X040885Y001290D01*
X040765Y001131D02*
X058592Y001131D01*
X058592Y000973D02*
X000530Y000973D01*
X000530Y001131D02*
X040395Y001131D01*
X040275Y001290D02*
X000530Y001290D01*
X000530Y001448D02*
X040252Y001448D01*
X040313Y001607D02*
X000530Y001607D01*
X000530Y001765D02*
X029970Y001765D01*
X029892Y001924D02*
X000530Y001924D01*
X000530Y002082D02*
X029907Y002082D01*
X029990Y002241D02*
X027696Y002241D01*
X027597Y002200D02*
X027796Y002282D01*
X027948Y002434D01*
X028030Y002633D01*
X028030Y003627D01*
X027948Y003826D01*
X027796Y003978D01*
X027597Y004060D01*
X027383Y004060D01*
X027184Y003978D01*
X027032Y003826D01*
X026950Y003627D01*
X026950Y002633D01*
X027032Y002434D01*
X027184Y002282D01*
X027383Y002200D01*
X027597Y002200D01*
X027284Y002241D02*
X025796Y002241D01*
X025819Y002252D02*
X025891Y002305D01*
X025955Y002369D01*
X026008Y002441D01*
X026048Y002521D01*
X026076Y002607D01*
X026090Y002695D01*
X026090Y003080D01*
X025570Y003080D01*
X025570Y003180D01*
X026090Y003180D01*
X026090Y003565D01*
X026076Y003653D01*
X026048Y003739D01*
X026008Y003819D01*
X025955Y003891D01*
X025891Y003955D01*
X025819Y004008D01*
X025739Y004048D01*
X025653Y004076D01*
X025570Y004089D01*
X025570Y003180D01*
X025470Y003180D01*
X025470Y004089D01*
X025387Y004076D01*
X025301Y004048D01*
X025221Y004008D01*
X025149Y003955D01*
X025085Y003891D01*
X025032Y003819D01*
X024992Y003739D01*
X024964Y003653D01*
X024950Y003565D01*
X024950Y003180D01*
X025470Y003180D01*
X025470Y003080D01*
X025570Y003080D01*
X025570Y002171D01*
X025653Y002184D01*
X025739Y002212D01*
X025819Y002252D01*
X025977Y002399D02*
X027067Y002399D01*
X026981Y002558D02*
X026060Y002558D01*
X026090Y002716D02*
X026950Y002716D01*
X026950Y002875D02*
X026090Y002875D01*
X026090Y003033D02*
X026950Y003033D01*
X026950Y003192D02*
X026090Y003192D01*
X026090Y003350D02*
X026950Y003350D01*
X026950Y003509D02*
X026090Y003509D01*
X026071Y003667D02*
X026967Y003667D01*
X027032Y003826D02*
X026002Y003826D01*
X025850Y003984D02*
X027200Y003984D01*
X027780Y003984D02*
X029990Y003984D01*
X029990Y003826D02*
X027948Y003826D01*
X028013Y003667D02*
X029990Y003667D01*
X029990Y003509D02*
X028030Y003509D01*
X028030Y003350D02*
X029990Y003350D01*
X029990Y003192D02*
X028030Y003192D01*
X028030Y003033D02*
X029990Y003033D01*
X029990Y002875D02*
X028030Y002875D01*
X028030Y002716D02*
X029990Y002716D01*
X029990Y002558D02*
X027999Y002558D01*
X027913Y002399D02*
X029990Y002399D01*
X030450Y002241D02*
X030495Y002241D01*
X030970Y002716D02*
X031009Y002716D01*
X031260Y002930D02*
X031260Y008340D01*
X031260Y013950D01*
X031240Y013970D01*
X031529Y014129D02*
X031530Y014129D01*
X031530Y014287D02*
X031332Y014287D01*
X030510Y013178D02*
X030357Y013178D01*
X030428Y013019D02*
X030510Y013019D01*
X030510Y012861D02*
X030440Y012861D01*
X030440Y012702D02*
X030510Y012702D01*
X030510Y012544D02*
X030440Y012544D01*
X030440Y012385D02*
X030510Y012385D01*
X030510Y012227D02*
X030440Y012227D01*
X030440Y012068D02*
X030510Y012068D01*
X030510Y011910D02*
X030440Y011910D01*
X030440Y011751D02*
X030510Y011751D01*
X030510Y011593D02*
X030440Y011593D01*
X030440Y011434D02*
X030510Y011434D01*
X030510Y011276D02*
X030440Y011276D01*
X030440Y011117D02*
X030510Y011117D01*
X030510Y010959D02*
X030440Y010959D01*
X030440Y010800D02*
X030510Y010800D01*
X030510Y010642D02*
X030440Y010642D01*
X030440Y010483D02*
X030510Y010483D01*
X030510Y010325D02*
X030440Y010325D01*
X030440Y010166D02*
X030510Y010166D01*
X030510Y010008D02*
X030440Y010008D01*
X030440Y009849D02*
X030510Y009849D01*
X030510Y009691D02*
X030440Y009691D01*
X030440Y009532D02*
X030510Y009532D01*
X030510Y009374D02*
X030440Y009374D01*
X030440Y009215D02*
X030510Y009215D01*
X030510Y009057D02*
X030440Y009057D01*
X030440Y008898D02*
X030510Y008898D01*
X030510Y008740D02*
X030440Y008740D01*
X030440Y008581D02*
X030510Y008581D01*
X030510Y008423D02*
X030440Y008423D01*
X030440Y008264D02*
X030510Y008264D01*
X030471Y008106D02*
X030440Y008106D01*
X029980Y008106D02*
X018681Y008106D01*
X018739Y008247D02*
X018617Y007952D01*
X018391Y007726D01*
X018096Y007604D01*
X017777Y007604D01*
X017482Y007726D01*
X017256Y007952D01*
X017134Y008247D01*
X017134Y008567D01*
X017256Y008862D01*
X017482Y009087D01*
X017777Y009210D01*
X018096Y009210D01*
X018391Y009087D01*
X018617Y008862D01*
X018739Y008567D01*
X018739Y008247D01*
X018739Y008264D02*
X029980Y008264D01*
X029980Y007947D02*
X018612Y007947D01*
X018453Y007789D02*
X029980Y007789D01*
X029966Y007630D02*
X018159Y007630D01*
X017715Y007630D02*
X017082Y007630D01*
X017077Y007638D02*
X017026Y007689D01*
X016968Y007731D01*
X016903Y007764D01*
X016835Y007786D01*
X016764Y007797D01*
X016737Y007797D01*
X016737Y007349D01*
X017185Y007349D01*
X017185Y007376D01*
X017174Y007447D01*
X017152Y007515D01*
X017119Y007580D01*
X017077Y007638D01*
X017166Y007471D02*
X029882Y007471D01*
X029895Y007313D02*
X017185Y007313D01*
X017185Y007304D02*
X017185Y007331D01*
X016737Y007331D01*
X016737Y007349D01*
X016719Y007349D01*
X016719Y007797D01*
X016692Y007797D01*
X016621Y007786D01*
X016552Y007764D01*
X016488Y007731D01*
X016430Y007689D01*
X016379Y007638D01*
X016337Y007580D01*
X016304Y007515D01*
X016282Y007447D01*
X016271Y007376D01*
X016271Y007349D01*
X016719Y007349D01*
X016719Y007331D01*
X016737Y007331D01*
X016737Y006883D01*
X016764Y006883D01*
X016835Y006894D01*
X016903Y006916D01*
X016968Y006949D01*
X017026Y006991D01*
X017077Y007042D01*
X017119Y007100D01*
X017152Y007165D01*
X017174Y007233D01*
X017185Y007304D01*
X017147Y007154D02*
X029990Y007154D01*
X029990Y006996D02*
X017030Y006996D01*
X016737Y006996D02*
X016719Y006996D01*
X016719Y006883D02*
X016719Y007331D01*
X016271Y007331D01*
X016271Y007304D01*
X016282Y007233D01*
X016304Y007165D01*
X016337Y007100D01*
X016379Y007042D01*
X016430Y006991D01*
X016488Y006949D01*
X016552Y006916D01*
X016621Y006894D01*
X016692Y006883D01*
X016719Y006883D01*
X016719Y007154D02*
X016737Y007154D01*
X016737Y007313D02*
X016719Y007313D01*
X016719Y007471D02*
X016737Y007471D01*
X016737Y007630D02*
X016719Y007630D01*
X016719Y007789D02*
X016737Y007789D01*
X016819Y007789D02*
X017420Y007789D01*
X017261Y007947D02*
X013439Y007947D01*
X013444Y007952D02*
X013566Y008247D01*
X013566Y008567D01*
X013444Y008862D01*
X013218Y009087D01*
X012923Y009210D01*
X012604Y009210D01*
X012309Y009087D01*
X012083Y008862D01*
X011961Y008567D01*
X011961Y008247D01*
X012083Y007952D01*
X012309Y007726D01*
X012604Y007604D01*
X012923Y007604D01*
X013218Y007726D01*
X013444Y007952D01*
X013507Y008106D02*
X017193Y008106D01*
X017134Y008264D02*
X013566Y008264D01*
X013566Y008423D02*
X017134Y008423D01*
X017140Y008581D02*
X013560Y008581D01*
X013495Y008740D02*
X017205Y008740D01*
X017292Y008898D02*
X013408Y008898D01*
X013249Y009057D02*
X017451Y009057D01*
X018422Y009057D02*
X028581Y009057D01*
X028740Y009215D02*
X000532Y009215D01*
X000532Y009057D02*
X012278Y009057D01*
X012119Y008898D02*
X000532Y008898D01*
X000532Y008740D02*
X012032Y008740D01*
X011967Y008581D02*
X000532Y008581D01*
X000532Y008423D02*
X011961Y008423D01*
X011961Y008264D02*
X000532Y008264D01*
X000532Y008106D02*
X012019Y008106D01*
X012088Y007947D02*
X000532Y007947D01*
X000532Y007789D02*
X012247Y007789D01*
X012541Y007630D02*
X000532Y007630D01*
X000532Y007471D02*
X013564Y007471D01*
X013545Y007425D02*
X013545Y007255D01*
X013610Y007098D01*
X013730Y006978D01*
X013887Y006913D01*
X014057Y006913D01*
X014214Y006978D01*
X014334Y007098D01*
X014399Y007255D01*
X014399Y007425D01*
X014334Y007582D01*
X014214Y007702D01*
X014057Y007767D01*
X013887Y007767D01*
X013730Y007702D01*
X013610Y007582D01*
X013545Y007425D01*
X013545Y007313D02*
X000532Y007313D01*
X000532Y007154D02*
X013587Y007154D01*
X013712Y006996D02*
X000532Y006996D01*
X000532Y006837D02*
X007606Y006837D01*
X007569Y006801D02*
X007510Y006658D01*
X007510Y006502D01*
X007569Y006359D01*
X007677Y006251D01*
X007480Y006054D01*
X007480Y005880D01*
X007900Y005880D01*
X008320Y005880D01*
X008320Y006054D01*
X008123Y006251D01*
X008231Y006359D01*
X008290Y006502D01*
X008290Y006658D01*
X008231Y006801D01*
X008121Y006911D01*
X007978Y006970D01*
X007822Y006970D01*
X007679Y006911D01*
X007569Y006801D01*
X007519Y006679D02*
X000532Y006679D01*
X000532Y006520D02*
X007510Y006520D01*
X007568Y006362D02*
X000532Y006362D01*
X000532Y006203D02*
X007630Y006203D01*
X007480Y006045D02*
X000531Y006045D01*
X000531Y005886D02*
X007480Y005886D01*
X007480Y005880D02*
X007480Y005706D01*
X007726Y005460D01*
X007900Y005460D01*
X008074Y005460D01*
X008320Y005706D01*
X008320Y005880D01*
X007900Y005880D01*
X007900Y005880D01*
X007900Y005880D01*
X007900Y005460D01*
X007900Y005880D01*
X007900Y005880D01*
X007480Y005880D01*
X007480Y005728D02*
X000531Y005728D01*
X000531Y005569D02*
X007617Y005569D01*
X007900Y005569D02*
X007900Y005569D01*
X007900Y005728D02*
X007900Y005728D01*
X008183Y005569D02*
X019965Y005569D01*
X019965Y005411D02*
X000531Y005411D01*
X000531Y005252D02*
X019965Y005252D01*
X019965Y005094D02*
X000531Y005094D01*
X000531Y004935D02*
X020117Y004935D01*
X019965Y005088D02*
X020383Y004670D01*
X020540Y004670D01*
X020651Y004781D01*
X020958Y005088D01*
X020958Y005322D01*
X020997Y005284D01*
X021231Y005050D01*
X020997Y005050D01*
X020885Y004939D01*
X020885Y004781D01*
X020997Y004670D01*
X021768Y004670D01*
X021843Y004745D01*
X021917Y004670D01*
X022689Y004670D01*
X022800Y004781D01*
X022800Y004939D01*
X022689Y005050D01*
X022493Y005050D01*
X022493Y005322D01*
X022531Y005284D01*
X022689Y005284D01*
X022800Y005395D01*
X022800Y005553D01*
X022382Y005971D01*
X022224Y005971D01*
X022223Y005969D01*
X022113Y005859D01*
X022113Y005050D01*
X021917Y005050D01*
X021843Y004975D01*
X021267Y005551D01*
X021308Y005591D01*
X021457Y005591D01*
X021611Y005437D01*
X021768Y005437D01*
X021879Y005549D01*
X021879Y005706D01*
X021614Y005971D01*
X021150Y005971D01*
X021039Y005859D01*
X020958Y005779D01*
X020958Y005859D01*
X020847Y005971D01*
X020690Y005971D01*
X020578Y005859D01*
X020578Y005246D01*
X020461Y005129D01*
X020345Y005246D01*
X020345Y005859D01*
X020233Y005971D01*
X020076Y005971D01*
X019965Y005859D01*
X019965Y005088D01*
X020345Y005252D02*
X020578Y005252D01*
X020578Y005411D02*
X020345Y005411D01*
X020345Y005569D02*
X020578Y005569D01*
X020578Y005728D02*
X020345Y005728D01*
X020318Y005886D02*
X020605Y005886D01*
X020931Y005886D02*
X021066Y005886D01*
X021286Y005569D02*
X021478Y005569D01*
X021407Y005411D02*
X022113Y005411D01*
X022113Y005569D02*
X021879Y005569D01*
X021857Y005728D02*
X022113Y005728D01*
X022140Y005886D02*
X021699Y005886D01*
X021565Y005252D02*
X022113Y005252D01*
X022113Y005094D02*
X021724Y005094D01*
X021187Y005094D02*
X020958Y005094D01*
X020958Y005252D02*
X021028Y005252D01*
X020885Y004935D02*
X020806Y004935D01*
X020890Y004777D02*
X020647Y004777D01*
X020276Y004777D02*
X000531Y004777D01*
X000531Y004618D02*
X024035Y004618D01*
X024035Y004615D02*
X024299Y004350D01*
X024917Y004350D01*
X024985Y004418D01*
X025024Y004392D01*
X025067Y004350D01*
X025088Y004350D01*
X025105Y004338D01*
X025164Y004350D01*
X025224Y004350D01*
X025239Y004365D01*
X025260Y004369D01*
X025293Y004419D01*
X025335Y004461D01*
X025335Y004482D01*
X025569Y004833D01*
X025569Y004461D01*
X025681Y004350D01*
X025838Y004350D01*
X025949Y004461D01*
X025949Y004542D01*
X026141Y004350D01*
X026605Y004350D01*
X026717Y004461D01*
X026870Y004615D01*
X026870Y005386D01*
X026868Y005388D01*
X026605Y005651D01*
X026141Y005651D01*
X026030Y005539D01*
X025953Y005463D01*
X025949Y005480D01*
X025949Y005539D01*
X025934Y005554D01*
X025930Y005575D01*
X025880Y005608D01*
X025838Y005651D01*
X025817Y005651D01*
X025799Y005663D01*
X025740Y005651D01*
X025681Y005651D01*
X025666Y005636D01*
X025645Y005632D01*
X025612Y005582D01*
X025569Y005539D01*
X025569Y005518D01*
X025335Y005168D01*
X025335Y005539D01*
X025224Y005651D01*
X025067Y005651D01*
X024992Y005576D01*
X024917Y005651D01*
X024299Y005651D01*
X024188Y005539D01*
X024035Y005386D01*
X024035Y004615D01*
X024035Y004777D02*
X022796Y004777D01*
X022800Y004935D02*
X024035Y004935D01*
X024035Y005094D02*
X022493Y005094D01*
X022493Y005252D02*
X024035Y005252D01*
X024060Y005411D02*
X022800Y005411D01*
X022783Y005569D02*
X024218Y005569D01*
X025305Y005569D02*
X025599Y005569D01*
X025498Y005411D02*
X025335Y005411D01*
X025335Y005252D02*
X025392Y005252D01*
X025532Y004777D02*
X025569Y004777D01*
X025569Y004618D02*
X025426Y004618D01*
X025334Y004460D02*
X025571Y004460D01*
X025948Y004460D02*
X026031Y004460D01*
X025570Y003984D02*
X025470Y003984D01*
X025470Y003826D02*
X025570Y003826D01*
X025570Y003667D02*
X025470Y003667D01*
X025470Y003509D02*
X025570Y003509D01*
X025570Y003350D02*
X025470Y003350D01*
X025470Y003192D02*
X025570Y003192D01*
X025470Y003080D02*
X024950Y003080D01*
X024950Y002695D01*
X024964Y002607D01*
X024992Y002521D01*
X025032Y002441D01*
X025085Y002369D01*
X025149Y002305D01*
X025221Y002252D01*
X025301Y002212D01*
X025387Y002184D01*
X025470Y002171D01*
X025470Y003080D01*
X025470Y003033D02*
X025570Y003033D01*
X025570Y002875D02*
X025470Y002875D01*
X025470Y002716D02*
X025570Y002716D01*
X025570Y002558D02*
X025470Y002558D01*
X025470Y002399D02*
X025570Y002399D01*
X025570Y002241D02*
X025470Y002241D01*
X025244Y002241D02*
X023756Y002241D01*
X023657Y002200D02*
X023856Y002282D01*
X024008Y002434D01*
X024090Y002633D01*
X024090Y003627D01*
X024008Y003826D01*
X023856Y003978D01*
X023657Y004060D01*
X023443Y004060D01*
X023244Y003978D01*
X023092Y003826D01*
X023010Y003627D01*
X023010Y002633D01*
X023092Y002434D01*
X023244Y002282D01*
X023443Y002200D01*
X023657Y002200D01*
X023344Y002241D02*
X000531Y002241D01*
X000531Y002399D02*
X023127Y002399D01*
X023041Y002558D02*
X000531Y002558D01*
X000531Y002716D02*
X023010Y002716D01*
X023010Y002875D02*
X000531Y002875D01*
X000531Y003033D02*
X023010Y003033D01*
X023010Y003192D02*
X000531Y003192D01*
X000531Y003350D02*
X023010Y003350D01*
X023010Y003509D02*
X000531Y003509D01*
X000531Y003667D02*
X023027Y003667D01*
X023092Y003826D02*
X000531Y003826D01*
X000531Y003984D02*
X023260Y003984D01*
X023840Y003984D02*
X025190Y003984D01*
X025038Y003826D02*
X024008Y003826D01*
X024073Y003667D02*
X024969Y003667D01*
X024950Y003509D02*
X024090Y003509D01*
X024090Y003350D02*
X024950Y003350D01*
X024950Y003192D02*
X024090Y003192D01*
X024090Y003033D02*
X024950Y003033D01*
X024950Y002875D02*
X024090Y002875D01*
X024090Y002716D02*
X024950Y002716D01*
X024980Y002558D02*
X024059Y002558D01*
X023973Y002399D02*
X025063Y002399D01*
X024189Y004460D02*
X000531Y004460D01*
X000531Y004301D02*
X029990Y004301D01*
X029990Y004143D02*
X000531Y004143D01*
X000530Y000814D02*
X058592Y000814D01*
X058592Y000656D02*
X000530Y000656D01*
X000530Y000497D02*
X004242Y000497D01*
X000530Y000491D02*
X000540Y038970D01*
X019276Y038980D01*
X019236Y038940D01*
X017225Y038940D01*
X016963Y038678D01*
X016895Y038678D01*
X016774Y038628D01*
X016682Y038536D01*
X016632Y038415D01*
X016632Y038285D01*
X016682Y038164D01*
X016774Y038072D01*
X016895Y038022D01*
X017025Y038022D01*
X017146Y038072D01*
X017238Y038164D01*
X017288Y038285D01*
X017288Y038353D01*
X017415Y038480D01*
X019236Y038480D01*
X019284Y038432D01*
X019405Y038382D01*
X019535Y038382D01*
X019656Y038432D01*
X019748Y038524D01*
X019798Y038645D01*
X019798Y038775D01*
X019748Y038896D01*
X019664Y038980D01*
X058592Y039000D01*
X058592Y000599D01*
X000530Y000491D01*
X008320Y005728D02*
X019965Y005728D01*
X019992Y005886D02*
X008320Y005886D01*
X008320Y006045D02*
X029990Y006045D01*
X029990Y006203D02*
X008170Y006203D01*
X008232Y006362D02*
X029990Y006362D01*
X029990Y006520D02*
X008290Y006520D01*
X008281Y006679D02*
X029990Y006679D01*
X029990Y006837D02*
X008194Y006837D01*
X012985Y007630D02*
X013658Y007630D01*
X013280Y007789D02*
X016637Y007789D01*
X016374Y007630D02*
X016058Y007630D01*
X016106Y007582D02*
X015986Y007702D01*
X015829Y007767D01*
X015659Y007767D01*
X015502Y007702D01*
X015382Y007582D01*
X015350Y007506D01*
X015318Y007582D01*
X015198Y007702D01*
X015041Y007767D01*
X014871Y007767D01*
X014714Y007702D01*
X014594Y007582D01*
X014529Y007425D01*
X014529Y007255D01*
X014594Y007098D01*
X014714Y006978D01*
X014871Y006913D01*
X015041Y006913D01*
X015198Y006978D01*
X015318Y007098D01*
X015350Y007174D01*
X015382Y007098D01*
X015502Y006978D01*
X015659Y006913D01*
X015829Y006913D01*
X015986Y006978D01*
X016106Y007098D01*
X016171Y007255D01*
X016171Y007425D01*
X016106Y007582D01*
X016152Y007471D02*
X016290Y007471D01*
X016271Y007313D02*
X016171Y007313D01*
X016129Y007154D02*
X016309Y007154D01*
X016425Y006996D02*
X016004Y006996D01*
X015484Y006996D02*
X015216Y006996D01*
X015342Y007154D02*
X015358Y007154D01*
X015430Y007630D02*
X015270Y007630D01*
X014642Y007630D02*
X014286Y007630D01*
X014380Y007471D02*
X014548Y007471D01*
X014529Y007313D02*
X014399Y007313D01*
X014358Y007154D02*
X014571Y007154D01*
X014696Y006996D02*
X014232Y006996D01*
X018739Y008423D02*
X028213Y008423D01*
X028132Y008581D02*
X018733Y008581D01*
X018668Y008740D02*
X028146Y008740D01*
X028254Y008898D02*
X018581Y008898D01*
X022466Y005886D02*
X029990Y005886D01*
X029859Y005831D02*
X029701Y005831D01*
X029087Y005831D01*
X029013Y005756D01*
X028938Y005831D01*
X028781Y005831D01*
X028669Y005719D01*
X028669Y005106D01*
X028552Y004989D01*
X028435Y005106D01*
X028435Y005719D01*
X028324Y005831D01*
X028167Y005831D01*
X028055Y005719D01*
X028055Y004948D01*
X028474Y004530D01*
X028631Y004530D01*
X028742Y004641D01*
X028976Y004875D01*
X028976Y004795D01*
X029239Y004532D01*
X029241Y004530D01*
X029705Y004530D01*
X029970Y004795D01*
X029970Y004952D01*
X029902Y005021D01*
X029915Y005025D01*
X029936Y005068D01*
X029970Y005102D01*
X029970Y005136D01*
X029985Y005166D01*
X029970Y005211D01*
X029970Y005719D01*
X029859Y005831D01*
X029961Y005728D02*
X029990Y005728D01*
X029990Y005569D02*
X029970Y005569D01*
X029970Y005411D02*
X029990Y005411D01*
X029990Y005252D02*
X029970Y005252D01*
X029962Y005094D02*
X029990Y005094D01*
X029990Y004935D02*
X029970Y004935D01*
X029952Y004777D02*
X029990Y004777D01*
X029990Y004618D02*
X029794Y004618D01*
X029990Y004460D02*
X026715Y004460D01*
X026870Y004618D02*
X028385Y004618D01*
X028227Y004777D02*
X026870Y004777D01*
X026870Y004935D02*
X028068Y004935D01*
X028055Y005094D02*
X026870Y005094D01*
X026870Y005252D02*
X028055Y005252D01*
X028055Y005411D02*
X026845Y005411D01*
X026687Y005569D02*
X028055Y005569D01*
X028064Y005728D02*
X022625Y005728D01*
X025931Y005569D02*
X026060Y005569D01*
X028427Y005728D02*
X028678Y005728D01*
X028669Y005569D02*
X028435Y005569D01*
X028435Y005411D02*
X028669Y005411D01*
X028669Y005252D02*
X028435Y005252D01*
X028447Y005094D02*
X028658Y005094D01*
X028878Y004777D02*
X028994Y004777D01*
X029152Y004618D02*
X028719Y004618D01*
X032490Y004301D02*
X032508Y004301D01*
X031760Y008910D02*
X031760Y016780D01*
X032150Y017170D01*
X032452Y017299D02*
X039430Y017299D01*
X039430Y017457D02*
X032314Y017457D01*
X032478Y017140D02*
X039430Y017140D01*
X039430Y016982D02*
X032658Y016982D01*
X029290Y017120D02*
X029290Y010100D01*
X029240Y010050D01*
X028933Y010166D02*
X000533Y010166D01*
X000533Y010008D02*
X028912Y010008D01*
X028977Y009849D02*
X000532Y009849D01*
X000532Y009691D02*
X029215Y009691D01*
X029057Y009532D02*
X000532Y009532D01*
X000532Y009374D02*
X028898Y009374D01*
X029050Y010325D02*
X000533Y010325D01*
X000533Y010483D02*
X029060Y010483D01*
X029060Y010642D02*
X000533Y010642D01*
X000533Y010800D02*
X029060Y010800D01*
X029060Y010959D02*
X013443Y010959D01*
X013418Y010933D02*
X013697Y011212D01*
X013697Y011392D01*
X013238Y011392D01*
X013238Y011428D01*
X013697Y011428D01*
X013697Y011608D01*
X013418Y011887D01*
X013238Y011887D01*
X013238Y011428D01*
X013202Y011428D01*
X013202Y011392D01*
X013238Y011392D01*
X013238Y010933D01*
X013418Y010933D01*
X013238Y010959D02*
X013202Y010959D01*
X013202Y010933D02*
X013202Y011392D01*
X012743Y011392D01*
X012743Y011212D01*
X013022Y010933D01*
X013202Y010933D01*
X013202Y011117D02*
X013238Y011117D01*
X013238Y011276D02*
X013202Y011276D01*
X013202Y011428D02*
X012743Y011428D01*
X012743Y011608D01*
X013022Y011887D01*
X013202Y011887D01*
X013202Y011428D01*
X013202Y011434D02*
X013238Y011434D01*
X013238Y011593D02*
X013202Y011593D01*
X013202Y011751D02*
X013238Y011751D01*
X013405Y011963D02*
X013667Y012225D01*
X013667Y012595D01*
X013405Y012857D01*
X013035Y012857D01*
X012773Y012595D01*
X012773Y012225D01*
X013035Y011963D01*
X013405Y011963D01*
X013510Y012068D02*
X029060Y012068D01*
X029060Y011910D02*
X000533Y011910D01*
X000533Y012068D02*
X008930Y012068D01*
X009035Y011963D02*
X009405Y011963D01*
X009667Y012225D01*
X009667Y012595D01*
X009405Y012857D01*
X009035Y012857D01*
X008773Y012595D01*
X008773Y012225D01*
X009035Y011963D01*
X009035Y011857D02*
X008773Y011595D01*
X008773Y011225D01*
X009035Y010963D01*
X009405Y010963D01*
X009667Y011225D01*
X009667Y011595D01*
X009405Y011857D01*
X009035Y011857D01*
X008929Y011751D02*
X000533Y011751D01*
X000533Y011593D02*
X008773Y011593D01*
X008773Y011434D02*
X000533Y011434D01*
X000533Y011276D02*
X008773Y011276D01*
X008881Y011117D02*
X000533Y011117D01*
X000533Y010959D02*
X009997Y010959D01*
X010022Y010933D02*
X010202Y010933D01*
X010202Y011392D01*
X010238Y011392D01*
X010238Y011428D01*
X010697Y011428D01*
X010697Y011608D01*
X010418Y011887D01*
X010238Y011887D01*
X010238Y011428D01*
X010202Y011428D01*
X010202Y011392D01*
X009743Y011392D01*
X009743Y011212D01*
X010022Y010933D01*
X010202Y010959D02*
X010238Y010959D01*
X010238Y010933D02*
X010418Y010933D01*
X010697Y011212D01*
X010697Y011392D01*
X010238Y011392D01*
X010238Y010933D01*
X010238Y011117D02*
X010202Y011117D01*
X010202Y011276D02*
X010238Y011276D01*
X010202Y011428D02*
X009743Y011428D01*
X009743Y011608D01*
X010022Y011887D01*
X010202Y011887D01*
X010202Y011428D01*
X010202Y011434D02*
X010238Y011434D01*
X010238Y011593D02*
X010202Y011593D01*
X010202Y011751D02*
X010238Y011751D01*
X010405Y011963D02*
X010035Y011963D01*
X009773Y012225D01*
X009773Y012595D01*
X010035Y012857D01*
X010405Y012857D01*
X010667Y012595D01*
X010667Y012225D01*
X010405Y011963D01*
X010510Y012068D02*
X010930Y012068D01*
X011035Y011963D02*
X011405Y011963D01*
X011667Y012225D01*
X011667Y012595D01*
X011405Y012857D01*
X011035Y012857D01*
X010773Y012595D01*
X010773Y012225D01*
X011035Y011963D01*
X011022Y011887D02*
X010743Y011608D01*
X010743Y011428D01*
X011202Y011428D01*
X011202Y011392D01*
X011238Y011392D01*
X011238Y011428D01*
X011697Y011428D01*
X011697Y011608D01*
X011418Y011887D01*
X011238Y011887D01*
X011238Y011428D01*
X011202Y011428D01*
X011202Y011887D01*
X011022Y011887D01*
X010887Y011751D02*
X010553Y011751D01*
X010697Y011593D02*
X010743Y011593D01*
X010743Y011434D02*
X010697Y011434D01*
X010743Y011392D02*
X010743Y011212D01*
X011022Y010933D01*
X011202Y010933D01*
X011202Y011392D01*
X010743Y011392D01*
X010743Y011276D02*
X010697Y011276D01*
X010601Y011117D02*
X010839Y011117D01*
X010997Y010959D02*
X010443Y010959D01*
X009839Y011117D02*
X009559Y011117D01*
X009667Y011276D02*
X009743Y011276D01*
X009743Y011434D02*
X009667Y011434D01*
X009667Y011593D02*
X009743Y011593D01*
X009887Y011751D02*
X009511Y011751D01*
X009510Y012068D02*
X009930Y012068D01*
X009773Y012227D02*
X009667Y012227D01*
X009667Y012385D02*
X009773Y012385D01*
X009773Y012544D02*
X009667Y012544D01*
X009560Y012702D02*
X009880Y012702D01*
X010560Y012702D02*
X010880Y012702D01*
X010773Y012544D02*
X010667Y012544D01*
X010667Y012385D02*
X010773Y012385D01*
X010773Y012227D02*
X010667Y012227D01*
X011202Y011751D02*
X011238Y011751D01*
X011238Y011593D02*
X011202Y011593D01*
X011202Y011434D02*
X011238Y011434D01*
X011238Y011392D02*
X011697Y011392D01*
X011697Y011212D01*
X011418Y010933D01*
X011238Y010933D01*
X011238Y011392D01*
X011238Y011276D02*
X011202Y011276D01*
X011202Y011117D02*
X011238Y011117D01*
X011238Y010959D02*
X011202Y010959D01*
X011443Y010959D02*
X011997Y010959D01*
X012022Y010933D02*
X012202Y010933D01*
X012202Y011392D01*
X012238Y011392D01*
X012238Y011428D01*
X012697Y011428D01*
X012697Y011608D01*
X012418Y011887D01*
X012238Y011887D01*
X012238Y011428D01*
X012202Y011428D01*
X012202Y011392D01*
X011743Y011392D01*
X011743Y011212D01*
X012022Y010933D01*
X012202Y010959D02*
X012238Y010959D01*
X012238Y010933D02*
X012418Y010933D01*
X012697Y011212D01*
X012697Y011392D01*
X012238Y011392D01*
X012238Y010933D01*
X012238Y011117D02*
X012202Y011117D01*
X012202Y011276D02*
X012238Y011276D01*
X012202Y011428D02*
X011743Y011428D01*
X011743Y011608D01*
X012022Y011887D01*
X012202Y011887D01*
X012202Y011428D01*
X012202Y011434D02*
X012238Y011434D01*
X012238Y011593D02*
X012202Y011593D01*
X012202Y011751D02*
X012238Y011751D01*
X012405Y011963D02*
X012667Y012225D01*
X012667Y012595D01*
X012405Y012857D01*
X012035Y012857D01*
X011773Y012595D01*
X011773Y012225D01*
X012035Y011963D01*
X012405Y011963D01*
X012510Y012068D02*
X012930Y012068D01*
X012773Y012227D02*
X012667Y012227D01*
X012667Y012385D02*
X012773Y012385D01*
X012773Y012544D02*
X012667Y012544D01*
X012560Y012702D02*
X012880Y012702D01*
X013560Y012702D02*
X029060Y012702D01*
X029060Y012544D02*
X013667Y012544D01*
X013667Y012385D02*
X029060Y012385D01*
X029060Y012227D02*
X013667Y012227D01*
X013553Y011751D02*
X029060Y011751D01*
X029060Y011593D02*
X013697Y011593D01*
X013697Y011434D02*
X029060Y011434D01*
X029060Y011276D02*
X013697Y011276D01*
X013601Y011117D02*
X029060Y011117D01*
X029060Y012861D02*
X000533Y012861D01*
X000533Y013019D02*
X029060Y013019D01*
X029060Y013178D02*
X000533Y013178D01*
X000533Y013336D02*
X029060Y013336D01*
X029060Y013495D02*
X008546Y013495D01*
X008515Y013482D02*
X008636Y013532D01*
X008728Y013624D01*
X008778Y013745D01*
X008778Y013857D01*
X008982Y014120D01*
X016475Y014120D01*
X016610Y014255D01*
X018485Y016130D01*
X018515Y016130D01*
X018650Y016265D01*
X020885Y018500D01*
X021396Y018500D01*
X021444Y018452D01*
X021565Y018402D01*
X021695Y018402D01*
X021816Y018452D01*
X021908Y018544D01*
X021958Y018665D01*
X021958Y018795D01*
X021908Y018916D01*
X021816Y019008D01*
X021695Y019058D01*
X021565Y019058D01*
X021444Y019008D01*
X021396Y018960D01*
X020695Y018960D01*
X018325Y016590D01*
X018295Y016590D01*
X016285Y014580D01*
X008949Y014580D01*
X008936Y014590D01*
X008856Y014580D01*
X008775Y014580D01*
X008763Y014568D01*
X008747Y014566D01*
X008697Y014503D01*
X008640Y014445D01*
X008640Y014429D01*
X008414Y014138D01*
X008385Y014138D01*
X008264Y014088D01*
X008172Y013996D01*
X008122Y013875D01*
X008122Y013745D01*
X008172Y013624D01*
X008264Y013532D01*
X008385Y013482D01*
X008515Y013482D01*
X008354Y013495D02*
X000533Y013495D01*
X000533Y013653D02*
X008160Y013653D01*
X008122Y013812D02*
X000533Y013812D01*
X000534Y013970D02*
X008161Y013970D01*
X008362Y014129D02*
X000534Y014129D01*
X000534Y014287D02*
X008530Y014287D01*
X008640Y014446D02*
X000534Y014446D01*
X000534Y014604D02*
X016309Y014604D01*
X016467Y014763D02*
X000534Y014763D01*
X000534Y014921D02*
X016626Y014921D01*
X016784Y015080D02*
X000534Y015080D01*
X000534Y015238D02*
X016943Y015238D01*
X017101Y015397D02*
X000534Y015397D01*
X000534Y015555D02*
X017260Y015555D01*
X017418Y015714D02*
X000534Y015714D01*
X000534Y015872D02*
X017577Y015872D01*
X017735Y016031D02*
X000534Y016031D01*
X000534Y016189D02*
X017894Y016189D01*
X018052Y016348D02*
X000534Y016348D01*
X000534Y016506D02*
X018211Y016506D01*
X018390Y016360D02*
X016380Y014350D01*
X008870Y014350D01*
X008450Y013810D01*
X008778Y013812D02*
X029060Y013812D01*
X029060Y013970D02*
X019775Y013970D01*
X019755Y013962D02*
X019876Y014012D01*
X019968Y014104D01*
X020018Y014225D01*
X020018Y014355D01*
X019968Y014476D01*
X019920Y014524D01*
X019920Y014775D01*
X021717Y016572D01*
X021785Y016572D01*
X021906Y016622D01*
X021998Y016714D01*
X022048Y016835D01*
X022048Y016965D01*
X022001Y017080D01*
X022006Y017082D01*
X022098Y017174D01*
X022148Y017295D01*
X022148Y017425D01*
X022098Y017546D01*
X022006Y017638D01*
X021961Y017657D01*
X021998Y017694D01*
X022048Y017815D01*
X022048Y017945D01*
X021998Y018066D01*
X021906Y018158D01*
X021785Y018208D01*
X021655Y018208D01*
X021534Y018158D01*
X021486Y018110D01*
X020935Y018110D01*
X019203Y016378D01*
X019135Y016378D01*
X019014Y016328D01*
X018922Y016236D01*
X018872Y016115D01*
X018872Y015985D01*
X018922Y015864D01*
X019014Y015772D01*
X019135Y015722D01*
X019265Y015722D01*
X019285Y015730D01*
X019213Y015658D01*
X019145Y015658D01*
X019024Y015608D01*
X018932Y015516D01*
X018882Y015395D01*
X018882Y015265D01*
X018932Y015144D01*
X019024Y015052D01*
X019145Y015002D01*
X019275Y015002D01*
X019396Y015052D01*
X019488Y015144D01*
X019538Y015265D01*
X019538Y015333D01*
X020150Y015945D01*
X020150Y015965D01*
X021315Y017130D01*
X021486Y017130D01*
X021442Y017086D01*
X021392Y016965D01*
X021392Y016897D01*
X019460Y014965D01*
X019460Y014524D01*
X019412Y014476D01*
X019362Y014355D01*
X019362Y014225D01*
X019412Y014104D01*
X019504Y014012D01*
X019625Y013962D01*
X019755Y013962D01*
X019605Y013970D02*
X008866Y013970D01*
X008740Y013653D02*
X029060Y013653D01*
X029060Y014129D02*
X019978Y014129D01*
X020018Y014287D02*
X029060Y014287D01*
X029060Y014446D02*
X019981Y014446D01*
X019920Y014604D02*
X029060Y014604D01*
X029060Y014763D02*
X019920Y014763D01*
X020066Y014921D02*
X029060Y014921D01*
X029060Y015080D02*
X020225Y015080D01*
X020383Y015238D02*
X029060Y015238D01*
X029060Y015397D02*
X020542Y015397D01*
X020700Y015555D02*
X029060Y015555D01*
X029060Y015714D02*
X020859Y015714D01*
X021017Y015872D02*
X029060Y015872D01*
X029060Y016031D02*
X021176Y016031D01*
X021334Y016189D02*
X029060Y016189D01*
X029060Y016348D02*
X021493Y016348D01*
X021651Y016506D02*
X029060Y016506D01*
X029060Y016665D02*
X021949Y016665D01*
X022043Y016823D02*
X029060Y016823D01*
X028992Y016982D02*
X022041Y016982D01*
X022064Y017140D02*
X028962Y017140D01*
X029009Y017299D02*
X022148Y017299D01*
X022135Y017457D02*
X029298Y017457D01*
X029139Y017616D02*
X022029Y017616D01*
X022031Y017774D02*
X028981Y017774D01*
X028822Y017933D02*
X022048Y017933D01*
X021973Y018091D02*
X028664Y018091D01*
X028505Y018250D02*
X020635Y018250D01*
X020793Y018408D02*
X021550Y018408D01*
X021710Y018408D02*
X028347Y018408D01*
X028049Y018567D02*
X021917Y018567D01*
X021958Y018725D02*
X027950Y018725D01*
X027945Y018884D02*
X021922Y018884D01*
X021734Y019042D02*
X028038Y019042D01*
X029067Y019518D02*
X003289Y019518D01*
X003185Y019413D02*
X003447Y019675D01*
X003447Y020045D01*
X003185Y020307D01*
X002815Y020307D01*
X002553Y020045D01*
X002553Y019675D01*
X002815Y019413D01*
X003185Y019413D01*
X003185Y019307D02*
X002815Y019307D01*
X002553Y019045D01*
X002553Y018675D01*
X002815Y018413D01*
X003185Y018413D01*
X003447Y018675D01*
X003447Y019045D01*
X003185Y019307D01*
X003291Y019201D02*
X029384Y019201D01*
X029226Y019359D02*
X000535Y019359D01*
X000535Y019201D02*
X001709Y019201D01*
X001815Y019307D02*
X001553Y019045D01*
X001553Y018675D01*
X001815Y018413D01*
X002185Y018413D01*
X002447Y018675D01*
X002447Y019045D01*
X002185Y019307D01*
X001815Y019307D01*
X001815Y019413D02*
X001553Y019675D01*
X001553Y020045D01*
X001815Y020307D01*
X002185Y020307D01*
X002447Y020045D01*
X002447Y019675D01*
X002185Y019413D01*
X001815Y019413D01*
X001711Y019518D02*
X000535Y019518D01*
X000535Y019676D02*
X001553Y019676D01*
X001553Y019835D02*
X000535Y019835D01*
X000535Y019993D02*
X001553Y019993D01*
X001660Y020152D02*
X000535Y020152D01*
X000535Y020310D02*
X012443Y020310D01*
X012299Y020469D02*
X003240Y020469D01*
X003399Y020627D02*
X012272Y020627D01*
X012322Y020786D02*
X003447Y020786D01*
X002760Y020469D02*
X002240Y020469D01*
X002185Y020413D02*
X002447Y020675D01*
X002447Y021045D01*
X002185Y021307D01*
X001815Y021307D01*
X001553Y021045D01*
X001553Y020675D01*
X001815Y020413D01*
X002185Y020413D01*
X002399Y020627D02*
X002601Y020627D01*
X002553Y020786D02*
X002447Y020786D01*
X002447Y020944D02*
X002553Y020944D01*
X002611Y021103D02*
X002389Y021103D01*
X002231Y021261D02*
X002769Y021261D01*
X002809Y021420D02*
X002191Y021420D01*
X002185Y021413D02*
X002447Y021675D01*
X002447Y022045D01*
X002185Y022307D01*
X001815Y022307D01*
X001553Y022045D01*
X001553Y021675D01*
X001815Y021413D01*
X002185Y021413D01*
X002350Y021578D02*
X002650Y021578D01*
X002553Y021737D02*
X002447Y021737D01*
X002447Y021895D02*
X002553Y021895D01*
X002562Y022054D02*
X002438Y022054D01*
X002280Y022212D02*
X002720Y022212D01*
X002699Y022529D02*
X002301Y022529D01*
X002447Y022688D02*
X002553Y022688D01*
X002553Y022846D02*
X002447Y022846D01*
X002447Y023005D02*
X002553Y023005D01*
X002671Y023163D02*
X002329Y023163D01*
X002252Y023480D02*
X002748Y023480D01*
X002590Y023639D02*
X002410Y023639D01*
X002447Y023797D02*
X002553Y023797D01*
X002553Y023956D02*
X002447Y023956D01*
X002378Y024114D02*
X002622Y024114D01*
X002781Y024273D02*
X002219Y024273D01*
X002185Y024413D02*
X002447Y024675D01*
X002447Y025045D01*
X002185Y025307D01*
X001815Y025307D01*
X001553Y025045D01*
X001553Y024675D01*
X001815Y024413D01*
X002185Y024413D01*
X002203Y024431D02*
X002797Y024431D01*
X002639Y024590D02*
X002361Y024590D01*
X002447Y024748D02*
X002553Y024748D01*
X002553Y024907D02*
X002447Y024907D01*
X002427Y025065D02*
X002573Y025065D01*
X002732Y025224D02*
X002268Y025224D01*
X001732Y025224D02*
X000536Y025224D01*
X000536Y025065D02*
X001573Y025065D01*
X001553Y024907D02*
X000536Y024907D01*
X000536Y024748D02*
X001553Y024748D01*
X001639Y024590D02*
X000536Y024590D01*
X000536Y024431D02*
X001797Y024431D01*
X001781Y024273D02*
X000536Y024273D01*
X000536Y024114D02*
X001622Y024114D01*
X001553Y023956D02*
X000536Y023956D01*
X000536Y023797D02*
X001553Y023797D01*
X001590Y023639D02*
X000536Y023639D01*
X000536Y022212D02*
X001720Y022212D01*
X001562Y022054D02*
X000536Y022054D01*
X000536Y021895D02*
X001553Y021895D01*
X001553Y021737D02*
X000536Y021737D01*
X000535Y021578D02*
X001650Y021578D01*
X001809Y021420D02*
X000535Y021420D01*
X000535Y021261D02*
X001769Y021261D01*
X001611Y021103D02*
X000535Y021103D01*
X000535Y020944D02*
X001553Y020944D01*
X001553Y020786D02*
X000535Y020786D01*
X000535Y020627D02*
X001601Y020627D01*
X001760Y020469D02*
X000535Y020469D01*
X000535Y019042D02*
X001553Y019042D01*
X001553Y018884D02*
X000535Y018884D01*
X000535Y018725D02*
X001553Y018725D01*
X001662Y018567D02*
X000535Y018567D01*
X000535Y018408D02*
X020143Y018408D01*
X020301Y018567D02*
X003338Y018567D01*
X003447Y018725D02*
X020460Y018725D01*
X020618Y018884D02*
X003447Y018884D01*
X003447Y019042D02*
X021526Y019042D01*
X021630Y018730D02*
X020790Y018730D01*
X018420Y016360D01*
X018390Y016360D01*
X018574Y016189D02*
X018902Y016189D01*
X018872Y016031D02*
X018386Y016031D01*
X018227Y015872D02*
X018919Y015872D01*
X018971Y015555D02*
X017910Y015555D01*
X017752Y015397D02*
X018882Y015397D01*
X018893Y015238D02*
X017593Y015238D01*
X017435Y015080D02*
X018996Y015080D01*
X019210Y015330D02*
X019920Y016040D01*
X019920Y016060D01*
X021220Y017360D01*
X021820Y017360D01*
X021720Y016900D02*
X019690Y014870D01*
X019690Y014290D01*
X019362Y014287D02*
X016642Y014287D01*
X016484Y014129D02*
X019402Y014129D01*
X019399Y014446D02*
X016801Y014446D01*
X016959Y014604D02*
X019460Y014604D01*
X019460Y014763D02*
X017118Y014763D01*
X017276Y014921D02*
X019460Y014921D01*
X019424Y015080D02*
X019574Y015080D01*
X019527Y015238D02*
X019733Y015238D01*
X019602Y015397D02*
X019891Y015397D01*
X019760Y015555D02*
X020050Y015555D01*
X019919Y015714D02*
X020208Y015714D01*
X020077Y015872D02*
X020367Y015872D01*
X020216Y016031D02*
X020525Y016031D01*
X020374Y016189D02*
X020684Y016189D01*
X020533Y016348D02*
X020842Y016348D01*
X020691Y016506D02*
X021001Y016506D01*
X020850Y016665D02*
X021159Y016665D01*
X021008Y016823D02*
X021318Y016823D01*
X021399Y016982D02*
X021167Y016982D01*
X020440Y017616D02*
X020001Y017616D01*
X020159Y017774D02*
X020599Y017774D01*
X020757Y017933D02*
X020318Y017933D01*
X020476Y018091D02*
X020916Y018091D01*
X021030Y017880D02*
X019200Y016050D01*
X019061Y016348D02*
X018733Y016348D01*
X018891Y016506D02*
X019331Y016506D01*
X019489Y016665D02*
X019050Y016665D01*
X019208Y016823D02*
X019648Y016823D01*
X019806Y016982D02*
X019367Y016982D01*
X019525Y017140D02*
X019965Y017140D01*
X020123Y017299D02*
X019684Y017299D01*
X019842Y017457D02*
X020282Y017457D01*
X019667Y017933D02*
X003447Y017933D01*
X003447Y018045D02*
X003185Y018307D01*
X002815Y018307D01*
X002553Y018045D01*
X002553Y017675D01*
X002815Y017413D01*
X003185Y017413D01*
X003447Y017675D01*
X003447Y018045D01*
X003401Y018091D02*
X019826Y018091D01*
X019984Y018250D02*
X003242Y018250D01*
X002758Y018250D02*
X002242Y018250D01*
X002185Y018307D02*
X001815Y018307D01*
X001553Y018045D01*
X001553Y017675D01*
X001815Y017413D01*
X002185Y017413D01*
X002447Y017675D01*
X002447Y018045D01*
X002185Y018307D01*
X002338Y018567D02*
X002662Y018567D01*
X002553Y018725D02*
X002447Y018725D01*
X002447Y018884D02*
X002553Y018884D01*
X002553Y019042D02*
X002447Y019042D01*
X002291Y019201D02*
X002709Y019201D01*
X002711Y019518D02*
X002289Y019518D01*
X002447Y019676D02*
X002553Y019676D01*
X002553Y019835D02*
X002447Y019835D01*
X002447Y019993D02*
X002553Y019993D01*
X002660Y020152D02*
X002340Y020152D01*
X003340Y020152D02*
X018623Y020152D01*
X018465Y020310D02*
X012757Y020310D01*
X012600Y020600D02*
X018500Y020600D01*
X018798Y020627D02*
X019398Y020627D01*
X019556Y020469D02*
X018957Y020469D01*
X018782Y019993D02*
X003447Y019993D01*
X003447Y019835D02*
X018940Y019835D01*
X019099Y019676D02*
X003447Y019676D01*
X001758Y018250D02*
X000535Y018250D01*
X000535Y018091D02*
X001599Y018091D01*
X001553Y017933D02*
X000535Y017933D01*
X000534Y017774D02*
X001553Y017774D01*
X001613Y017616D02*
X000534Y017616D01*
X000534Y017457D02*
X001771Y017457D01*
X002229Y017457D02*
X002771Y017457D01*
X002613Y017616D02*
X002387Y017616D01*
X002447Y017774D02*
X002553Y017774D01*
X002553Y017933D02*
X002447Y017933D01*
X002401Y018091D02*
X002599Y018091D01*
X003229Y017457D02*
X019192Y017457D01*
X019350Y017616D02*
X003387Y017616D01*
X003447Y017774D02*
X019509Y017774D01*
X019033Y017299D02*
X000534Y017299D01*
X000534Y017140D02*
X018875Y017140D01*
X018716Y016982D02*
X000534Y016982D01*
X000534Y016823D02*
X018558Y016823D01*
X018399Y016665D02*
X000534Y016665D01*
X000533Y012702D02*
X008880Y012702D01*
X008773Y012544D02*
X000533Y012544D01*
X000533Y012385D02*
X008773Y012385D01*
X008773Y012227D02*
X000533Y012227D01*
X011510Y012068D02*
X011930Y012068D01*
X011773Y012227D02*
X011667Y012227D01*
X011667Y012385D02*
X011773Y012385D01*
X011773Y012544D02*
X011667Y012544D01*
X011560Y012702D02*
X011880Y012702D01*
X011887Y011751D02*
X011553Y011751D01*
X011697Y011593D02*
X011743Y011593D01*
X011743Y011434D02*
X011697Y011434D01*
X011697Y011276D02*
X011743Y011276D01*
X011839Y011117D02*
X011601Y011117D01*
X012443Y010959D02*
X012997Y010959D01*
X012839Y011117D02*
X012601Y011117D01*
X012697Y011276D02*
X012743Y011276D01*
X012743Y011434D02*
X012697Y011434D01*
X012697Y011593D02*
X012743Y011593D01*
X012887Y011751D02*
X012553Y011751D01*
X018069Y015714D02*
X019268Y015714D01*
X021030Y017880D02*
X021720Y017880D01*
X022008Y020944D02*
X031831Y020944D01*
X031672Y021103D02*
X021997Y021103D01*
X021893Y021261D02*
X031514Y021261D01*
X031355Y021420D02*
X021596Y021420D01*
X021437Y021578D02*
X031197Y021578D01*
X031038Y021737D02*
X021279Y021737D01*
X021120Y021895D02*
X030880Y021895D01*
X030721Y022054D02*
X020962Y022054D01*
X020803Y022212D02*
X030563Y022212D01*
X030404Y022371D02*
X020645Y022371D01*
X020486Y022529D02*
X030246Y022529D01*
X030087Y022688D02*
X020328Y022688D01*
X020169Y022846D02*
X029929Y022846D01*
X029635Y023005D02*
X020011Y023005D01*
X019852Y023163D02*
X029587Y023163D01*
X029616Y023322D02*
X018392Y023322D01*
X018170Y023080D02*
X019610Y023080D01*
X021680Y021010D01*
X021352Y020944D02*
X019731Y020944D01*
X019573Y021103D02*
X021262Y021103D01*
X021104Y021261D02*
X019414Y021261D01*
X019256Y021420D02*
X020945Y021420D01*
X020787Y021578D02*
X019097Y021578D01*
X018939Y021737D02*
X020628Y021737D01*
X020470Y021895D02*
X018780Y021895D01*
X018622Y022054D02*
X020311Y022054D01*
X020153Y022212D02*
X018463Y022212D01*
X018400Y022846D02*
X019519Y022846D01*
X019677Y022688D02*
X016470Y022688D01*
X016470Y022846D02*
X017940Y022846D01*
X017846Y023005D02*
X016470Y023005D01*
X016470Y023163D02*
X017849Y023163D01*
X017948Y023322D02*
X016470Y023322D01*
X016470Y023480D02*
X029756Y023480D01*
X029653Y023639D02*
X016470Y023639D01*
X016470Y023797D02*
X029643Y023797D01*
X029732Y023956D02*
X016470Y023956D01*
X016470Y024114D02*
X029726Y024114D01*
X029601Y024273D02*
X016470Y024273D01*
X016470Y024431D02*
X029577Y024431D01*
X029636Y024590D02*
X016470Y024590D01*
X016470Y024748D02*
X029708Y024748D01*
X029592Y024935D02*
X029592Y025065D01*
X029905Y024395D02*
X033120Y021180D01*
X033140Y021180D01*
X033220Y020480D02*
X029970Y023730D01*
X029915Y023185D02*
X033100Y020000D01*
X033100Y019900D01*
X033220Y020470D02*
X033220Y020480D01*
X039890Y020469D02*
X039900Y020469D01*
X039890Y020627D02*
X039900Y020627D01*
X039890Y020786D02*
X039900Y020786D01*
X039890Y020944D02*
X039900Y020944D01*
X039890Y021103D02*
X039900Y021103D01*
X039890Y021261D02*
X039900Y021261D01*
X039890Y021420D02*
X039900Y021420D01*
X039890Y021578D02*
X039900Y021578D01*
X039890Y021737D02*
X039900Y021737D01*
X039890Y021895D02*
X039900Y021895D01*
X039890Y022054D02*
X039900Y022054D01*
X039890Y022212D02*
X039900Y022212D01*
X039890Y022371D02*
X039900Y022371D01*
X039890Y022529D02*
X039900Y022529D01*
X039890Y022688D02*
X039900Y022688D01*
X039890Y022846D02*
X039900Y022846D01*
X039890Y023005D02*
X039900Y023005D01*
X039890Y023163D02*
X039900Y023163D01*
X039890Y023322D02*
X039900Y023322D01*
X039890Y023480D02*
X039900Y023480D01*
X039890Y023639D02*
X039900Y023639D01*
X039890Y023797D02*
X039900Y023797D01*
X039890Y023956D02*
X039900Y023956D01*
X039890Y024114D02*
X039900Y024114D01*
X039890Y024273D02*
X039900Y024273D01*
X039890Y024431D02*
X039900Y024431D01*
X039890Y024590D02*
X039900Y024590D01*
X040130Y024850D02*
X040130Y006970D01*
X040120Y006960D01*
X040299Y006679D02*
X040340Y006679D01*
X040800Y006679D02*
X055207Y006679D01*
X055265Y006737D02*
X055003Y006475D01*
X055003Y006105D01*
X055265Y005843D01*
X055635Y005843D01*
X055897Y006105D01*
X055897Y006475D01*
X055635Y006737D01*
X055265Y006737D01*
X055265Y006843D02*
X055635Y006843D01*
X055897Y007105D01*
X055897Y007475D01*
X055635Y007737D01*
X055265Y007737D01*
X055003Y007475D01*
X055003Y007105D01*
X055265Y006843D01*
X055112Y006996D02*
X040800Y006996D01*
X040800Y007154D02*
X055003Y007154D01*
X055003Y007313D02*
X040800Y007313D01*
X040800Y007471D02*
X055003Y007471D01*
X055158Y007630D02*
X040800Y007630D01*
X040800Y007789D02*
X058592Y007789D01*
X058592Y007947D02*
X056739Y007947D01*
X056635Y007843D02*
X056897Y008105D01*
X056897Y008475D01*
X056635Y008737D01*
X056265Y008737D01*
X056003Y008475D01*
X056003Y008105D01*
X056265Y007843D01*
X056635Y007843D01*
X056635Y007737D02*
X056265Y007737D01*
X056003Y007475D01*
X056003Y007105D01*
X056265Y006843D01*
X056635Y006843D01*
X056897Y007105D01*
X056897Y007475D01*
X056635Y007737D01*
X056742Y007630D02*
X058592Y007630D01*
X058592Y007471D02*
X056897Y007471D01*
X056897Y007313D02*
X058592Y007313D01*
X058592Y007154D02*
X056897Y007154D01*
X056788Y006996D02*
X058592Y006996D01*
X058592Y006837D02*
X040800Y006837D01*
X040800Y006520D02*
X055049Y006520D01*
X055003Y006362D02*
X040800Y006362D01*
X040800Y006203D02*
X055003Y006203D01*
X055063Y006045D02*
X040800Y006045D01*
X040800Y005886D02*
X055222Y005886D01*
X055265Y005737D02*
X055003Y005475D01*
X055003Y005105D01*
X055265Y004843D01*
X055635Y004843D01*
X055897Y005105D01*
X055897Y005475D01*
X055635Y005737D01*
X055265Y005737D01*
X055256Y005728D02*
X040800Y005728D01*
X040800Y005569D02*
X055098Y005569D01*
X055003Y005411D02*
X040800Y005411D01*
X040800Y005252D02*
X055003Y005252D01*
X055014Y005094D02*
X040800Y005094D01*
X040800Y004935D02*
X055173Y004935D01*
X055265Y004737D02*
X055003Y004475D01*
X055003Y004105D01*
X055265Y003843D01*
X055635Y003843D01*
X055897Y004105D01*
X055897Y004475D01*
X055635Y004737D01*
X055265Y004737D01*
X055147Y004618D02*
X040800Y004618D01*
X040800Y004460D02*
X055003Y004460D01*
X055003Y004301D02*
X040800Y004301D01*
X040800Y004143D02*
X055003Y004143D01*
X055124Y003984D02*
X040800Y003984D01*
X040800Y003826D02*
X058592Y003826D01*
X058592Y003984D02*
X056776Y003984D01*
X056897Y004105D02*
X056635Y003843D01*
X056265Y003843D01*
X056003Y004105D01*
X056003Y004475D01*
X056265Y004737D01*
X056635Y004737D01*
X056897Y004475D01*
X056897Y004105D01*
X056897Y004143D02*
X058592Y004143D01*
X058592Y004301D02*
X056897Y004301D01*
X056897Y004460D02*
X058592Y004460D01*
X058592Y004618D02*
X056753Y004618D01*
X056635Y004843D02*
X056897Y005105D01*
X056897Y005475D01*
X056635Y005737D01*
X056265Y005737D01*
X056003Y005475D01*
X056003Y005105D01*
X056265Y004843D01*
X056635Y004843D01*
X056727Y004935D02*
X058592Y004935D01*
X058592Y004777D02*
X040800Y004777D01*
X040800Y003667D02*
X055196Y003667D01*
X055265Y003737D02*
X055003Y003475D01*
X055003Y003105D01*
X055265Y002843D01*
X055635Y002843D01*
X055897Y003105D01*
X055897Y003475D01*
X055635Y003737D01*
X055265Y003737D01*
X055037Y003509D02*
X040800Y003509D01*
X040800Y003350D02*
X055003Y003350D01*
X055003Y003192D02*
X040800Y003192D01*
X040800Y003033D02*
X055075Y003033D01*
X055233Y002875D02*
X040800Y002875D01*
X040800Y002716D02*
X058592Y002716D01*
X058592Y002558D02*
X040800Y002558D01*
X040800Y002399D02*
X058592Y002399D01*
X058592Y002241D02*
X040800Y002241D01*
X040570Y001420D02*
X040580Y001410D01*
X040570Y001420D02*
X040570Y019170D01*
X040872Y019042D02*
X049936Y019042D01*
X049873Y019105D02*
X050135Y018843D01*
X050505Y018843D01*
X050767Y019105D01*
X050767Y019475D01*
X050505Y019737D01*
X050135Y019737D01*
X049873Y019475D01*
X049873Y019105D01*
X049873Y019201D02*
X040898Y019201D01*
X040845Y019359D02*
X049873Y019359D01*
X049916Y019518D02*
X040360Y019518D01*
X040360Y019676D02*
X050074Y019676D01*
X050135Y019843D02*
X050505Y019843D01*
X050767Y020105D01*
X050767Y020475D01*
X050505Y020737D01*
X050135Y020737D01*
X049873Y020475D01*
X049873Y020105D01*
X050135Y019843D01*
X049985Y019993D02*
X040360Y019993D01*
X040360Y019835D02*
X055023Y019835D01*
X055023Y019715D02*
X055023Y020085D01*
X055285Y020347D01*
X055655Y020347D01*
X055917Y020085D01*
X055917Y019715D01*
X055655Y019453D01*
X055285Y019453D01*
X055023Y019715D01*
X055062Y019676D02*
X051566Y019676D01*
X051505Y019737D02*
X051767Y019475D01*
X051767Y019105D01*
X051505Y018843D01*
X051135Y018843D01*
X050873Y019105D01*
X050873Y019475D01*
X051135Y019737D01*
X051505Y019737D01*
X051505Y019843D02*
X051767Y020105D01*
X051767Y020475D01*
X051505Y020737D01*
X051135Y020737D01*
X050873Y020475D01*
X050873Y020105D01*
X051135Y019843D01*
X051505Y019843D01*
X051655Y019993D02*
X055023Y019993D01*
X055090Y020152D02*
X051767Y020152D01*
X051767Y020310D02*
X055248Y020310D01*
X055285Y020453D02*
X055655Y020453D01*
X055917Y020715D01*
X055917Y021085D01*
X055655Y021347D01*
X055285Y021347D01*
X055023Y021085D01*
X055023Y020715D01*
X055285Y020453D01*
X055270Y020469D02*
X051767Y020469D01*
X051615Y020627D02*
X055111Y020627D01*
X055023Y020786D02*
X040360Y020786D01*
X040360Y020944D02*
X050034Y020944D01*
X050135Y020843D02*
X050505Y020843D01*
X050767Y021105D01*
X050767Y021475D01*
X050505Y021737D01*
X050135Y021737D01*
X049873Y021475D01*
X049873Y021105D01*
X050135Y020843D01*
X050025Y020627D02*
X040360Y020627D01*
X040360Y020469D02*
X049873Y020469D01*
X049873Y020310D02*
X040360Y020310D01*
X040360Y020152D02*
X049873Y020152D01*
X050655Y019993D02*
X050985Y019993D01*
X050873Y020152D02*
X050767Y020152D01*
X050767Y020310D02*
X050873Y020310D01*
X050873Y020469D02*
X050767Y020469D01*
X050615Y020627D02*
X051025Y020627D01*
X051135Y020843D02*
X051505Y020843D01*
X051767Y021105D01*
X051767Y021475D01*
X051505Y021737D01*
X051135Y021737D01*
X050873Y021475D01*
X050873Y021105D01*
X051135Y020843D01*
X051034Y020944D02*
X050606Y020944D01*
X050764Y021103D02*
X050876Y021103D01*
X050873Y021261D02*
X050767Y021261D01*
X050767Y021420D02*
X050873Y021420D01*
X050976Y021578D02*
X050664Y021578D01*
X050505Y021737D02*
X051135Y021737D01*
X051135Y021843D02*
X050873Y022105D01*
X050873Y022475D01*
X051135Y022737D01*
X051505Y022737D01*
X051767Y022475D01*
X051767Y022105D01*
X051505Y021843D01*
X051135Y021843D01*
X051083Y021895D02*
X050557Y021895D01*
X050505Y021843D02*
X050767Y022105D01*
X050767Y022475D01*
X050505Y022737D01*
X050135Y022737D01*
X049873Y022475D01*
X049873Y022105D01*
X050135Y021843D01*
X050505Y021843D01*
X050715Y022054D02*
X050925Y022054D01*
X050873Y022212D02*
X050767Y022212D01*
X050767Y022371D02*
X050873Y022371D01*
X050927Y022529D02*
X050713Y022529D01*
X050554Y022688D02*
X051086Y022688D01*
X051135Y022843D02*
X051505Y022843D01*
X051767Y023105D01*
X051767Y023475D01*
X051505Y023737D01*
X051135Y023737D01*
X050873Y023475D01*
X050873Y023105D01*
X051135Y022843D01*
X051132Y022846D02*
X050508Y022846D01*
X050505Y022843D02*
X050767Y023105D01*
X050767Y023475D01*
X050505Y023737D01*
X050135Y023737D01*
X049873Y023475D01*
X049873Y023105D01*
X050135Y022843D01*
X050505Y022843D01*
X050666Y023005D02*
X050974Y023005D01*
X050873Y023163D02*
X050767Y023163D01*
X050767Y023322D02*
X050873Y023322D01*
X050878Y023480D02*
X050762Y023480D01*
X050603Y023639D02*
X051037Y023639D01*
X051135Y023843D02*
X050873Y024105D01*
X050873Y024475D01*
X051135Y024737D01*
X051505Y024737D01*
X051767Y024475D01*
X051767Y024105D01*
X051505Y023843D01*
X051135Y023843D01*
X051023Y023956D02*
X050617Y023956D01*
X050505Y023843D02*
X050767Y024105D01*
X050767Y024475D01*
X050505Y024737D01*
X050135Y024737D01*
X049873Y024475D01*
X049873Y024105D01*
X050135Y023843D01*
X050505Y023843D01*
X050767Y024114D02*
X050873Y024114D01*
X050873Y024273D02*
X050767Y024273D01*
X050767Y024431D02*
X050873Y024431D01*
X050988Y024590D02*
X050652Y024590D01*
X050505Y024843D02*
X050767Y025105D01*
X050767Y025475D01*
X050505Y025737D01*
X050135Y025737D01*
X049873Y025475D01*
X049873Y025105D01*
X050135Y024843D01*
X050505Y024843D01*
X050568Y024907D02*
X051072Y024907D01*
X051135Y024843D02*
X051505Y024843D01*
X051767Y025105D01*
X051767Y025475D01*
X051505Y025737D01*
X051135Y025737D01*
X050873Y025475D01*
X050873Y025105D01*
X051135Y024843D01*
X050913Y025065D02*
X050727Y025065D01*
X050767Y025224D02*
X050873Y025224D01*
X050873Y025382D02*
X050767Y025382D01*
X050701Y025541D02*
X050939Y025541D01*
X051097Y025699D02*
X050543Y025699D01*
X050097Y025699D02*
X039890Y025699D01*
X039890Y025541D02*
X049939Y025541D01*
X049873Y025382D02*
X039890Y025382D01*
X039890Y025224D02*
X049873Y025224D01*
X049913Y025065D02*
X040379Y025065D01*
X040458Y024907D02*
X050072Y024907D01*
X049988Y024590D02*
X040360Y024590D01*
X040360Y024431D02*
X049873Y024431D01*
X049873Y024273D02*
X040360Y024273D01*
X040360Y024114D02*
X049873Y024114D01*
X050023Y023956D02*
X040360Y023956D01*
X040360Y023797D02*
X058592Y023797D01*
X058592Y023639D02*
X051603Y023639D01*
X051762Y023480D02*
X058592Y023480D01*
X058592Y023322D02*
X051767Y023322D01*
X051767Y023163D02*
X058592Y023163D01*
X058592Y023005D02*
X051666Y023005D01*
X051508Y022846D02*
X058592Y022846D01*
X058592Y022688D02*
X051554Y022688D01*
X051713Y022529D02*
X058592Y022529D01*
X058592Y022371D02*
X051767Y022371D01*
X051767Y022212D02*
X055150Y022212D01*
X055023Y022085D02*
X055285Y022347D01*
X055655Y022347D01*
X055917Y022085D01*
X055917Y021715D01*
X055655Y021453D01*
X055285Y021453D01*
X055023Y021715D01*
X055023Y022085D01*
X055023Y022054D02*
X051715Y022054D01*
X051557Y021895D02*
X055023Y021895D01*
X055023Y021737D02*
X051505Y021737D01*
X051664Y021578D02*
X055160Y021578D01*
X055199Y021261D02*
X051767Y021261D01*
X051764Y021103D02*
X055041Y021103D01*
X055023Y020944D02*
X051606Y020944D01*
X051767Y021420D02*
X058592Y021420D01*
X058592Y021578D02*
X056780Y021578D01*
X056655Y021453D02*
X056917Y021715D01*
X056917Y022085D01*
X056655Y022347D01*
X056285Y022347D01*
X056023Y022085D01*
X056023Y021715D01*
X056285Y021453D01*
X056655Y021453D01*
X056655Y021347D02*
X056285Y021347D01*
X056023Y021085D01*
X056023Y020715D01*
X056285Y020453D01*
X056655Y020453D01*
X056917Y020715D01*
X056917Y021085D01*
X056655Y021347D01*
X056741Y021261D02*
X058592Y021261D01*
X058592Y021103D02*
X056899Y021103D01*
X056917Y020944D02*
X058592Y020944D01*
X058592Y020786D02*
X056917Y020786D01*
X056829Y020627D02*
X058592Y020627D01*
X058592Y020469D02*
X056670Y020469D01*
X056655Y020347D02*
X056285Y020347D01*
X056023Y020085D01*
X056023Y019715D01*
X056285Y019453D01*
X056655Y019453D01*
X056917Y019715D01*
X056917Y020085D01*
X056655Y020347D01*
X056692Y020310D02*
X058592Y020310D01*
X058592Y020152D02*
X056850Y020152D01*
X056917Y019993D02*
X058592Y019993D01*
X058592Y019835D02*
X056917Y019835D01*
X056878Y019676D02*
X058592Y019676D01*
X058592Y019518D02*
X056719Y019518D01*
X056655Y019347D02*
X056285Y019347D01*
X056023Y019085D01*
X056023Y018715D01*
X056285Y018453D01*
X056655Y018453D01*
X056917Y018715D01*
X056917Y019085D01*
X056655Y019347D01*
X056801Y019201D02*
X058592Y019201D01*
X058592Y019359D02*
X051767Y019359D01*
X051767Y019201D02*
X055139Y019201D01*
X055023Y019085D02*
X055285Y019347D01*
X055655Y019347D01*
X055917Y019085D01*
X055917Y018715D01*
X055655Y018453D01*
X055285Y018453D01*
X055023Y018715D01*
X055023Y019085D01*
X055023Y019042D02*
X051704Y019042D01*
X051545Y018884D02*
X055023Y018884D01*
X055023Y018725D02*
X051517Y018725D01*
X051505Y018737D02*
X051767Y018475D01*
X051767Y018105D01*
X051505Y017843D01*
X051135Y017843D01*
X050873Y018105D01*
X050873Y018475D01*
X051135Y018737D01*
X051505Y018737D01*
X051675Y018567D02*
X055172Y018567D01*
X055285Y018347D02*
X055023Y018085D01*
X055023Y017715D01*
X055285Y017453D01*
X055655Y017453D01*
X055917Y017715D01*
X055917Y018085D01*
X055655Y018347D01*
X055285Y018347D01*
X055188Y018250D02*
X051767Y018250D01*
X051767Y018408D02*
X058592Y018408D01*
X058592Y018250D02*
X056752Y018250D01*
X056655Y018347D02*
X056285Y018347D01*
X056023Y018085D01*
X056023Y017715D01*
X056285Y017453D01*
X056655Y017453D01*
X056917Y017715D01*
X056917Y018085D01*
X056655Y018347D01*
X056768Y018567D02*
X058592Y018567D01*
X058592Y018725D02*
X056917Y018725D01*
X056917Y018884D02*
X058592Y018884D01*
X058592Y019042D02*
X056917Y019042D01*
X056139Y019201D02*
X055801Y019201D01*
X055917Y019042D02*
X056023Y019042D01*
X056023Y018884D02*
X055917Y018884D01*
X055917Y018725D02*
X056023Y018725D01*
X056172Y018567D02*
X055768Y018567D01*
X055752Y018250D02*
X056188Y018250D01*
X056029Y018091D02*
X055911Y018091D01*
X055917Y017933D02*
X056023Y017933D01*
X056023Y017774D02*
X055917Y017774D01*
X055817Y017616D02*
X056123Y017616D01*
X056281Y017457D02*
X055659Y017457D01*
X055655Y017347D02*
X055285Y017347D01*
X055023Y017085D01*
X055023Y016715D01*
X055285Y016453D01*
X055655Y016453D01*
X055917Y016715D01*
X055917Y017085D01*
X055655Y017347D01*
X055703Y017299D02*
X056237Y017299D01*
X056285Y017347D02*
X056023Y017085D01*
X056023Y016715D01*
X056285Y016453D01*
X056655Y016453D01*
X056917Y016715D01*
X056917Y017085D01*
X056655Y017347D01*
X056285Y017347D01*
X056078Y017140D02*
X055862Y017140D01*
X055917Y016982D02*
X056023Y016982D01*
X056023Y016823D02*
X055917Y016823D01*
X055866Y016665D02*
X056074Y016665D01*
X056232Y016506D02*
X055708Y016506D01*
X055655Y016347D02*
X055917Y016085D01*
X055917Y015715D01*
X055655Y015453D01*
X055285Y015453D01*
X055023Y015715D01*
X055023Y016085D01*
X055285Y016347D01*
X055655Y016347D01*
X055813Y016189D02*
X056127Y016189D01*
X056023Y016085D02*
X056023Y015715D01*
X056285Y015453D01*
X056655Y015453D01*
X056917Y015715D01*
X056917Y016085D01*
X056655Y016347D01*
X056285Y016347D01*
X056023Y016085D01*
X056023Y016031D02*
X055917Y016031D01*
X055917Y015872D02*
X056023Y015872D01*
X056025Y015714D02*
X055915Y015714D01*
X055757Y015555D02*
X056183Y015555D01*
X056285Y015347D02*
X056023Y015085D01*
X056023Y014715D01*
X056285Y014453D01*
X056655Y014453D01*
X056917Y014715D01*
X056917Y015085D01*
X056655Y015347D01*
X056285Y015347D01*
X056176Y015238D02*
X055764Y015238D01*
X055655Y015347D02*
X055917Y015085D01*
X055917Y014715D01*
X055655Y014453D01*
X055285Y014453D01*
X055023Y014715D01*
X055023Y015085D01*
X055285Y015347D01*
X055655Y015347D01*
X055917Y015080D02*
X056023Y015080D01*
X056023Y014921D02*
X055917Y014921D01*
X055917Y014763D02*
X056023Y014763D01*
X056134Y014604D02*
X055806Y014604D01*
X055134Y014604D02*
X040800Y014604D01*
X040800Y014446D02*
X058592Y014446D01*
X058592Y014604D02*
X056806Y014604D01*
X056917Y014763D02*
X058592Y014763D01*
X058592Y014921D02*
X056917Y014921D01*
X056917Y015080D02*
X058592Y015080D01*
X058592Y015238D02*
X056764Y015238D01*
X056757Y015555D02*
X058592Y015555D01*
X058592Y015397D02*
X040800Y015397D01*
X040800Y015555D02*
X055183Y015555D01*
X055025Y015714D02*
X040800Y015714D01*
X040800Y015872D02*
X055023Y015872D01*
X055023Y016031D02*
X040800Y016031D01*
X040800Y016189D02*
X055127Y016189D01*
X055232Y016506D02*
X040800Y016506D01*
X040800Y016348D02*
X058592Y016348D01*
X058592Y016506D02*
X056708Y016506D01*
X056866Y016665D02*
X058592Y016665D01*
X058592Y016823D02*
X056917Y016823D01*
X056917Y016982D02*
X058592Y016982D01*
X058592Y017140D02*
X056862Y017140D01*
X056703Y017299D02*
X058592Y017299D01*
X058592Y017457D02*
X056659Y017457D01*
X056817Y017616D02*
X058592Y017616D01*
X058592Y017774D02*
X056917Y017774D01*
X056917Y017933D02*
X058592Y017933D01*
X058592Y018091D02*
X056911Y018091D01*
X055281Y017457D02*
X040800Y017457D01*
X040800Y017299D02*
X055237Y017299D01*
X055078Y017140D02*
X040800Y017140D01*
X040800Y016982D02*
X055023Y016982D01*
X055023Y016823D02*
X040800Y016823D01*
X040800Y016665D02*
X055074Y016665D01*
X055123Y017616D02*
X040800Y017616D01*
X040800Y017774D02*
X055023Y017774D01*
X055023Y017933D02*
X051594Y017933D01*
X051753Y018091D02*
X055029Y018091D01*
X055221Y019518D02*
X051724Y019518D01*
X051074Y019676D02*
X050566Y019676D01*
X050724Y019518D02*
X050916Y019518D01*
X050873Y019359D02*
X050767Y019359D01*
X050767Y019201D02*
X050873Y019201D01*
X050936Y019042D02*
X050704Y019042D01*
X050545Y018884D02*
X051095Y018884D01*
X051123Y018725D02*
X050517Y018725D01*
X050505Y018737D02*
X050135Y018737D01*
X049873Y018475D01*
X049873Y018105D01*
X050135Y017843D01*
X050505Y017843D01*
X050767Y018105D01*
X050767Y018475D01*
X050505Y018737D01*
X050675Y018567D02*
X050965Y018567D01*
X050873Y018408D02*
X050767Y018408D01*
X050767Y018250D02*
X050873Y018250D01*
X050887Y018091D02*
X050753Y018091D01*
X050594Y017933D02*
X051046Y017933D01*
X050046Y017933D02*
X040800Y017933D01*
X040800Y018091D02*
X049887Y018091D01*
X049873Y018250D02*
X040800Y018250D01*
X040800Y018408D02*
X049873Y018408D01*
X049965Y018567D02*
X040800Y018567D01*
X040800Y018725D02*
X050123Y018725D01*
X050095Y018884D02*
X040800Y018884D01*
X039900Y019835D02*
X039890Y019835D01*
X039890Y019993D02*
X039900Y019993D01*
X039890Y020152D02*
X039900Y020152D01*
X039890Y020310D02*
X039900Y020310D01*
X040360Y021103D02*
X049876Y021103D01*
X049873Y021261D02*
X040360Y021261D01*
X040360Y021420D02*
X049873Y021420D01*
X049976Y021578D02*
X040360Y021578D01*
X040360Y021737D02*
X050135Y021737D01*
X050083Y021895D02*
X040360Y021895D01*
X040360Y022054D02*
X049925Y022054D01*
X049873Y022212D02*
X040360Y022212D01*
X040360Y022371D02*
X049873Y022371D01*
X049927Y022529D02*
X040360Y022529D01*
X040360Y022688D02*
X050086Y022688D01*
X050132Y022846D02*
X040360Y022846D01*
X040360Y023005D02*
X049974Y023005D01*
X049873Y023163D02*
X040360Y023163D01*
X040360Y023322D02*
X049873Y023322D01*
X049878Y023480D02*
X040360Y023480D01*
X040360Y023639D02*
X050037Y023639D01*
X051617Y023956D02*
X058592Y023956D01*
X058592Y024114D02*
X051767Y024114D01*
X051767Y024273D02*
X058592Y024273D01*
X058592Y024431D02*
X051767Y024431D01*
X051652Y024590D02*
X058592Y024590D01*
X058592Y024748D02*
X040443Y024748D01*
X039890Y025858D02*
X058592Y025858D01*
X058592Y026016D02*
X039890Y026016D01*
X039890Y026175D02*
X058592Y026175D01*
X058592Y026333D02*
X039890Y026333D01*
X039890Y026492D02*
X058592Y026492D01*
X058592Y026650D02*
X039890Y026650D01*
X039890Y026809D02*
X058592Y026809D01*
X058592Y026967D02*
X039890Y026967D01*
X039890Y027126D02*
X058592Y027126D01*
X058592Y027284D02*
X039890Y027284D01*
X039890Y027443D02*
X058592Y027443D01*
X058592Y027601D02*
X039890Y027601D01*
X039890Y027760D02*
X058592Y027760D01*
X058592Y027918D02*
X039890Y027918D01*
X039890Y028077D02*
X058592Y028077D01*
X058592Y028235D02*
X039890Y028235D01*
X039890Y028394D02*
X058592Y028394D01*
X058592Y028552D02*
X039890Y028552D01*
X039890Y028711D02*
X058592Y028711D01*
X058592Y028869D02*
X039890Y028869D01*
X039890Y029028D02*
X058592Y029028D01*
X058592Y029186D02*
X039890Y029186D01*
X039890Y029345D02*
X050114Y029345D01*
X050145Y029313D02*
X050515Y029313D01*
X050777Y029575D01*
X050777Y029945D01*
X050515Y030207D01*
X050145Y030207D01*
X049883Y029945D01*
X049883Y029575D01*
X050145Y029313D01*
X049955Y029503D02*
X039890Y029503D01*
X039890Y029662D02*
X049883Y029662D01*
X049883Y029820D02*
X039890Y029820D01*
X039890Y029979D02*
X049917Y029979D01*
X050075Y030137D02*
X039890Y030137D01*
X039890Y030296D02*
X058592Y030296D01*
X058592Y030454D02*
X051656Y030454D01*
X051777Y030575D02*
X051515Y030313D01*
X051145Y030313D01*
X050883Y030575D01*
X050883Y030945D01*
X051145Y031207D01*
X051515Y031207D01*
X051777Y030945D01*
X051777Y030575D01*
X051777Y030613D02*
X058592Y030613D01*
X058592Y030771D02*
X051777Y030771D01*
X051777Y030930D02*
X058592Y030930D01*
X058592Y031088D02*
X051634Y031088D01*
X051515Y031313D02*
X051145Y031313D01*
X050883Y031575D01*
X050883Y031945D01*
X051145Y032207D01*
X051515Y032207D01*
X051777Y031945D01*
X051777Y031575D01*
X051515Y031313D01*
X051607Y031405D02*
X058592Y031405D01*
X058592Y031247D02*
X039890Y031247D01*
X039890Y031405D02*
X050053Y031405D01*
X050145Y031313D02*
X050515Y031313D01*
X050777Y031575D01*
X050777Y031945D01*
X050515Y032207D01*
X050145Y032207D01*
X049883Y031945D01*
X049883Y031575D01*
X050145Y031313D01*
X050145Y031207D02*
X049883Y030945D01*
X049883Y030575D01*
X050145Y030313D01*
X050515Y030313D01*
X050777Y030575D01*
X050777Y030945D01*
X050515Y031207D01*
X050145Y031207D01*
X050026Y031088D02*
X039890Y031088D01*
X039890Y030930D02*
X049883Y030930D01*
X049883Y030771D02*
X039890Y030771D01*
X039890Y030613D02*
X049883Y030613D01*
X050004Y030454D02*
X039890Y030454D01*
X039430Y030454D02*
X021148Y030454D01*
X021115Y030296D02*
X039430Y030296D01*
X039430Y030137D02*
X020946Y030137D01*
X020694Y030137D02*
X020228Y030137D01*
X020205Y029979D02*
X021565Y029979D01*
X021770Y029720D02*
X015940Y029720D01*
X015610Y029390D01*
X015610Y022050D01*
X015938Y022054D02*
X016010Y022054D01*
X016010Y022212D02*
X015898Y022212D01*
X015840Y022371D02*
X016010Y022371D01*
X016010Y022529D02*
X015840Y022529D01*
X015840Y022688D02*
X016010Y022688D01*
X016010Y022846D02*
X015840Y022846D01*
X015840Y023005D02*
X016010Y023005D01*
X016010Y023163D02*
X015840Y023163D01*
X015840Y023322D02*
X016010Y023322D01*
X016010Y023480D02*
X015840Y023480D01*
X015840Y023639D02*
X016010Y023639D01*
X016010Y023797D02*
X015840Y023797D01*
X015840Y023956D02*
X016010Y023956D01*
X016010Y024114D02*
X015840Y024114D01*
X015840Y024273D02*
X016010Y024273D01*
X016010Y024431D02*
X015840Y024431D01*
X015840Y024590D02*
X016010Y024590D01*
X016010Y024748D02*
X015840Y024748D01*
X015840Y024907D02*
X016010Y024907D01*
X016010Y025065D02*
X015840Y025065D01*
X015840Y025224D02*
X016010Y025224D01*
X016010Y025382D02*
X015840Y025382D01*
X015840Y025541D02*
X016010Y025541D01*
X016010Y025699D02*
X015840Y025699D01*
X015840Y025858D02*
X016010Y025858D01*
X016010Y026016D02*
X015840Y026016D01*
X015840Y026175D02*
X016010Y026175D01*
X016010Y026333D02*
X015840Y026333D01*
X015840Y026492D02*
X016010Y026492D01*
X016010Y026650D02*
X015840Y026650D01*
X015840Y026809D02*
X016010Y026809D01*
X016010Y026967D02*
X015840Y026967D01*
X015840Y027126D02*
X016010Y027126D01*
X016010Y027284D02*
X015840Y027284D01*
X015840Y027443D02*
X016010Y027443D01*
X016010Y027601D02*
X015840Y027601D01*
X015840Y027760D02*
X016054Y027760D01*
X016213Y027918D02*
X015840Y027918D01*
X015840Y028077D02*
X016371Y028077D01*
X016530Y028235D02*
X015840Y028235D01*
X015840Y028394D02*
X016688Y028394D01*
X016847Y028552D02*
X015840Y028552D01*
X015840Y028711D02*
X017005Y028711D01*
X017180Y028235D02*
X020290Y028235D01*
X020382Y028077D02*
X017022Y028077D01*
X015840Y028869D02*
X033142Y028869D01*
X033159Y029028D02*
X015840Y029028D01*
X015840Y029186D02*
X033272Y029186D01*
X033215Y028711D02*
X020465Y028711D01*
X020623Y028552D02*
X033240Y028552D01*
X039430Y029345D02*
X015890Y029345D01*
X015260Y029570D02*
X015800Y030090D01*
X019810Y030090D01*
X019900Y030100D01*
X019918Y030771D02*
X039430Y030771D01*
X039430Y030613D02*
X021104Y030613D01*
X021010Y030930D02*
X039430Y030930D01*
X039430Y031088D02*
X021058Y031088D01*
X021029Y031247D02*
X039430Y031247D01*
X039430Y031405D02*
X020875Y031405D01*
X020585Y031405D02*
X020242Y031405D01*
X020258Y031564D02*
X039430Y031564D01*
X039430Y031722D02*
X020182Y031722D01*
X019930Y031510D02*
X019840Y031500D01*
X015360Y031500D01*
X013600Y029880D01*
X013600Y021400D01*
X013898Y021261D02*
X014211Y021261D01*
X014172Y021420D02*
X013928Y021420D01*
X013881Y021578D02*
X014210Y021578D01*
X014500Y021420D02*
X014500Y029750D01*
X015600Y030760D01*
X019550Y030760D01*
X019590Y030770D01*
X020660Y031120D02*
X020730Y031110D01*
X020660Y031120D02*
X015480Y031120D01*
X014070Y029830D01*
X014070Y021940D01*
X014790Y021578D02*
X014958Y021578D01*
X014932Y021420D02*
X014828Y021420D01*
X014789Y021261D02*
X014985Y021261D01*
X015260Y021450D02*
X015260Y029570D01*
X014880Y029660D02*
X015730Y030440D01*
X020820Y030440D01*
X021975Y029979D02*
X039430Y029979D01*
X039430Y029820D02*
X022084Y029820D01*
X022098Y029662D02*
X039430Y029662D01*
X039430Y029503D02*
X022017Y029503D01*
X019308Y031881D02*
X039430Y031881D01*
X039430Y032039D02*
X019278Y032039D01*
X019119Y032198D02*
X039364Y032198D01*
X039332Y032356D02*
X003438Y032356D01*
X003467Y032385D02*
X003205Y032123D01*
X002835Y032123D01*
X002573Y032385D01*
X002573Y032755D01*
X002835Y033017D01*
X003205Y033017D01*
X003467Y032755D01*
X003467Y032385D01*
X003467Y032515D02*
X039377Y032515D01*
X039660Y032340D02*
X039660Y012670D01*
X039460Y012470D01*
X040800Y012544D02*
X058592Y012544D01*
X058592Y012702D02*
X040800Y012702D01*
X040800Y012861D02*
X058592Y012861D01*
X058592Y013019D02*
X040800Y013019D01*
X040800Y013178D02*
X058592Y013178D01*
X058592Y013336D02*
X040800Y013336D01*
X040800Y013495D02*
X058592Y013495D01*
X058592Y013653D02*
X040800Y013653D01*
X040800Y013812D02*
X058592Y013812D01*
X058592Y013970D02*
X040800Y013970D01*
X040800Y014129D02*
X058592Y014129D01*
X058592Y014287D02*
X040800Y014287D01*
X040800Y014763D02*
X055023Y014763D01*
X055023Y014921D02*
X040800Y014921D01*
X040800Y015080D02*
X055023Y015080D01*
X055176Y015238D02*
X040800Y015238D01*
X040800Y012385D02*
X058592Y012385D01*
X058592Y012227D02*
X040800Y012227D01*
X040800Y012068D02*
X058592Y012068D01*
X058592Y011910D02*
X040800Y011910D01*
X040800Y011751D02*
X058592Y011751D01*
X058592Y011593D02*
X040800Y011593D01*
X040800Y011434D02*
X058592Y011434D01*
X058592Y011276D02*
X040800Y011276D01*
X040800Y011117D02*
X058592Y011117D01*
X058592Y010959D02*
X040800Y010959D01*
X040800Y010800D02*
X058592Y010800D01*
X058592Y010642D02*
X056730Y010642D01*
X056635Y010737D02*
X056265Y010737D01*
X056003Y010475D01*
X056003Y010105D01*
X056265Y009843D01*
X056635Y009843D01*
X056897Y010105D01*
X056897Y010475D01*
X056635Y010737D01*
X056889Y010483D02*
X058592Y010483D01*
X058592Y010325D02*
X056897Y010325D01*
X056897Y010166D02*
X058592Y010166D01*
X058592Y010008D02*
X056799Y010008D01*
X056641Y009849D02*
X058592Y009849D01*
X058592Y009691D02*
X056681Y009691D01*
X056635Y009737D02*
X056265Y009737D01*
X056003Y009475D01*
X056003Y009105D01*
X056265Y008843D01*
X056635Y008843D01*
X056897Y009105D01*
X056897Y009475D01*
X056635Y009737D01*
X056840Y009532D02*
X058592Y009532D01*
X058592Y009374D02*
X056897Y009374D01*
X056897Y009215D02*
X058592Y009215D01*
X058592Y009057D02*
X056848Y009057D01*
X056690Y008898D02*
X058592Y008898D01*
X058592Y008740D02*
X040800Y008740D01*
X040800Y008898D02*
X055210Y008898D01*
X055265Y008843D02*
X055635Y008843D01*
X055897Y009105D01*
X055897Y009475D01*
X055635Y009737D01*
X055265Y009737D01*
X055003Y009475D01*
X055003Y009105D01*
X055265Y008843D01*
X055265Y008737D02*
X055003Y008475D01*
X055003Y008105D01*
X055265Y007843D01*
X055635Y007843D01*
X055897Y008105D01*
X055897Y008475D01*
X055635Y008737D01*
X055265Y008737D01*
X055109Y008581D02*
X040800Y008581D01*
X040800Y008423D02*
X055003Y008423D01*
X055003Y008264D02*
X040800Y008264D01*
X040800Y008106D02*
X055003Y008106D01*
X055161Y007947D02*
X040800Y007947D01*
X040800Y009057D02*
X055052Y009057D01*
X055003Y009215D02*
X040800Y009215D01*
X040800Y009374D02*
X055003Y009374D01*
X055060Y009532D02*
X040800Y009532D01*
X040800Y009691D02*
X055219Y009691D01*
X055265Y009843D02*
X055635Y009843D01*
X055897Y010105D01*
X055897Y010475D01*
X055635Y010737D01*
X055265Y010737D01*
X055003Y010475D01*
X055003Y010105D01*
X055265Y009843D01*
X055259Y009849D02*
X040800Y009849D01*
X040800Y010008D02*
X055101Y010008D01*
X055003Y010166D02*
X040800Y010166D01*
X040800Y010325D02*
X055003Y010325D01*
X055011Y010483D02*
X040800Y010483D01*
X040800Y010642D02*
X055170Y010642D01*
X055730Y010642D02*
X056170Y010642D01*
X056011Y010483D02*
X055889Y010483D01*
X055897Y010325D02*
X056003Y010325D01*
X056003Y010166D02*
X055897Y010166D01*
X055799Y010008D02*
X056101Y010008D01*
X056259Y009849D02*
X055641Y009849D01*
X055681Y009691D02*
X056219Y009691D01*
X056060Y009532D02*
X055840Y009532D01*
X055897Y009374D02*
X056003Y009374D01*
X056003Y009215D02*
X055897Y009215D01*
X055848Y009057D02*
X056052Y009057D01*
X056210Y008898D02*
X055690Y008898D01*
X055791Y008581D02*
X056109Y008581D01*
X056003Y008423D02*
X055897Y008423D01*
X055897Y008264D02*
X056003Y008264D01*
X056003Y008106D02*
X055897Y008106D01*
X055739Y007947D02*
X056161Y007947D01*
X056158Y007630D02*
X055742Y007630D01*
X055897Y007471D02*
X056003Y007471D01*
X056003Y007313D02*
X055897Y007313D01*
X055897Y007154D02*
X056003Y007154D01*
X056112Y006996D02*
X055788Y006996D01*
X055693Y006679D02*
X056207Y006679D01*
X056265Y006737D02*
X056003Y006475D01*
X056003Y006105D01*
X056265Y005843D01*
X056635Y005843D01*
X056897Y006105D01*
X056897Y006475D01*
X056635Y006737D01*
X056265Y006737D01*
X056049Y006520D02*
X055851Y006520D01*
X055897Y006362D02*
X056003Y006362D01*
X056003Y006203D02*
X055897Y006203D01*
X055837Y006045D02*
X056063Y006045D01*
X056222Y005886D02*
X055678Y005886D01*
X055644Y005728D02*
X056256Y005728D01*
X056098Y005569D02*
X055802Y005569D01*
X055897Y005411D02*
X056003Y005411D01*
X056003Y005252D02*
X055897Y005252D01*
X055886Y005094D02*
X056014Y005094D01*
X056173Y004935D02*
X055727Y004935D01*
X055753Y004618D02*
X056147Y004618D01*
X056003Y004460D02*
X055897Y004460D01*
X055897Y004301D02*
X056003Y004301D01*
X056003Y004143D02*
X055897Y004143D01*
X055776Y003984D02*
X056124Y003984D01*
X056265Y003737D02*
X056003Y003475D01*
X056003Y003105D01*
X056265Y002843D01*
X056635Y002843D01*
X056897Y003105D01*
X056897Y003475D01*
X056635Y003737D01*
X056265Y003737D01*
X056196Y003667D02*
X055704Y003667D01*
X055863Y003509D02*
X056037Y003509D01*
X056003Y003350D02*
X055897Y003350D01*
X055897Y003192D02*
X056003Y003192D01*
X056075Y003033D02*
X055825Y003033D01*
X055667Y002875D02*
X056233Y002875D01*
X056667Y002875D02*
X058592Y002875D01*
X058592Y003033D02*
X056825Y003033D01*
X056897Y003192D02*
X058592Y003192D01*
X058592Y003350D02*
X056897Y003350D01*
X056863Y003509D02*
X058592Y003509D01*
X058592Y003667D02*
X056704Y003667D01*
X056886Y005094D02*
X058592Y005094D01*
X058592Y005252D02*
X056897Y005252D01*
X056897Y005411D02*
X058592Y005411D01*
X058592Y005569D02*
X056802Y005569D01*
X056644Y005728D02*
X058592Y005728D01*
X058592Y005886D02*
X056678Y005886D01*
X056837Y006045D02*
X058592Y006045D01*
X058592Y006203D02*
X056897Y006203D01*
X056897Y006362D02*
X058592Y006362D01*
X058592Y006520D02*
X056851Y006520D01*
X056693Y006679D02*
X058592Y006679D01*
X058592Y008106D02*
X056897Y008106D01*
X056897Y008264D02*
X058592Y008264D01*
X058592Y008423D02*
X056897Y008423D01*
X056791Y008581D02*
X058592Y008581D01*
X058592Y015714D02*
X056915Y015714D01*
X056917Y015872D02*
X058592Y015872D01*
X058592Y016031D02*
X056917Y016031D01*
X056813Y016189D02*
X058592Y016189D01*
X056221Y019518D02*
X055719Y019518D01*
X055878Y019676D02*
X056062Y019676D01*
X056023Y019835D02*
X055917Y019835D01*
X055917Y019993D02*
X056023Y019993D01*
X056090Y020152D02*
X055850Y020152D01*
X055692Y020310D02*
X056248Y020310D01*
X056270Y020469D02*
X055670Y020469D01*
X055829Y020627D02*
X056111Y020627D01*
X056023Y020786D02*
X055917Y020786D01*
X055917Y020944D02*
X056023Y020944D01*
X056041Y021103D02*
X055899Y021103D01*
X055741Y021261D02*
X056199Y021261D01*
X056160Y021578D02*
X055780Y021578D01*
X055917Y021737D02*
X056023Y021737D01*
X056023Y021895D02*
X055917Y021895D01*
X055917Y022054D02*
X056023Y022054D01*
X056150Y022212D02*
X055790Y022212D01*
X056790Y022212D02*
X058592Y022212D01*
X058592Y022054D02*
X056917Y022054D01*
X056917Y021895D02*
X058592Y021895D01*
X058592Y021737D02*
X056917Y021737D01*
X058592Y024907D02*
X051568Y024907D01*
X051727Y025065D02*
X058592Y025065D01*
X058592Y025224D02*
X051767Y025224D01*
X051767Y025382D02*
X058592Y025382D01*
X058592Y025541D02*
X051701Y025541D01*
X051543Y025699D02*
X058592Y025699D01*
X058592Y029345D02*
X051546Y029345D01*
X051515Y029313D02*
X051777Y029575D01*
X051777Y029945D01*
X051515Y030207D01*
X051145Y030207D01*
X050883Y029945D01*
X050883Y029575D01*
X051145Y029313D01*
X051515Y029313D01*
X051705Y029503D02*
X058592Y029503D01*
X058592Y029662D02*
X051777Y029662D01*
X051777Y029820D02*
X058592Y029820D01*
X058592Y029979D02*
X051743Y029979D01*
X051585Y030137D02*
X058592Y030137D01*
X058592Y031564D02*
X051765Y031564D01*
X051777Y031722D02*
X058592Y031722D01*
X058592Y031881D02*
X051777Y031881D01*
X051683Y032039D02*
X058592Y032039D01*
X058592Y032198D02*
X051524Y032198D01*
X051515Y032313D02*
X051777Y032575D01*
X051777Y032945D01*
X051515Y033207D01*
X051145Y033207D01*
X050883Y032945D01*
X050883Y032575D01*
X051145Y032313D01*
X051515Y032313D01*
X051558Y032356D02*
X058592Y032356D01*
X058592Y032515D02*
X051716Y032515D01*
X051777Y032673D02*
X058592Y032673D01*
X058592Y032832D02*
X051777Y032832D01*
X051732Y032990D02*
X058592Y032990D01*
X058592Y033149D02*
X051573Y033149D01*
X051515Y033313D02*
X051145Y033313D01*
X050883Y033575D01*
X050883Y033945D01*
X051145Y034207D01*
X051515Y034207D01*
X051777Y033945D01*
X051777Y033575D01*
X051515Y033313D01*
X051667Y033466D02*
X058592Y033466D01*
X058592Y033624D02*
X051777Y033624D01*
X051777Y033783D02*
X058592Y033783D01*
X058592Y033941D02*
X051777Y033941D01*
X051622Y034100D02*
X058592Y034100D01*
X058592Y034258D02*
X003340Y034258D01*
X003467Y034385D02*
X003205Y034123D01*
X002835Y034123D01*
X002573Y034385D01*
X002573Y034755D01*
X002835Y035017D01*
X003205Y035017D01*
X003467Y034755D01*
X003467Y034385D01*
X003467Y034417D02*
X050042Y034417D01*
X050145Y034313D02*
X050515Y034313D01*
X050777Y034575D01*
X050883Y034575D01*
X051145Y034313D01*
X051515Y034313D01*
X051777Y034575D01*
X058592Y034575D01*
X058592Y034417D02*
X051618Y034417D01*
X051777Y034575D02*
X051777Y034945D01*
X051515Y035207D01*
X051145Y035207D01*
X050883Y034945D01*
X050883Y034575D01*
X050777Y034575D02*
X050777Y034945D01*
X050515Y035207D01*
X050145Y035207D01*
X049883Y034945D01*
X049883Y034575D01*
X003467Y034575D01*
X003467Y034734D02*
X049883Y034734D01*
X049883Y034892D02*
X003330Y034892D01*
X003205Y035123D02*
X003467Y035385D01*
X003467Y035755D01*
X003205Y036017D01*
X002835Y036017D01*
X002573Y035755D01*
X002573Y035385D01*
X002835Y035123D01*
X003205Y035123D01*
X003291Y035209D02*
X058592Y035209D01*
X058592Y035051D02*
X051671Y035051D01*
X051777Y034892D02*
X058592Y034892D01*
X058592Y034734D02*
X051777Y034734D01*
X051042Y034417D02*
X050618Y034417D01*
X050515Y034207D02*
X050145Y034207D01*
X049883Y033945D01*
X049883Y033575D01*
X050145Y033313D01*
X050515Y033313D01*
X050777Y033575D01*
X050777Y033945D01*
X050515Y034207D01*
X050622Y034100D02*
X051038Y034100D01*
X050883Y033941D02*
X050777Y033941D01*
X050777Y033783D02*
X050883Y033783D01*
X050883Y033624D02*
X050777Y033624D01*
X050667Y033466D02*
X050993Y033466D01*
X051087Y033149D02*
X050573Y033149D01*
X050515Y033207D02*
X050145Y033207D01*
X049883Y032945D01*
X049883Y032575D01*
X050145Y032313D01*
X050515Y032313D01*
X050777Y032575D01*
X050777Y032945D01*
X050515Y033207D01*
X050732Y032990D02*
X050928Y032990D01*
X050883Y032832D02*
X050777Y032832D01*
X050777Y032673D02*
X050883Y032673D01*
X050944Y032515D02*
X050716Y032515D01*
X050558Y032356D02*
X051102Y032356D01*
X051136Y032198D02*
X050524Y032198D01*
X050683Y032039D02*
X050977Y032039D01*
X050883Y031881D02*
X050777Y031881D01*
X050777Y031722D02*
X050883Y031722D01*
X050895Y031564D02*
X050765Y031564D01*
X050607Y031405D02*
X051053Y031405D01*
X051026Y031088D02*
X050634Y031088D01*
X050777Y030930D02*
X050883Y030930D01*
X050883Y030771D02*
X050777Y030771D01*
X050777Y030613D02*
X050883Y030613D01*
X051004Y030454D02*
X050656Y030454D01*
X050585Y030137D02*
X051075Y030137D01*
X050917Y029979D02*
X050743Y029979D01*
X050777Y029820D02*
X050883Y029820D01*
X050883Y029662D02*
X050777Y029662D01*
X050705Y029503D02*
X050955Y029503D01*
X051114Y029345D02*
X050546Y029345D01*
X049895Y031564D02*
X039890Y031564D01*
X039890Y031722D02*
X049883Y031722D01*
X049883Y031881D02*
X039890Y031881D01*
X039890Y032039D02*
X049977Y032039D01*
X050136Y032198D02*
X039956Y032198D01*
X039988Y032356D02*
X050102Y032356D01*
X049944Y032515D02*
X039943Y032515D01*
X049883Y032673D02*
X003467Y032673D01*
X003390Y032832D02*
X049883Y032832D01*
X049928Y032990D02*
X003232Y032990D01*
X003205Y033123D02*
X003467Y033385D01*
X003467Y033755D01*
X003205Y034017D01*
X002835Y034017D01*
X002573Y033755D01*
X002573Y033385D01*
X002835Y033123D01*
X003205Y033123D01*
X003230Y033149D02*
X050087Y033149D01*
X049993Y033466D02*
X003467Y033466D01*
X003467Y033624D02*
X049883Y033624D01*
X049883Y033783D02*
X003439Y033783D01*
X003281Y033941D02*
X049883Y033941D01*
X050038Y034100D02*
X000539Y034100D01*
X000539Y034258D02*
X001700Y034258D01*
X001573Y034385D02*
X001835Y034123D01*
X002205Y034123D01*
X002467Y034385D01*
X002467Y034755D01*
X002205Y035017D01*
X001835Y035017D01*
X001573Y034755D01*
X001573Y034385D01*
X001573Y034417D02*
X000539Y034417D01*
X000539Y034575D02*
X001573Y034575D01*
X001573Y034734D02*
X000539Y034734D01*
X000539Y034892D02*
X001710Y034892D01*
X001835Y035123D02*
X001573Y035385D01*
X001573Y035755D01*
X001835Y036017D01*
X002205Y036017D01*
X002467Y035755D01*
X002467Y035385D01*
X002205Y035123D01*
X001835Y035123D01*
X001749Y035209D02*
X000539Y035209D01*
X000539Y035051D02*
X049989Y035051D01*
X050145Y035313D02*
X050515Y035313D01*
X050777Y035575D01*
X050777Y035945D01*
X050515Y036207D01*
X050145Y036207D01*
X049883Y035945D01*
X049883Y035575D01*
X050145Y035313D01*
X050091Y035368D02*
X003449Y035368D01*
X003467Y035526D02*
X049932Y035526D01*
X049883Y035685D02*
X003467Y035685D01*
X003379Y035843D02*
X049883Y035843D01*
X049940Y036002D02*
X003220Y036002D01*
X003205Y036123D02*
X003467Y036385D01*
X003467Y036755D01*
X003205Y037017D01*
X002835Y037017D01*
X002573Y036755D01*
X002573Y036385D01*
X002835Y036123D01*
X003205Y036123D01*
X003242Y036160D02*
X050098Y036160D01*
X050145Y036313D02*
X050515Y036313D01*
X050777Y036575D01*
X050777Y036945D01*
X050515Y037207D01*
X050145Y037207D01*
X049883Y036945D01*
X049883Y036575D01*
X050145Y036313D01*
X050140Y036319D02*
X003400Y036319D01*
X003467Y036477D02*
X049981Y036477D01*
X049883Y036636D02*
X003467Y036636D01*
X003428Y036794D02*
X049883Y036794D01*
X049891Y036953D02*
X003269Y036953D01*
X002771Y036953D02*
X002269Y036953D01*
X002205Y037017D02*
X001835Y037017D01*
X001573Y036755D01*
X001573Y036385D01*
X001835Y036123D01*
X002205Y036123D01*
X002467Y036385D01*
X002467Y036755D01*
X002205Y037017D01*
X002428Y036794D02*
X002612Y036794D01*
X002573Y036636D02*
X002467Y036636D01*
X002467Y036477D02*
X002573Y036477D01*
X002640Y036319D02*
X002400Y036319D01*
X002242Y036160D02*
X002798Y036160D01*
X002820Y036002D02*
X002220Y036002D01*
X002379Y035843D02*
X002661Y035843D01*
X002573Y035685D02*
X002467Y035685D01*
X002467Y035526D02*
X002573Y035526D01*
X002591Y035368D02*
X002449Y035368D01*
X002291Y035209D02*
X002749Y035209D01*
X002710Y034892D02*
X002330Y034892D01*
X002467Y034734D02*
X002573Y034734D01*
X002573Y034575D02*
X002467Y034575D01*
X002467Y034417D02*
X002573Y034417D01*
X002700Y034258D02*
X002340Y034258D01*
X002205Y034017D02*
X001835Y034017D01*
X001573Y033755D01*
X001573Y033385D01*
X001835Y033123D01*
X002205Y033123D01*
X002467Y033385D01*
X002467Y033755D01*
X002205Y034017D01*
X002281Y033941D02*
X002759Y033941D01*
X002601Y033783D02*
X002439Y033783D01*
X002467Y033624D02*
X002573Y033624D01*
X002573Y033466D02*
X002467Y033466D01*
X002389Y033307D02*
X002651Y033307D01*
X002810Y033149D02*
X002230Y033149D01*
X002205Y033017D02*
X001835Y033017D01*
X001573Y032755D01*
X001573Y032385D01*
X001835Y032123D01*
X002205Y032123D01*
X002467Y032385D01*
X002467Y032755D01*
X002205Y033017D01*
X002232Y032990D02*
X002808Y032990D01*
X002650Y032832D02*
X002390Y032832D01*
X002467Y032673D02*
X002573Y032673D01*
X002573Y032515D02*
X002467Y032515D01*
X002438Y032356D02*
X002602Y032356D01*
X002761Y032198D02*
X002279Y032198D01*
X002205Y032017D02*
X001835Y032017D01*
X001573Y031755D01*
X001573Y031385D01*
X001835Y031123D01*
X002205Y031123D01*
X002467Y031385D01*
X002467Y031755D01*
X002205Y032017D01*
X002341Y031881D02*
X002699Y031881D01*
X002573Y031755D02*
X002573Y031385D01*
X002835Y031123D01*
X003205Y031123D01*
X003467Y031385D01*
X003467Y031755D01*
X003205Y032017D01*
X002835Y032017D01*
X002573Y031755D01*
X002573Y031722D02*
X002467Y031722D01*
X002467Y031564D02*
X002573Y031564D01*
X002573Y031405D02*
X002467Y031405D01*
X002328Y031247D02*
X002712Y031247D01*
X002835Y031017D02*
X002573Y030755D01*
X002573Y030385D01*
X002835Y030123D01*
X003205Y030123D01*
X003467Y030385D01*
X003467Y030755D01*
X003205Y031017D01*
X002835Y031017D01*
X002748Y030930D02*
X002292Y030930D01*
X002205Y031017D02*
X001835Y031017D01*
X001573Y030755D01*
X001573Y030385D01*
X001835Y030123D01*
X002205Y030123D01*
X002467Y030385D01*
X002467Y030755D01*
X002205Y031017D01*
X002451Y030771D02*
X002589Y030771D01*
X002573Y030613D02*
X002467Y030613D01*
X002467Y030454D02*
X002573Y030454D01*
X002663Y030296D02*
X002377Y030296D01*
X002219Y030137D02*
X002821Y030137D01*
X002835Y030017D02*
X002573Y029755D01*
X002573Y029385D01*
X002835Y029123D01*
X003205Y029123D01*
X003467Y029385D01*
X003467Y029755D01*
X003205Y030017D01*
X002835Y030017D01*
X002797Y029979D02*
X002243Y029979D01*
X002205Y030017D02*
X001835Y030017D01*
X001573Y029755D01*
X001573Y029385D01*
X001835Y029123D01*
X002205Y029123D01*
X002467Y029385D01*
X002467Y029755D01*
X002205Y030017D01*
X002402Y029820D02*
X002638Y029820D01*
X002573Y029662D02*
X002467Y029662D01*
X002467Y029503D02*
X002573Y029503D01*
X002614Y029345D02*
X002426Y029345D01*
X002268Y029186D02*
X002772Y029186D01*
X003268Y029186D02*
X013010Y029186D01*
X013010Y029028D02*
X000537Y029028D01*
X000537Y029186D02*
X001772Y029186D01*
X001614Y029345D02*
X000537Y029345D01*
X000538Y029503D02*
X001573Y029503D01*
X001573Y029662D02*
X000538Y029662D01*
X000538Y029820D02*
X001638Y029820D01*
X001797Y029979D02*
X000538Y029979D01*
X000538Y030137D02*
X001821Y030137D01*
X001663Y030296D02*
X000538Y030296D01*
X000538Y030454D02*
X001573Y030454D01*
X001573Y030613D02*
X000538Y030613D01*
X000538Y030771D02*
X001589Y030771D01*
X001748Y030930D02*
X000538Y030930D01*
X000538Y031088D02*
X014065Y031088D01*
X014234Y031247D02*
X003328Y031247D01*
X003467Y031405D02*
X014403Y031405D01*
X014572Y031564D02*
X003467Y031564D01*
X003467Y031722D02*
X014742Y031722D01*
X014911Y031881D02*
X003341Y031881D01*
X003279Y032198D02*
X018841Y032198D01*
X018860Y031930D02*
X018980Y031900D01*
X018860Y031930D02*
X015300Y031930D01*
X013240Y030000D01*
X013240Y021950D01*
X012928Y022054D02*
X005705Y022054D01*
X005718Y022212D02*
X013010Y022212D01*
X013010Y022371D02*
X005633Y022371D01*
X005620Y022529D02*
X013010Y022529D01*
X013010Y022688D02*
X005620Y022688D01*
X005620Y022846D02*
X013010Y022846D01*
X013010Y023005D02*
X005620Y023005D01*
X005620Y023163D02*
X013010Y023163D01*
X013010Y023322D02*
X005620Y023322D01*
X005620Y023480D02*
X013010Y023480D01*
X013010Y023639D02*
X005620Y023639D01*
X005620Y023797D02*
X013010Y023797D01*
X013010Y023956D02*
X005620Y023956D01*
X005620Y024114D02*
X013010Y024114D01*
X013010Y024273D02*
X005620Y024273D01*
X005620Y024431D02*
X013010Y024431D01*
X013010Y024590D02*
X005620Y024590D01*
X005620Y024748D02*
X013010Y024748D01*
X013010Y024907D02*
X005620Y024907D01*
X005620Y025065D02*
X013010Y025065D01*
X013010Y025224D02*
X005620Y025224D01*
X005620Y025382D02*
X013010Y025382D01*
X013010Y025541D02*
X005620Y025541D01*
X005620Y025699D02*
X013010Y025699D01*
X013010Y025858D02*
X005620Y025858D01*
X005599Y026016D02*
X013010Y026016D01*
X013010Y026175D02*
X005441Y026175D01*
X005282Y026333D02*
X013010Y026333D01*
X013010Y026492D02*
X005124Y026492D01*
X004965Y026650D02*
X013010Y026650D01*
X013010Y026809D02*
X004807Y026809D01*
X004648Y026967D02*
X013010Y026967D01*
X013010Y027126D02*
X004490Y027126D01*
X004331Y027284D02*
X013010Y027284D01*
X013010Y027443D02*
X004173Y027443D01*
X003426Y029345D02*
X013010Y029345D01*
X013010Y029503D02*
X003467Y029503D01*
X003467Y029662D02*
X013010Y029662D01*
X013010Y029820D02*
X003402Y029820D01*
X003243Y029979D02*
X013009Y029979D01*
X013050Y030137D02*
X003219Y030137D01*
X003377Y030296D02*
X013219Y030296D01*
X013388Y030454D02*
X003467Y030454D01*
X003467Y030613D02*
X013557Y030613D01*
X013727Y030771D02*
X003451Y030771D01*
X003292Y030930D02*
X013896Y030930D01*
X015080Y032039D02*
X000538Y032039D01*
X000538Y031881D02*
X001699Y031881D01*
X001573Y031722D02*
X000538Y031722D01*
X000538Y031564D02*
X001573Y031564D01*
X001573Y031405D02*
X000538Y031405D01*
X000538Y031247D02*
X001712Y031247D01*
X001761Y032198D02*
X000538Y032198D01*
X000538Y032356D02*
X001602Y032356D01*
X001573Y032515D02*
X000538Y032515D01*
X000538Y032673D02*
X001573Y032673D01*
X001650Y032832D02*
X000538Y032832D01*
X000538Y032990D02*
X001808Y032990D01*
X001810Y033149D02*
X000538Y033149D01*
X000538Y033307D02*
X001651Y033307D01*
X001573Y033466D02*
X000539Y033466D01*
X000539Y033624D02*
X001573Y033624D01*
X001601Y033783D02*
X000539Y033783D01*
X000539Y033941D02*
X001759Y033941D01*
X003389Y033307D02*
X058592Y033307D01*
X058592Y035368D02*
X051569Y035368D01*
X051515Y035313D02*
X051777Y035575D01*
X051777Y035945D01*
X051515Y036207D01*
X051145Y036207D01*
X050883Y035945D01*
X050883Y035575D01*
X051145Y035313D01*
X051515Y035313D01*
X051728Y035526D02*
X058592Y035526D01*
X058592Y035685D02*
X051777Y035685D01*
X051777Y035843D02*
X058592Y035843D01*
X058592Y036002D02*
X051720Y036002D01*
X051562Y036160D02*
X058592Y036160D01*
X058592Y036319D02*
X051520Y036319D01*
X051515Y036313D02*
X051777Y036575D01*
X051777Y036945D01*
X051515Y037207D01*
X051145Y037207D01*
X050883Y036945D01*
X050883Y036575D01*
X051145Y036313D01*
X051515Y036313D01*
X051679Y036477D02*
X058592Y036477D01*
X058592Y036636D02*
X051777Y036636D01*
X051777Y036794D02*
X058592Y036794D01*
X058592Y036953D02*
X051769Y036953D01*
X051611Y037111D02*
X058592Y037111D01*
X058592Y037270D02*
X000539Y037270D01*
X000540Y037428D02*
X058592Y037428D01*
X058592Y037587D02*
X000540Y037587D01*
X000540Y037745D02*
X058592Y037745D01*
X058592Y037904D02*
X000540Y037904D01*
X000540Y038062D02*
X016798Y038062D01*
X016658Y038221D02*
X000540Y038221D01*
X000540Y038379D02*
X016632Y038379D01*
X016684Y038538D02*
X000540Y038538D01*
X000540Y038696D02*
X016981Y038696D01*
X017139Y038855D02*
X000540Y038855D01*
X000539Y037111D02*
X050049Y037111D01*
X050611Y037111D02*
X051049Y037111D01*
X050891Y036953D02*
X050769Y036953D01*
X050777Y036794D02*
X050883Y036794D01*
X050883Y036636D02*
X050777Y036636D01*
X050679Y036477D02*
X050981Y036477D01*
X051140Y036319D02*
X050520Y036319D01*
X050562Y036160D02*
X051098Y036160D01*
X050940Y036002D02*
X050720Y036002D01*
X050777Y035843D02*
X050883Y035843D01*
X050883Y035685D02*
X050777Y035685D01*
X050728Y035526D02*
X050932Y035526D01*
X051091Y035368D02*
X050569Y035368D01*
X050671Y035051D02*
X050989Y035051D01*
X050883Y034892D02*
X050777Y034892D01*
X050777Y034734D02*
X050883Y034734D01*
X050145Y034313D02*
X049883Y034575D01*
X058592Y038062D02*
X017122Y038062D01*
X017262Y038221D02*
X058592Y038221D01*
X058592Y038379D02*
X017314Y038379D01*
X017320Y038710D02*
X016960Y038350D01*
X017320Y038710D02*
X019470Y038710D01*
X019798Y038696D02*
X058592Y038696D01*
X058592Y038538D02*
X019754Y038538D01*
X019765Y038855D02*
X058592Y038855D01*
X018922Y021103D02*
X014591Y021103D01*
X014409Y021103D02*
X013739Y021103D01*
X014850Y021990D02*
X014880Y029660D01*
X013010Y028869D02*
X000537Y028869D01*
X000537Y028711D02*
X013010Y028711D01*
X013010Y028552D02*
X000537Y028552D01*
X000537Y028394D02*
X013010Y028394D01*
X013010Y028235D02*
X000537Y028235D01*
X000537Y028077D02*
X013010Y028077D01*
X013010Y027918D02*
X000537Y027918D01*
X000537Y027760D02*
X013010Y027760D01*
X013010Y027601D02*
X000537Y027601D01*
X003329Y023163D02*
X005160Y023163D01*
X005160Y023005D02*
X003447Y023005D01*
X003447Y022846D02*
X005160Y022846D01*
X005160Y022688D02*
X003447Y022688D01*
X015490Y021737D02*
X015509Y021737D01*
X015562Y021578D02*
X015912Y021578D01*
X015931Y021420D02*
X015588Y021420D01*
X015535Y021261D02*
X016045Y021261D01*
X015983Y021737D02*
X015711Y021737D01*
X015901Y021895D02*
X016010Y021895D01*
X001591Y035368D02*
X000539Y035368D01*
X000539Y035526D02*
X001573Y035526D01*
X001573Y035685D02*
X000539Y035685D01*
X000539Y035843D02*
X001661Y035843D01*
X001820Y036002D02*
X000539Y036002D01*
X000539Y036160D02*
X001798Y036160D01*
X001640Y036319D02*
X000539Y036319D01*
X000539Y036477D02*
X001573Y036477D01*
X001573Y036636D02*
X000539Y036636D01*
X000539Y036794D02*
X001612Y036794D01*
X001771Y036953D02*
X000539Y036953D01*
D20*
X018920Y011350D03*
M02*
