G75*
G70*
%OFA0B0*%
%FSLAX24Y24*%
%IPPOS*%
%LPD*%
%AMOC8*
5,1,8,0,0,1.08239X$1,22.5*
%
%ADD10C,0.0000*%
%ADD11R,0.0237X0.0631*%
%ADD12R,0.0631X0.0237*%
%ADD13R,0.0840X0.0300*%
%ADD14OC8,0.0634*%
%ADD15R,0.2140X0.0800*%
%ADD16R,0.0552X0.0631*%
%ADD17R,0.0749X0.0670*%
%ADD18OC8,0.0520*%
%ADD19C,0.0520*%
%ADD20R,0.0670X0.0749*%
%ADD21R,0.0631X0.0197*%
%ADD22C,0.1346*%
%ADD23C,0.0594*%
%ADD24R,0.0631X0.0552*%
%ADD25C,0.0820*%
%ADD26R,0.0750X0.0670*%
%ADD27C,0.0540*%
D10*
X000170Y000290D02*
X000180Y031900D01*
X058792Y031930D01*
X058792Y000400D01*
X000170Y000290D01*
D11*
X023885Y012707D03*
X024200Y012707D03*
X024515Y012707D03*
X024830Y012707D03*
X025145Y012707D03*
X025460Y012707D03*
X025775Y012707D03*
X026090Y012707D03*
X026405Y012707D03*
X026720Y012707D03*
X027035Y012707D03*
X027035Y017273D03*
X026720Y017273D03*
X026405Y017273D03*
X026090Y017273D03*
X025775Y017273D03*
X025460Y017273D03*
X025145Y017273D03*
X024830Y017273D03*
X024515Y017273D03*
X024200Y017273D03*
X023885Y017273D03*
D12*
X023177Y016565D03*
X023177Y016250D03*
X023177Y015935D03*
X023177Y015620D03*
X023177Y015305D03*
X023177Y014990D03*
X023177Y014675D03*
X023177Y014360D03*
X023177Y014045D03*
X023177Y013730D03*
X023177Y013415D03*
X027743Y013415D03*
X027743Y013730D03*
X027743Y014045D03*
X027743Y014360D03*
X027743Y014675D03*
X027743Y014990D03*
X027743Y015305D03*
X027743Y015620D03*
X027743Y015935D03*
X027743Y016250D03*
X027743Y016565D03*
D13*
X034370Y014400D03*
X034370Y013900D03*
X034370Y013400D03*
X034370Y012900D03*
X034370Y012400D03*
X034370Y011900D03*
X034370Y011400D03*
X034370Y010900D03*
X034370Y010400D03*
X034370Y009900D03*
X038330Y009900D03*
X038330Y010400D03*
X038330Y010900D03*
X038330Y011400D03*
X038330Y011900D03*
X038330Y012400D03*
X038330Y012900D03*
X038330Y013400D03*
X038330Y013900D03*
X038330Y014400D03*
X041720Y013880D03*
X041720Y013380D03*
X041720Y012880D03*
X041720Y012380D03*
X041720Y011880D03*
X041720Y011380D03*
X041720Y010880D03*
X041720Y010380D03*
X041720Y009880D03*
X045680Y009880D03*
X045680Y010380D03*
X045680Y010880D03*
X045680Y011380D03*
X045680Y011880D03*
X045680Y012380D03*
X045680Y012880D03*
X045680Y013380D03*
X045680Y013880D03*
X045310Y017090D03*
X045310Y017590D03*
X045310Y018090D03*
X045310Y018590D03*
X045310Y019090D03*
X045310Y019590D03*
X045310Y020090D03*
X045310Y020590D03*
X045310Y021090D03*
X041350Y021090D03*
X041350Y020590D03*
X041350Y020090D03*
X041350Y019590D03*
X041350Y019090D03*
X041350Y018590D03*
X041350Y018090D03*
X041350Y017590D03*
X041350Y017090D03*
X038360Y017040D03*
X038360Y017540D03*
X038360Y018040D03*
X038360Y018540D03*
X038360Y019040D03*
X038360Y019540D03*
X038360Y020040D03*
X038360Y020540D03*
X038360Y021040D03*
X038360Y021540D03*
X034400Y021540D03*
X034400Y021040D03*
X034400Y020540D03*
X034400Y020040D03*
X034400Y019540D03*
X034400Y019040D03*
X034400Y018540D03*
X034400Y018040D03*
X034400Y017540D03*
X034400Y017040D03*
X034420Y025230D03*
X034420Y025730D03*
X034420Y026230D03*
X034420Y026730D03*
X034420Y027230D03*
X034420Y027730D03*
X034420Y028230D03*
X034420Y028730D03*
X034420Y029230D03*
X034420Y029730D03*
X038380Y029730D03*
X038380Y029230D03*
X038380Y028730D03*
X038380Y028230D03*
X038380Y027730D03*
X038380Y027230D03*
X038380Y026730D03*
X038380Y026230D03*
X038380Y025730D03*
X038380Y025230D03*
X041180Y025220D03*
X041180Y025720D03*
X041180Y026220D03*
X041180Y026720D03*
X041180Y027220D03*
X041180Y027720D03*
X041180Y028220D03*
X041180Y028720D03*
X041180Y029220D03*
X045140Y029220D03*
X045140Y028720D03*
X045140Y028220D03*
X045140Y027720D03*
X045140Y027220D03*
X045140Y026720D03*
X045140Y026220D03*
X045140Y025720D03*
X045140Y025220D03*
X019330Y021750D03*
X019330Y021250D03*
X019330Y020750D03*
X019330Y020250D03*
X019330Y019750D03*
X019330Y019250D03*
X019330Y018750D03*
X019330Y018250D03*
X019330Y017750D03*
X019330Y017250D03*
X015370Y017250D03*
X015370Y017750D03*
X015370Y018250D03*
X015370Y018750D03*
X015370Y019250D03*
X015370Y019750D03*
X015370Y020250D03*
X015370Y020750D03*
X015370Y021250D03*
X015370Y021750D03*
X012650Y021760D03*
X012650Y021260D03*
X012650Y020760D03*
X012650Y020260D03*
X012650Y019760D03*
X012650Y019260D03*
X012650Y018760D03*
X012650Y018260D03*
X012650Y017760D03*
X008690Y017760D03*
X008690Y018260D03*
X008690Y018760D03*
X008690Y019260D03*
X008690Y019760D03*
X008690Y020260D03*
X008690Y020760D03*
X008690Y021260D03*
X008690Y021760D03*
X015110Y025740D03*
X015110Y026240D03*
X015110Y026740D03*
X015110Y027240D03*
X015110Y027740D03*
X015110Y028240D03*
X015110Y028740D03*
X015110Y029240D03*
X015110Y029740D03*
X015110Y030240D03*
X012720Y030240D03*
X012720Y029740D03*
X012720Y029240D03*
X012720Y028740D03*
X012720Y028240D03*
X012720Y027740D03*
X012720Y027240D03*
X012720Y026740D03*
X012720Y026240D03*
X008760Y026240D03*
X008760Y026740D03*
X008760Y027240D03*
X008760Y027740D03*
X008760Y028240D03*
X008760Y028740D03*
X008760Y029240D03*
X008760Y029740D03*
X008760Y030240D03*
X019070Y030240D03*
X019070Y029740D03*
X019070Y029240D03*
X019070Y028740D03*
X019070Y028240D03*
X019070Y027740D03*
X019070Y027240D03*
X019070Y026740D03*
X019070Y026240D03*
X019070Y025740D03*
X034380Y007230D03*
X034380Y006730D03*
X034380Y006230D03*
X034380Y005730D03*
X034380Y005230D03*
X034380Y004730D03*
X034380Y004230D03*
X034380Y003730D03*
X034380Y003230D03*
X034380Y002730D03*
X038340Y002730D03*
X038340Y003230D03*
X038340Y003730D03*
X038340Y004230D03*
X038340Y004730D03*
X038340Y005230D03*
X038340Y005730D03*
X038340Y006230D03*
X038340Y006730D03*
X038340Y007230D03*
X041630Y006750D03*
X041630Y006250D03*
X041630Y005750D03*
X041630Y005250D03*
X041630Y004750D03*
X041630Y004250D03*
X041630Y003750D03*
X041630Y003250D03*
X041630Y002750D03*
X045590Y002750D03*
X045590Y003250D03*
X045590Y003750D03*
X045590Y004250D03*
X045590Y004750D03*
X045590Y005250D03*
X045590Y005750D03*
X045590Y006250D03*
X045590Y006750D03*
D14*
X053180Y006270D03*
X054180Y006270D03*
X054180Y005270D03*
X053180Y005270D03*
X053180Y004270D03*
X054180Y004270D03*
X054180Y007270D03*
X053180Y007270D03*
X053180Y008270D03*
X054180Y008270D03*
X054190Y013880D03*
X053190Y013880D03*
X053190Y014880D03*
X054190Y014880D03*
X054190Y015880D03*
X053190Y015880D03*
X053190Y016880D03*
X054190Y016880D03*
X054190Y017880D03*
X053190Y017880D03*
X053120Y023280D03*
X054120Y023280D03*
X054120Y024280D03*
X053120Y024280D03*
X053120Y025280D03*
X054120Y025280D03*
X054120Y026280D03*
X053120Y026280D03*
X053120Y027280D03*
X054120Y027280D03*
X007580Y008490D03*
X006580Y008490D03*
X005580Y008490D03*
X004580Y008490D03*
X003580Y008490D03*
X003580Y007490D03*
X004580Y007490D03*
X005580Y007490D03*
X006580Y007490D03*
X007580Y007490D03*
X004070Y015710D03*
X003070Y015710D03*
X003070Y016710D03*
X004070Y016710D03*
X004070Y017710D03*
X003070Y017710D03*
X003070Y018710D03*
X004070Y018710D03*
X004070Y019710D03*
X003070Y019710D03*
X003090Y025020D03*
X004090Y025020D03*
X004090Y026020D03*
X003090Y026020D03*
X003090Y027020D03*
X004090Y027020D03*
X004090Y028020D03*
X003090Y028020D03*
X003090Y029020D03*
X004090Y029020D03*
D15*
X023930Y009090D03*
X027730Y009090D03*
D16*
X014304Y006370D03*
X013556Y006370D03*
X005894Y011340D03*
X005146Y011340D03*
D17*
X004020Y002591D03*
X004020Y001489D03*
D18*
X002260Y001960D03*
D19*
X002260Y002660D03*
D20*
X014599Y007570D03*
X015701Y007570D03*
X016479Y003180D03*
X017581Y003180D03*
X024339Y011120D03*
X025441Y011120D03*
X026429Y011120D03*
X027531Y011120D03*
D21*
X021067Y008023D03*
X021067Y007767D03*
X021067Y007512D03*
X021067Y007256D03*
X021067Y007000D03*
X021067Y006744D03*
X021067Y006488D03*
X021067Y006232D03*
X021067Y005976D03*
X021067Y005720D03*
X021067Y005464D03*
X021067Y005208D03*
X021067Y004953D03*
X021067Y004697D03*
X018213Y004697D03*
X018213Y004953D03*
X018213Y005208D03*
X018213Y005464D03*
X018213Y005720D03*
X018213Y005976D03*
X018213Y006232D03*
X018213Y006488D03*
X018213Y006744D03*
X018213Y007000D03*
X018213Y007256D03*
X018213Y007512D03*
X018213Y007767D03*
X018213Y008023D03*
D22*
X012297Y004487D03*
X007123Y004487D03*
D23*
X008332Y003420D03*
X009316Y003420D03*
X010104Y003420D03*
X011088Y003420D03*
D24*
X015330Y005386D03*
X015330Y006134D03*
D25*
X024420Y004060D02*
X024420Y003280D01*
X026390Y003280D02*
X026390Y004060D01*
X028360Y004060D02*
X028360Y003280D01*
D26*
X004660Y004430D03*
X004660Y005550D03*
D27*
X013280Y007430D03*
X022010Y003180D03*
X028860Y006980D03*
X032830Y010820D03*
X039220Y008750D03*
X047060Y007330D03*
X048390Y007050D03*
X039960Y003380D03*
X019790Y012640D03*
X019150Y014540D03*
X017460Y014870D03*
X011080Y015090D03*
X021390Y021550D03*
X024890Y019880D03*
X027440Y023480D03*
X020330Y025400D03*
X013540Y022940D03*
X005850Y029240D03*
X005870Y030160D03*
X032490Y016760D03*
X033590Y015240D03*
X038490Y015920D03*
X040020Y015850D03*
X039160Y024330D03*
X036600Y024350D03*
M02*
