G75*
G70*
%OFA0B0*%
%FSLAX24Y24*%
%IPPOS*%
%LPD*%
%AMOC8*
5,1,8,0,0,1.08239X$1,22.5*
%
%ADD10C,0.0000*%
%ADD11C,0.0080*%
%ADD12C,0.0160*%
%ADD13C,0.0060*%
%ADD14C,0.0050*%
%ADD15C,0.0040*%
%ADD16C,0.0070*%
D10*
X000250Y000210D02*
X000260Y039250D01*
X058872Y039280D01*
X058872Y000320D01*
X000250Y000210D01*
D11*
X007200Y010296D02*
X007515Y010611D01*
X014925Y010611D01*
X015240Y010296D01*
X007200Y010296D01*
X007200Y013524D01*
X007515Y013209D01*
X010472Y013209D01*
X010472Y013217D02*
X010472Y013497D01*
X011968Y013497D02*
X011968Y013217D01*
X011968Y013209D02*
X014925Y013209D01*
X015240Y013524D01*
X015240Y010296D01*
X014925Y010611D02*
X014925Y013209D01*
X015240Y013524D02*
X007200Y013524D01*
X007515Y013209D02*
X007515Y010611D01*
X004114Y015840D02*
X000886Y015840D01*
X001201Y016155D01*
X001201Y020612D01*
X001193Y020612D02*
X000913Y020612D01*
X000913Y022108D02*
X001193Y022108D01*
X001201Y022108D02*
X001201Y026565D01*
X000886Y026880D01*
X004114Y026880D01*
X003799Y026565D01*
X001201Y026565D01*
X000886Y026880D02*
X000886Y015840D01*
X001201Y016155D02*
X003799Y016155D01*
X004114Y015840D01*
X004114Y026880D01*
X003799Y026565D02*
X003799Y016155D01*
X004134Y027550D02*
X000906Y027550D01*
X001221Y027865D01*
X001221Y032322D01*
X001213Y032322D02*
X000933Y032322D01*
X000933Y033818D02*
X001213Y033818D01*
X001221Y033818D02*
X001221Y038275D01*
X000906Y038590D01*
X004134Y038590D01*
X003819Y038275D01*
X001221Y038275D01*
X000906Y038590D02*
X000906Y027550D01*
X001221Y027865D02*
X003819Y027865D01*
X004134Y027550D01*
X004134Y038590D01*
X003819Y038275D02*
X003819Y027865D01*
X049206Y027310D02*
X049206Y016270D01*
X049521Y016585D01*
X052119Y016585D01*
X052434Y016270D01*
X049206Y016270D01*
X049521Y016585D02*
X049521Y026995D01*
X049206Y027310D01*
X052434Y027310D01*
X052119Y026995D01*
X052119Y022538D01*
X052127Y022538D02*
X052407Y022538D01*
X052407Y021042D02*
X052127Y021042D01*
X052119Y021042D02*
X052119Y016585D01*
X052434Y016270D02*
X052434Y027310D01*
X052444Y027740D02*
X052129Y028055D01*
X052129Y032512D01*
X052137Y032512D02*
X052417Y032512D01*
X052417Y034008D02*
X052137Y034008D01*
X052129Y034008D02*
X052129Y038465D01*
X052444Y038780D01*
X052444Y027740D01*
X049216Y027740D01*
X049531Y028055D01*
X052129Y028055D01*
X052119Y026995D02*
X049521Y026995D01*
X049216Y027740D02*
X049216Y038780D01*
X049531Y038465D01*
X049531Y028055D01*
X054356Y023920D02*
X054671Y023605D01*
X054671Y013195D01*
X054356Y012880D01*
X054356Y023920D01*
X057584Y023920D01*
X057269Y023605D01*
X057269Y019148D01*
X057277Y019148D02*
X057557Y019148D01*
X057557Y017652D02*
X057277Y017652D01*
X057269Y017652D02*
X057269Y013195D01*
X057584Y012880D01*
X054356Y012880D01*
X054671Y013195D02*
X057269Y013195D01*
X057584Y012880D02*
X057584Y023920D01*
X057269Y023605D02*
X054671Y023605D01*
X054336Y012310D02*
X054651Y011995D01*
X054651Y001585D01*
X054336Y001270D01*
X054336Y012310D01*
X057564Y012310D01*
X057249Y011995D01*
X057249Y007538D01*
X057257Y007538D02*
X057537Y007538D01*
X057537Y006042D02*
X057257Y006042D01*
X057249Y006042D02*
X057249Y001585D01*
X057564Y001270D01*
X054336Y001270D01*
X054651Y001585D02*
X057249Y001585D01*
X057564Y001270D02*
X057564Y012310D01*
X057249Y011995D02*
X054651Y011995D01*
X052129Y038465D02*
X049531Y038465D01*
X049216Y038780D02*
X052444Y038780D01*
D12*
X051606Y037713D02*
X051606Y037162D01*
X052027Y037437D01*
X051606Y037713D01*
X051596Y026243D02*
X051596Y025692D01*
X052017Y025967D01*
X051596Y026243D01*
X056746Y022853D02*
X056746Y022302D01*
X057167Y022577D01*
X056746Y022853D01*
X056726Y011243D02*
X056726Y010692D01*
X057147Y010967D01*
X056726Y011243D01*
X008818Y012686D02*
X008267Y012686D01*
X008543Y013107D01*
X008818Y012686D01*
X001724Y016907D02*
X001724Y017458D01*
X001303Y017183D01*
X001724Y016907D01*
X001744Y028617D02*
X001744Y029168D01*
X001323Y028893D01*
X001744Y028617D01*
D13*
X004451Y026655D02*
X004557Y026762D01*
X004771Y026762D01*
X004878Y026655D01*
X005095Y026762D02*
X005522Y026121D01*
X005095Y026121D02*
X005522Y026762D01*
X004878Y026121D02*
X004451Y026548D01*
X004451Y026655D01*
X004451Y026121D02*
X004878Y026121D01*
X004975Y037711D02*
X005402Y038352D01*
X004975Y038352D02*
X005402Y037711D01*
X004758Y037711D02*
X004331Y037711D01*
X004544Y037711D02*
X004544Y038352D01*
X004758Y038138D01*
X009022Y014589D02*
X009236Y014589D01*
X009342Y014482D01*
X009342Y014376D01*
X009236Y014269D01*
X009022Y014269D01*
X008915Y014162D01*
X008915Y014055D01*
X009022Y013949D01*
X009236Y013949D01*
X009342Y014055D01*
X009559Y013949D02*
X009772Y013949D01*
X009665Y013949D02*
X009665Y014589D01*
X009559Y014589D02*
X009772Y014589D01*
X009990Y014589D02*
X009990Y013949D01*
X010203Y014162D01*
X010417Y013949D01*
X010417Y014589D01*
X010634Y014482D02*
X010634Y014269D01*
X010741Y014162D01*
X011061Y014162D01*
X010848Y014162D02*
X010634Y013949D01*
X011061Y013949D02*
X011061Y014589D01*
X010741Y014589D01*
X010634Y014482D01*
X011279Y014589D02*
X011706Y014589D01*
X011706Y013949D01*
X011279Y013949D01*
X011492Y014269D02*
X011706Y014269D01*
X011923Y014162D02*
X011923Y014055D01*
X012030Y013949D01*
X012244Y013949D01*
X012350Y014055D01*
X012244Y014269D02*
X012030Y014269D01*
X011923Y014162D01*
X011923Y014482D02*
X012030Y014589D01*
X012244Y014589D01*
X012350Y014482D01*
X012350Y014376D01*
X012244Y014269D01*
X009022Y014589D02*
X008915Y014482D01*
X007350Y006630D02*
X007350Y006430D01*
X007450Y006530D02*
X007250Y006530D01*
X007100Y006230D02*
X007102Y006286D01*
X007108Y006343D01*
X007118Y006398D01*
X007132Y006453D01*
X007149Y006507D01*
X007171Y006559D01*
X007196Y006609D01*
X007224Y006658D01*
X007256Y006705D01*
X007291Y006749D01*
X007329Y006791D01*
X007370Y006830D01*
X007414Y006865D01*
X007460Y006898D01*
X007508Y006927D01*
X007558Y006953D01*
X007610Y006976D01*
X007664Y006994D01*
X007718Y007009D01*
X007773Y007020D01*
X007829Y007027D01*
X007886Y007030D01*
X007942Y007029D01*
X007999Y007024D01*
X008054Y007015D01*
X008109Y007002D01*
X008163Y006985D01*
X008216Y006965D01*
X008267Y006941D01*
X008316Y006913D01*
X008363Y006882D01*
X008408Y006848D01*
X008451Y006810D01*
X008490Y006770D01*
X008527Y006727D01*
X008560Y006682D01*
X008590Y006634D01*
X008617Y006584D01*
X008640Y006533D01*
X008660Y006480D01*
X008676Y006426D01*
X008688Y006370D01*
X008696Y006315D01*
X008700Y006258D01*
X008700Y006202D01*
X008696Y006145D01*
X008688Y006090D01*
X008676Y006034D01*
X008660Y005980D01*
X008640Y005927D01*
X008617Y005876D01*
X008590Y005826D01*
X008560Y005778D01*
X008527Y005733D01*
X008490Y005690D01*
X008451Y005650D01*
X008408Y005612D01*
X008363Y005578D01*
X008316Y005547D01*
X008267Y005519D01*
X008216Y005495D01*
X008163Y005475D01*
X008109Y005458D01*
X008054Y005445D01*
X007999Y005436D01*
X007942Y005431D01*
X007886Y005430D01*
X007829Y005433D01*
X007773Y005440D01*
X007718Y005451D01*
X007664Y005466D01*
X007610Y005484D01*
X007558Y005507D01*
X007508Y005533D01*
X007460Y005562D01*
X007414Y005595D01*
X007370Y005630D01*
X007329Y005669D01*
X007291Y005711D01*
X007256Y005755D01*
X007224Y005802D01*
X007196Y005851D01*
X007171Y005901D01*
X007149Y005953D01*
X007132Y006007D01*
X007118Y006062D01*
X007108Y006117D01*
X007102Y006174D01*
X007100Y006230D01*
X022350Y005580D02*
X022350Y003680D01*
X022550Y003780D01*
X022550Y004380D01*
X028490Y004380D01*
X028490Y005580D01*
X022550Y005580D01*
X022350Y005580D01*
X022550Y005580D02*
X022550Y004380D01*
X022750Y004480D02*
X024350Y004480D01*
X024350Y005480D01*
X022750Y005480D01*
X022750Y004480D01*
X022972Y004738D02*
X022950Y004760D01*
X022931Y004783D01*
X022915Y004809D01*
X022902Y004836D01*
X022892Y004865D01*
X022885Y004894D01*
X022881Y004925D01*
X022881Y004955D01*
X022885Y004985D01*
X022892Y005015D01*
X022902Y005043D01*
X022915Y005071D01*
X022931Y005096D01*
X022950Y005120D01*
X022940Y005080D02*
X024140Y004830D01*
X024190Y004880D02*
X022990Y005130D01*
X022954Y004752D02*
X023003Y004717D01*
X023055Y004686D01*
X023108Y004658D01*
X023163Y004633D01*
X023219Y004612D01*
X023277Y004594D01*
X023335Y004580D01*
X023395Y004570D01*
X023455Y004563D01*
X023515Y004560D01*
X023575Y004561D01*
X023635Y004566D01*
X023695Y004574D01*
X023754Y004586D01*
X023812Y004602D01*
X023869Y004622D01*
X023925Y004645D01*
X023979Y004671D01*
X024031Y004701D01*
X024082Y004734D01*
X024130Y004770D01*
X024113Y004756D02*
X024139Y004773D01*
X024162Y004792D01*
X024182Y004815D01*
X024199Y004839D01*
X024213Y004866D01*
X024224Y004895D01*
X024230Y004924D01*
X024233Y004954D01*
X024232Y004985D01*
X024227Y005014D01*
X024218Y005043D01*
X024205Y005071D01*
X024189Y005096D01*
X024170Y005120D01*
X024720Y005480D02*
X024720Y004480D01*
X026320Y004480D01*
X026320Y005480D01*
X024720Y005480D01*
X024960Y005130D02*
X026160Y004880D01*
X026110Y004830D02*
X024910Y005080D01*
X024920Y005120D02*
X024901Y005096D01*
X024885Y005071D01*
X024872Y005043D01*
X024862Y005015D01*
X024855Y004985D01*
X024851Y004955D01*
X024851Y004925D01*
X024855Y004894D01*
X024862Y004865D01*
X024872Y004836D01*
X024885Y004809D01*
X024901Y004783D01*
X024920Y004760D01*
X024942Y004738D01*
X024918Y005122D02*
X024955Y005162D01*
X024995Y005199D01*
X025037Y005234D01*
X025081Y005265D01*
X025127Y005294D01*
X025175Y005319D01*
X025225Y005342D01*
X025276Y005360D01*
X025328Y005376D01*
X025382Y005387D01*
X025435Y005395D01*
X025490Y005400D01*
X025544Y005401D01*
X025599Y005398D01*
X025653Y005392D01*
X025706Y005382D01*
X025759Y005368D01*
X025810Y005351D01*
X025861Y005330D01*
X025910Y005307D01*
X025957Y005279D01*
X026002Y005249D01*
X026046Y005216D01*
X026086Y005180D01*
X026125Y005141D01*
X026160Y005100D01*
X026140Y005120D02*
X026159Y005096D01*
X026175Y005071D01*
X026188Y005043D01*
X026197Y005014D01*
X026202Y004985D01*
X026203Y004954D01*
X026200Y004924D01*
X026194Y004895D01*
X026183Y004866D01*
X026169Y004839D01*
X026152Y004815D01*
X026132Y004792D01*
X026109Y004773D01*
X026083Y004756D01*
X026690Y004480D02*
X028290Y004480D01*
X028290Y005480D01*
X026690Y005480D01*
X026690Y004480D01*
X026902Y004738D02*
X026880Y004760D01*
X026861Y004783D01*
X026845Y004809D01*
X026832Y004836D01*
X026822Y004865D01*
X026815Y004894D01*
X026811Y004925D01*
X026811Y004955D01*
X026815Y004985D01*
X026822Y005015D01*
X026832Y005043D01*
X026845Y005071D01*
X026861Y005096D01*
X026880Y005120D01*
X026870Y005080D02*
X028070Y004830D01*
X028120Y004880D02*
X026920Y005130D01*
X026884Y004752D02*
X026933Y004717D01*
X026985Y004686D01*
X027038Y004658D01*
X027093Y004633D01*
X027149Y004612D01*
X027207Y004594D01*
X027265Y004580D01*
X027325Y004570D01*
X027385Y004563D01*
X027445Y004560D01*
X027505Y004561D01*
X027565Y004566D01*
X027625Y004574D01*
X027684Y004586D01*
X027742Y004602D01*
X027799Y004622D01*
X027855Y004645D01*
X027909Y004671D01*
X027961Y004701D01*
X028012Y004734D01*
X028060Y004770D01*
X028043Y004756D02*
X028069Y004773D01*
X028092Y004792D01*
X028112Y004815D01*
X028129Y004839D01*
X028143Y004866D01*
X028154Y004895D01*
X028160Y004924D01*
X028163Y004954D01*
X028162Y004985D01*
X028157Y005014D01*
X028148Y005043D01*
X028135Y005071D01*
X028119Y005096D01*
X028100Y005120D01*
X028120Y005100D02*
X028085Y005141D01*
X028046Y005180D01*
X028006Y005216D01*
X027962Y005249D01*
X027917Y005279D01*
X027870Y005307D01*
X027821Y005330D01*
X027770Y005351D01*
X027719Y005368D01*
X027666Y005382D01*
X027613Y005392D01*
X027559Y005398D01*
X027504Y005401D01*
X027450Y005400D01*
X027395Y005395D01*
X027342Y005387D01*
X027288Y005376D01*
X027236Y005360D01*
X027185Y005342D01*
X027135Y005319D01*
X027087Y005294D01*
X027041Y005265D01*
X026997Y005234D01*
X026955Y005199D01*
X026915Y005162D01*
X026878Y005122D01*
X026100Y004770D02*
X026052Y004734D01*
X026001Y004701D01*
X025949Y004671D01*
X025895Y004645D01*
X025839Y004622D01*
X025782Y004602D01*
X025724Y004586D01*
X025665Y004574D01*
X025605Y004566D01*
X025545Y004561D01*
X025485Y004560D01*
X025425Y004563D01*
X025365Y004570D01*
X025305Y004580D01*
X025247Y004594D01*
X025189Y004612D01*
X025133Y004633D01*
X025078Y004658D01*
X025025Y004686D01*
X024973Y004717D01*
X024924Y004752D01*
X024190Y005100D02*
X024155Y005141D01*
X024116Y005180D01*
X024075Y005216D01*
X024032Y005249D01*
X023987Y005279D01*
X023940Y005307D01*
X023891Y005330D01*
X023840Y005351D01*
X023789Y005368D01*
X023736Y005382D01*
X023683Y005392D01*
X023628Y005398D01*
X023574Y005401D01*
X023520Y005400D01*
X023465Y005395D01*
X023412Y005387D01*
X023358Y005376D01*
X023306Y005360D01*
X023255Y005341D01*
X023205Y005319D01*
X023157Y005294D01*
X023111Y005265D01*
X023067Y005234D01*
X023025Y005199D01*
X022985Y005162D01*
X022948Y005122D01*
X022550Y003780D02*
X022550Y003380D01*
X022900Y003380D01*
X022900Y003230D02*
X022750Y003230D01*
X022750Y001430D01*
X024350Y001430D01*
X024350Y003230D01*
X024190Y003230D01*
X024200Y003380D02*
X024860Y003380D01*
X024870Y003230D02*
X024720Y003230D01*
X024720Y001430D01*
X024720Y000680D01*
X024350Y000680D01*
X022750Y000680D01*
X022750Y001430D01*
X022550Y001530D02*
X022550Y003380D01*
X022900Y002930D02*
X022900Y001680D01*
X024200Y001680D01*
X024200Y002930D01*
X024870Y002930D02*
X024870Y001680D01*
X026170Y001680D01*
X026170Y002930D01*
X026170Y003230D02*
X026320Y003230D01*
X026320Y001430D01*
X024720Y001430D01*
X024350Y001430D02*
X024350Y000680D01*
X024720Y000680D02*
X026320Y000680D01*
X026690Y000680D01*
X028290Y000680D01*
X028290Y001430D01*
X026690Y001430D01*
X026690Y003230D01*
X026840Y003230D01*
X026840Y003380D02*
X026170Y003380D01*
X026840Y002930D02*
X026840Y001680D01*
X028140Y001680D01*
X028140Y002930D01*
X028140Y003230D02*
X028290Y003230D01*
X028290Y001430D01*
X028290Y000680D02*
X028490Y000680D01*
X028490Y003380D01*
X028140Y003380D01*
X028490Y003380D02*
X028490Y004380D01*
X026690Y001430D02*
X026690Y000680D01*
X026320Y000680D02*
X026320Y001430D01*
X022750Y000680D02*
X022550Y000680D01*
X022550Y001080D01*
X022550Y001530D01*
X022350Y001630D01*
X022350Y000980D01*
X022550Y001080D01*
X053275Y011585D02*
X053275Y011692D01*
X053382Y011799D01*
X053702Y011799D01*
X053702Y011585D01*
X053596Y011479D01*
X053382Y011479D01*
X053275Y011585D01*
X053489Y012012D02*
X053702Y011799D01*
X053489Y012012D02*
X053275Y012119D01*
X053920Y012119D02*
X054347Y011479D01*
X053920Y011479D02*
X054347Y012119D01*
X054337Y023209D02*
X053910Y023849D01*
X053692Y023849D02*
X053692Y023529D01*
X053479Y023636D01*
X053372Y023636D01*
X053265Y023529D01*
X053265Y023315D01*
X053372Y023209D01*
X053586Y023209D01*
X053692Y023315D01*
X053910Y023209D02*
X054337Y023849D01*
X053692Y023849D02*
X053265Y023849D01*
X053500Y026439D02*
X053927Y027079D01*
X053500Y027079D02*
X053927Y026439D01*
X053282Y026759D02*
X052962Y027079D01*
X052962Y026439D01*
X052855Y026759D02*
X053282Y026759D01*
X053246Y037879D02*
X053352Y037985D01*
X053246Y037879D02*
X053032Y037879D01*
X052925Y037985D01*
X052925Y038092D01*
X053032Y038199D01*
X053139Y038199D01*
X053032Y038199D02*
X052925Y038306D01*
X052925Y038412D01*
X053032Y038519D01*
X053246Y038519D01*
X053352Y038412D01*
X053570Y038519D02*
X053997Y037879D01*
X053570Y037879D02*
X053997Y038519D01*
D14*
X007575Y005170D02*
X007575Y005020D01*
X007500Y004945D01*
X007500Y004784D02*
X007575Y004709D01*
X007575Y004559D01*
X007500Y004484D01*
X007200Y004484D01*
X007125Y004559D01*
X007125Y004709D01*
X007200Y004784D01*
X007125Y004945D02*
X007425Y005245D01*
X007500Y005245D01*
X007575Y005170D01*
X007125Y005245D02*
X007125Y004945D01*
X023945Y004030D02*
X023945Y003955D01*
X024020Y003880D01*
X023945Y003805D01*
X023945Y003730D01*
X024020Y003655D01*
X024170Y003655D01*
X024245Y003730D01*
X024095Y003880D02*
X024020Y003880D01*
X023945Y004030D02*
X024020Y004105D01*
X024170Y004105D01*
X024245Y004030D01*
X025945Y004030D02*
X025945Y003955D01*
X026245Y003655D01*
X025945Y003655D01*
X025945Y004030D02*
X026020Y004105D01*
X026170Y004105D01*
X026245Y004030D01*
X027945Y003655D02*
X028245Y003655D01*
X028095Y003655D02*
X028095Y004105D01*
X028245Y003955D01*
D15*
X018515Y009305D02*
X018208Y009765D01*
X018054Y009765D02*
X017748Y009765D01*
X017748Y009688D01*
X018054Y009382D01*
X018054Y009305D01*
X018208Y009305D02*
X018515Y009765D01*
X017534Y009145D02*
X017534Y008824D01*
X017534Y008833D02*
X016893Y008833D01*
X016859Y008875D01*
X016859Y008993D01*
X016860Y008993D02*
X016858Y009006D01*
X016853Y009019D01*
X016845Y009029D01*
X016835Y009037D01*
X016822Y009042D01*
X016809Y009044D01*
X016809Y009043D02*
X016202Y009043D01*
X016189Y009042D01*
X016176Y009037D01*
X016165Y009030D01*
X016156Y009021D01*
X016149Y009010D01*
X016144Y008997D01*
X016143Y008984D01*
X016143Y008858D01*
X016109Y008824D01*
X016252Y008655D01*
X016767Y008655D01*
X016902Y008824D01*
X016977Y008335D02*
X016455Y008335D01*
X016455Y007838D01*
X016008Y007829D02*
X015999Y007829D01*
X015999Y008335D01*
X015485Y008335D01*
X015485Y007846D01*
X015215Y007838D02*
X015215Y008335D01*
X014701Y008335D01*
X014701Y007829D01*
X014237Y007829D02*
X014237Y008335D01*
X013723Y008335D01*
X013723Y007829D01*
X013377Y007669D02*
X013377Y007306D01*
X013242Y007188D01*
X013183Y007315D02*
X013183Y007821D01*
X013191Y007821D01*
X013377Y007669D01*
X017315Y007669D01*
X017323Y007306D01*
X017450Y007197D01*
X017526Y007357D02*
X017526Y007821D01*
X017315Y007669D01*
X017526Y007821D02*
X013191Y007821D01*
X013023Y007618D02*
X012921Y007509D01*
X012905Y007062D02*
X012618Y007062D01*
X012618Y007061D02*
X012599Y007063D01*
X012580Y007068D01*
X012563Y007076D01*
X012547Y007087D01*
X012534Y007100D01*
X012523Y007116D01*
X012515Y007133D01*
X012510Y007152D01*
X012508Y007171D01*
X012744Y007053D02*
X012744Y006843D01*
X012746Y006818D01*
X012751Y006793D01*
X012760Y006769D01*
X012772Y006747D01*
X012787Y006727D01*
X012805Y006709D01*
X012825Y006694D01*
X012847Y006682D01*
X012871Y006673D01*
X012896Y006668D01*
X012921Y006666D01*
X012921Y006665D02*
X013158Y006665D01*
X013158Y006522D01*
X013160Y006506D01*
X013164Y006490D01*
X013172Y006475D01*
X013183Y006463D01*
X013195Y006452D01*
X013210Y006444D01*
X013226Y006440D01*
X013242Y006438D01*
X014802Y006438D01*
X014817Y006439D01*
X014831Y006444D01*
X014844Y006451D01*
X014856Y006460D01*
X014865Y006472D01*
X014872Y006485D01*
X014877Y006499D01*
X014878Y006514D01*
X014878Y006665D01*
X015805Y006665D01*
X015814Y006539D02*
X015814Y006826D01*
X014583Y006826D01*
X014549Y006792D01*
X014549Y006615D01*
X013832Y006615D01*
X013832Y006775D01*
X013933Y006961D01*
X013925Y006969D02*
X014009Y006741D01*
X014380Y006741D01*
X014431Y006969D01*
X014541Y006767D01*
X014583Y006826D02*
X014448Y006986D01*
X013916Y006986D01*
X013782Y006826D01*
X013158Y006826D01*
X013158Y006665D01*
X013158Y006826D02*
X012981Y006826D01*
X012966Y006828D01*
X012952Y006833D01*
X012939Y006841D01*
X012929Y006851D01*
X012921Y006864D01*
X012916Y006878D01*
X012914Y006893D01*
X013183Y007315D02*
X013185Y007287D01*
X013190Y007260D01*
X013199Y007234D01*
X013211Y007210D01*
X013227Y007187D01*
X013245Y007166D01*
X013266Y007148D01*
X013289Y007132D01*
X013313Y007120D01*
X013339Y007111D01*
X013366Y007106D01*
X013394Y007104D01*
X013782Y006826D02*
X013832Y006775D01*
X014878Y006826D02*
X014878Y006665D01*
X015814Y006826D02*
X016117Y006826D01*
X016159Y006767D01*
X016261Y006944D01*
X016328Y006724D01*
X016691Y006724D01*
X016767Y006969D01*
X016775Y006977D02*
X016252Y006977D01*
X016117Y006826D01*
X016159Y006767D02*
X016159Y006623D01*
X016160Y006616D01*
X016164Y006611D01*
X016169Y006607D01*
X016176Y006606D01*
X016817Y006606D01*
X016830Y006607D01*
X016843Y006612D01*
X016854Y006619D01*
X016863Y006628D01*
X016870Y006639D01*
X016875Y006652D01*
X016876Y006665D01*
X016876Y006767D01*
X016910Y006826D01*
X016910Y006826D01*
X017711Y006826D01*
X017770Y006665D02*
X017796Y006667D01*
X017822Y006673D01*
X017847Y006682D01*
X017871Y006695D01*
X017892Y006710D01*
X017911Y006729D01*
X017926Y006750D01*
X017939Y006774D01*
X017948Y006799D01*
X017954Y006825D01*
X017956Y006851D01*
X017956Y007053D01*
X018090Y007062D02*
X017795Y007062D01*
X017795Y006910D01*
X017793Y006894D01*
X017789Y006878D01*
X017781Y006863D01*
X017770Y006851D01*
X017758Y006840D01*
X017743Y006832D01*
X017727Y006828D01*
X017711Y006826D01*
X017770Y006665D02*
X017534Y006665D01*
X017534Y006826D01*
X017534Y006665D02*
X017534Y006505D01*
X017533Y006505D02*
X017531Y006490D01*
X017526Y006476D01*
X017518Y006463D01*
X017508Y006453D01*
X017495Y006445D01*
X017481Y006440D01*
X017466Y006438D01*
X015915Y006438D01*
X015897Y006440D01*
X015880Y006444D01*
X015865Y006452D01*
X015850Y006462D01*
X015838Y006474D01*
X015828Y006489D01*
X015820Y006504D01*
X015816Y006521D01*
X015814Y006539D01*
X016767Y006927D02*
X016868Y006750D01*
X016910Y006834D02*
X016775Y006977D01*
X017273Y007104D02*
X017303Y007106D01*
X017334Y007111D01*
X017363Y007120D01*
X017391Y007133D01*
X017417Y007149D01*
X017441Y007168D01*
X017462Y007189D01*
X017481Y007213D01*
X017497Y007239D01*
X017510Y007267D01*
X017519Y007296D01*
X017524Y007327D01*
X017526Y007357D01*
X017677Y007601D02*
X017787Y007500D01*
X018174Y007146D02*
X018172Y007130D01*
X018168Y007114D01*
X018160Y007099D01*
X018149Y007087D01*
X018137Y007076D01*
X018122Y007068D01*
X018106Y007064D01*
X018090Y007062D01*
X016977Y007838D02*
X016977Y008335D01*
X016109Y008824D02*
X015814Y008824D01*
X014878Y008824D01*
X014583Y008824D01*
X014549Y008858D01*
X014549Y008984D01*
X014548Y008997D01*
X014543Y009010D01*
X014536Y009021D01*
X014527Y009030D01*
X014516Y009037D01*
X014503Y009042D01*
X014490Y009043D01*
X013883Y009043D01*
X013883Y009044D02*
X013870Y009042D01*
X013858Y009037D01*
X013847Y009029D01*
X013839Y009019D01*
X013834Y009006D01*
X013832Y008993D01*
X013832Y008875D01*
X013798Y008833D01*
X013158Y008833D01*
X013158Y009144D01*
X013160Y009159D01*
X013165Y009173D01*
X013173Y009186D01*
X013183Y009196D01*
X013196Y009204D01*
X013210Y009209D01*
X013225Y009211D01*
X013225Y009212D02*
X014802Y009212D01*
X014817Y009211D01*
X014831Y009206D01*
X014844Y009199D01*
X014856Y009190D01*
X014865Y009178D01*
X014872Y009165D01*
X014877Y009151D01*
X014878Y009136D01*
X014878Y008984D01*
X014878Y008824D01*
X014878Y008984D02*
X015805Y008984D01*
X015814Y008824D02*
X015814Y009145D01*
X015816Y009160D01*
X015821Y009174D01*
X015829Y009187D01*
X015839Y009197D01*
X015852Y009205D01*
X015866Y009210D01*
X015881Y009212D01*
X017467Y009212D01*
X017482Y009210D01*
X017496Y009205D01*
X017509Y009197D01*
X017519Y009187D01*
X017527Y009174D01*
X017532Y009160D01*
X017534Y009145D01*
X014583Y008824D02*
X014439Y008655D01*
X013925Y008655D01*
X013790Y008824D01*
D16*
X022738Y006436D02*
X023158Y006436D01*
X023158Y005805D01*
X022738Y005805D01*
X022948Y006120D02*
X023158Y006120D01*
X023378Y005805D02*
X023588Y005805D01*
X023483Y005805D02*
X023483Y006436D01*
X023588Y006436D02*
X023378Y006436D01*
X023812Y006436D02*
X023812Y005805D01*
X024233Y006436D01*
X024233Y005805D01*
X024457Y005805D02*
X024457Y006225D01*
X024667Y006436D01*
X024877Y006225D01*
X024877Y005805D01*
X025101Y005805D02*
X025522Y005805D01*
X025522Y006436D01*
X025741Y006436D02*
X025951Y006436D01*
X025846Y006436D02*
X025846Y005805D01*
X025951Y005805D02*
X025741Y005805D01*
X026176Y005910D02*
X026176Y006015D01*
X026281Y006120D01*
X026491Y006120D01*
X026596Y006225D01*
X026596Y006330D01*
X026491Y006436D01*
X026281Y006436D01*
X026176Y006330D01*
X026820Y006225D02*
X026820Y005805D01*
X026596Y005910D02*
X026491Y005805D01*
X026281Y005805D01*
X026176Y005910D01*
X026820Y006120D02*
X027240Y006120D01*
X027240Y006225D02*
X027030Y006436D01*
X026820Y006225D01*
X027240Y006225D02*
X027240Y005805D01*
X027465Y005805D02*
X027885Y005805D01*
X027885Y005910D01*
X027465Y006330D01*
X027465Y006436D01*
X027885Y006436D01*
X024877Y006120D02*
X024457Y006120D01*
M02*
